<svg width="1440" height="1024" viewBox="0 0 1440 1024" fill="none" xmlns="http://www.w3.org/2000/svg">
<g opacity="0.4">
<mask id="path-1-inside-1_31_392" fill="white">
<path fill-rule="evenodd" clip-rule="evenodd" d="M-615.72 41.3335C-665.28 53.3029 -707.742 94.836 -720.502 143.818C-727.844 172.001 -727.828 408.575 -720.482 436.774C-709.778 477.864 -681.154 511.903 -641.523 530.673L-619.623 541.046H-451.046C-358.327 541.046 -282.469 541.401 -282.469 541.831C-282.469 542.264 -287.476 549.176 -293.594 557.191C-299.715 565.207 -308.099 580.241 -312.23 590.605C-319.501 608.854 -319.791 613.479 -321.472 738.094C-323.319 874.874 -323.286 874.601 -339.896 887.661C-348.258 894.241 -351.897 894.43 -471.031 894.416C-633.542 894.4 -621.883 901.546 -623.926 800.719C-625.626 716.722 -623.164 687.233 -614.043 682.354C-604.449 677.221 -599.133 680.465 -550.097 721.373L-506.636 757.636H-547.306C-581.389 757.636 -588.298 758.47 -589.957 762.789C-592.52 769.465 -592.449 844.953 -589.869 854.574L-587.895 861.941L-471.829 861.088L-355.763 860.231L-354.913 725.88L-354.063 591.53H-406.112H-458.16L-459.082 627.174L-460.004 662.815L-507.121 623.868C-568.105 573.46 -574.434 570.359 -616.365 570.359C-643.826 570.359 -651.341 571.542 -664.235 577.893C-683.75 587.501 -704.116 607.867 -715.189 628.835L-723.863 645.27V767.58V889.886L-711.752 914.388C-696.722 944.789 -674.128 967.933 -645.087 982.671L-623.226 993.768H-473.139H-323.055L-300.32 982.599C-271.631 968.51 -247.22 943.942 -232.981 914.835L-222.205 892.801L-220.576 762.521C-218.772 618.299 -218.977 619.667 -197.008 604.001L-186.372 596.415L-37.0541 595.506L112.268 594.598L125.122 607.447L137.973 620.299L137.047 746.217L136.122 872.135L123.956 883.284L111.785 894.43H22.6629C-62.7689 894.43 -66.7105 894.156 -72.447 887.818C-81.2162 878.132 -77.4343 871.249 -36.5263 822.447L-0.693604 779.699L0.218506 820.861L1.13062 862.022L52.3389 861.127L103.547 860.231L104.404 743.794L105.257 627.357H-29.9689H-165.198V677.452V727.545L-130.994 729.877C-112.182 731.157 -96.7905 732.981 -96.7905 733.925C-96.7905 734.87 -111.176 752.682 -128.757 773.507C-182.405 837.061 -189.539 850.503 -189.454 887.916C-189.356 931.481 -164.925 969.575 -125.831 987.117L-106.869 995.624L14.6265 994.696L136.122 993.768L158.189 983.316C186.803 969.767 211.355 945.238 225.916 915.668L237.106 892.938V744.676V596.415L226.73 574.518C207.198 533.291 167.577 502.467 123.092 493.888C109.489 491.267 56.8636 490.436 -49.9766 491.156L-203.504 492.192L-195.572 482.769C-183.63 468.588 -172.235 444.239 -166.853 421.414C-163.071 405.386 -162.026 375.546 -161.99 282.605L-161.941 164.213L-151.159 153.432C-143.497 145.772 -136.187 142.033 -125.913 140.525C-117.958 139.352 -61.6093 138.857 -0.693604 139.418C101.739 140.359 110.746 140.903 119.186 146.619C136.956 158.663 137.751 163.396 137.751 257.294C137.751 379.552 141.709 377.891 43.7683 296.772C32.9565 287.816 24.0245 279.387 23.9235 278.045C23.8226 276.703 42.0614 275.602 64.4568 275.602H105.176V225.119V174.635H-12.0949H-129.366V309.8V444.965H-78.8741H-28.3825V409.138C-28.3825 389.434 -27.2815 373.338 -25.9394 373.37C-24.5973 373.406 -5.90564 388.154 15.594 406.145C83.2202 462.735 96.1916 469.318 135.891 467.171C176.46 464.979 210.726 442.868 229.004 407.083L237.106 391.225L238.034 271.951C238.946 154.553 238.845 152.367 231.519 132.832C216.694 93.3085 188.969 64.4809 149.973 48.0494L129.607 39.4705L-3.5993 38.4869C-88.7509 37.855 -142.604 38.7442 -152.872 40.9459C-206.416 52.4268 -251.08 97.3308 -262.517 151.182C-264.84 162.119 -266.182 210.791 -266.182 284.034C-266.182 392.59 -266.573 400.393 -272.596 412.197C-276.124 419.111 -284.551 428.211 -291.326 432.423L-303.643 440.08H-450.994H-598.341L-610.612 427.814L-622.88 415.545V292.506C-622.88 180.443 -622.369 168.685 -617.134 160.699C-604.104 140.808 -602.091 140.437 -507.069 140.437C-413.601 140.437 -409.513 141.144 -409.513 157.308C-409.513 162.624 -421.507 179.687 -445.86 209.023C-465.848 233.102 -483.439 252.803 -484.95 252.803C-486.459 252.803 -487.693 235.372 -487.693 214.068C-487.693 181.752 -488.547 175.003 -492.847 173.355C-499.616 170.756 -565.437 170.802 -578.497 173.414L-588.676 175.45V292.294V409.138H-453.408H-318.136L-319.035 357.841L-319.931 306.543L-355.435 304.915L-390.941 303.286L-352.975 257.689C-303.571 198.356 -297.128 185.582 -297.128 146.951C-297.128 120.908 -298.206 115.508 -306.793 98.5652C-317.589 77.2678 -337.29 58.1949 -360.122 46.9518C-375.009 39.617 -377.547 39.4607 -489.322 38.907C-552.029 38.5943 -608.909 39.6887 -615.72 41.3335Z"/>
</mask>
<path fill-rule="evenodd" clip-rule="evenodd" d="M-615.72 41.3335C-665.28 53.3029 -707.742 94.836 -720.502 143.818C-727.844 172.001 -727.828 408.575 -720.482 436.774C-709.778 477.864 -681.154 511.903 -641.523 530.673L-619.623 541.046H-451.046C-358.327 541.046 -282.469 541.401 -282.469 541.831C-282.469 542.264 -287.476 549.176 -293.594 557.191C-299.715 565.207 -308.099 580.241 -312.23 590.605C-319.501 608.854 -319.791 613.479 -321.472 738.094C-323.319 874.874 -323.286 874.601 -339.896 887.661C-348.258 894.241 -351.897 894.43 -471.031 894.416C-633.542 894.4 -621.883 901.546 -623.926 800.719C-625.626 716.722 -623.164 687.233 -614.043 682.354C-604.449 677.221 -599.133 680.465 -550.097 721.373L-506.636 757.636H-547.306C-581.389 757.636 -588.298 758.47 -589.957 762.789C-592.52 769.465 -592.449 844.953 -589.869 854.574L-587.895 861.941L-471.829 861.088L-355.763 860.231L-354.913 725.88L-354.063 591.53H-406.112H-458.16L-459.082 627.174L-460.004 662.815L-507.121 623.868C-568.105 573.46 -574.434 570.359 -616.365 570.359C-643.826 570.359 -651.341 571.542 -664.235 577.893C-683.75 587.501 -704.116 607.867 -715.189 628.835L-723.863 645.27V767.58V889.886L-711.752 914.388C-696.722 944.789 -674.128 967.933 -645.087 982.671L-623.226 993.768H-473.139H-323.055L-300.32 982.599C-271.631 968.51 -247.22 943.942 -232.981 914.835L-222.205 892.801L-220.576 762.521C-218.772 618.299 -218.977 619.667 -197.008 604.001L-186.372 596.415L-37.0541 595.506L112.268 594.598L125.122 607.447L137.973 620.299L137.047 746.217L136.122 872.135L123.956 883.284L111.785 894.43H22.6629C-62.7689 894.43 -66.7105 894.156 -72.447 887.818C-81.2162 878.132 -77.4343 871.249 -36.5263 822.447L-0.693604 779.699L0.218506 820.861L1.13062 862.022L52.3389 861.127L103.547 860.231L104.404 743.794L105.257 627.357H-29.9689H-165.198V677.452V727.545L-130.994 729.877C-112.182 731.157 -96.7905 732.981 -96.7905 733.925C-96.7905 734.87 -111.176 752.682 -128.757 773.507C-182.405 837.061 -189.539 850.503 -189.454 887.916C-189.356 931.481 -164.925 969.575 -125.831 987.117L-106.869 995.624L14.6265 994.696L136.122 993.768L158.189 983.316C186.803 969.767 211.355 945.238 225.916 915.668L237.106 892.938V744.676V596.415L226.73 574.518C207.198 533.291 167.577 502.467 123.092 493.888C109.489 491.267 56.8636 490.436 -49.9766 491.156L-203.504 492.192L-195.572 482.769C-183.63 468.588 -172.235 444.239 -166.853 421.414C-163.071 405.386 -162.026 375.546 -161.99 282.605L-161.941 164.213L-151.159 153.432C-143.497 145.772 -136.187 142.033 -125.913 140.525C-117.958 139.352 -61.6093 138.857 -0.693604 139.418C101.739 140.359 110.746 140.903 119.186 146.619C136.956 158.663 137.751 163.396 137.751 257.294C137.751 379.552 141.709 377.891 43.7683 296.772C32.9565 287.816 24.0245 279.387 23.9235 278.045C23.8226 276.703 42.0614 275.602 64.4568 275.602H105.176V225.119V174.635H-12.0949H-129.366V309.8V444.965H-78.8741H-28.3825V409.138C-28.3825 389.434 -27.2815 373.338 -25.9394 373.37C-24.5973 373.406 -5.90564 388.154 15.594 406.145C83.2202 462.735 96.1916 469.318 135.891 467.171C176.46 464.979 210.726 442.868 229.004 407.083L237.106 391.225L238.034 271.951C238.946 154.553 238.845 152.367 231.519 132.832C216.694 93.3085 188.969 64.4809 149.973 48.0494L129.607 39.4705L-3.5993 38.4869C-88.7509 37.855 -142.604 38.7442 -152.872 40.9459C-206.416 52.4268 -251.08 97.3308 -262.517 151.182C-264.84 162.119 -266.182 210.791 -266.182 284.034C-266.182 392.59 -266.573 400.393 -272.596 412.197C-276.124 419.111 -284.551 428.211 -291.326 432.423L-303.643 440.08H-450.994H-598.341L-610.612 427.814L-622.88 415.545V292.506C-622.88 180.443 -622.369 168.685 -617.134 160.699C-604.104 140.808 -602.091 140.437 -507.069 140.437C-413.601 140.437 -409.513 141.144 -409.513 157.308C-409.513 162.624 -421.507 179.687 -445.86 209.023C-465.848 233.102 -483.439 252.803 -484.95 252.803C-486.459 252.803 -487.693 235.372 -487.693 214.068C-487.693 181.752 -488.547 175.003 -492.847 173.355C-499.616 170.756 -565.437 170.802 -578.497 173.414L-588.676 175.45V292.294V409.138H-453.408H-318.136L-319.035 357.841L-319.931 306.543L-355.435 304.915L-390.941 303.286L-352.975 257.689C-303.571 198.356 -297.128 185.582 -297.128 146.951C-297.128 120.908 -298.206 115.508 -306.793 98.5652C-317.589 77.2678 -337.29 58.1949 -360.122 46.9518C-375.009 39.617 -377.547 39.4607 -489.322 38.907C-552.029 38.5943 -608.909 39.6887 -615.72 41.3335Z" fill="#5D32A8" stroke="#FFD700" stroke-width="1.21361" mask="url(#path-1-inside-1_31_392)"/>
<mask id="path-2-inside-2_31_392" fill="white">
<path fill-rule="evenodd" clip-rule="evenodd" d="M375.065 261.029C325.505 272.999 283.043 314.532 270.283 363.514C262.941 391.696 262.957 628.271 270.303 656.47C281.007 697.56 309.631 731.599 349.262 750.369L371.162 760.742H539.739C632.458 760.742 708.316 761.097 708.316 761.527C708.316 761.96 703.309 768.872 697.191 776.887C691.071 784.903 682.686 799.937 678.555 810.3C671.284 828.549 670.994 833.174 669.314 957.79C667.466 1094.57 667.499 1094.3 650.889 1107.36C642.527 1113.94 638.888 1114.13 519.754 1114.11C357.243 1114.1 368.902 1121.24 366.859 1020.42C365.159 936.418 367.621 906.929 376.742 902.05C386.336 896.917 391.652 900.161 440.688 941.068L484.149 977.332H443.479C409.396 977.332 402.487 978.166 400.829 982.484C398.265 989.161 398.337 1064.65 400.917 1074.27L402.891 1081.64L518.956 1080.78L635.022 1079.93L635.872 945.576L636.722 811.225H584.673H532.625L531.703 846.87L530.781 882.511L483.664 843.564C422.68 793.156 416.351 790.055 374.42 790.055C346.959 790.055 339.444 791.237 326.551 797.589C307.035 807.197 286.669 827.562 275.596 848.531L266.922 864.966V987.275V1109.58L279.033 1134.08C294.063 1164.48 316.657 1187.63 345.698 1202.37L367.56 1213.46H517.647H667.73L690.465 1202.3C719.154 1188.21 743.566 1163.64 757.804 1134.53L768.58 1112.5L770.209 982.217C772.013 837.995 771.808 839.363 793.777 823.696L804.413 816.111L953.731 815.202L1103.05 814.294L1115.91 827.142L1128.76 839.994L1127.83 965.913L1126.91 1091.83L1114.74 1102.98L1102.57 1114.13H1013.45C928.016 1114.13 924.075 1113.85 918.338 1107.51C909.569 1097.83 913.351 1090.95 954.259 1042.14L990.091 999.395L991.004 1040.56L991.916 1081.72L1043.12 1080.82L1094.33 1079.93L1095.19 963.49L1096.04 847.052H960.816H825.587V897.148V947.24L859.791 949.573C878.603 950.852 893.995 952.676 893.995 953.621C893.995 954.565 879.609 972.378 862.029 993.203C808.38 1056.76 801.246 1070.2 801.331 1107.61C801.429 1151.18 825.86 1189.27 864.954 1206.81L883.916 1215.32L1005.41 1214.39L1126.91 1213.46L1148.97 1203.01C1177.59 1189.46 1202.14 1164.93 1216.7 1135.36L1227.89 1112.63V964.372V816.111L1217.52 794.214C1197.98 752.987 1158.36 722.163 1113.88 713.584C1100.27 710.962 1047.65 710.132 940.808 710.852L787.281 711.887L795.214 702.465C807.156 688.284 818.55 663.935 823.932 641.11C827.714 625.082 828.759 595.242 828.795 502.3L828.844 383.909L839.627 373.128C847.288 365.468 854.598 361.729 864.872 360.221C872.827 359.048 929.176 358.553 990.091 359.113C1092.52 360.055 1101.53 360.599 1109.97 366.315C1127.74 378.359 1128.54 383.091 1128.54 476.99C1128.54 599.248 1132.49 597.587 1034.55 516.468C1023.74 507.512 1014.81 499.082 1014.71 497.741C1014.61 496.399 1032.85 495.298 1055.24 495.298H1095.96V444.814V394.331H978.69H861.419V529.496V664.661H911.911H962.403V628.834C962.403 609.129 963.504 593.033 964.846 593.066C966.188 593.102 984.879 607.849 1006.38 625.841C1074.01 682.431 1086.98 689.014 1126.68 686.867C1167.25 684.675 1201.51 662.564 1219.79 626.779L1227.89 610.921L1228.82 491.647C1229.73 374.249 1229.63 372.063 1222.3 352.528C1207.48 313.004 1179.75 284.177 1140.76 267.745L1120.39 259.166L987.186 258.183C902.034 257.551 848.181 258.44 837.913 260.642C784.369 272.123 739.705 317.027 728.268 370.878C725.946 381.815 724.603 430.487 724.603 503.73C724.603 612.285 724.213 620.089 718.189 631.893C714.662 638.807 706.234 647.907 699.459 652.118L687.142 659.776H539.791H392.444L380.173 647.51L367.905 635.241V512.202C367.905 400.138 368.416 388.381 373.651 380.395C386.681 360.504 388.694 360.133 483.716 360.133C577.184 360.133 581.272 360.84 581.272 377.004C581.272 382.319 569.278 399.383 544.925 428.718C524.937 452.797 507.346 472.499 505.835 472.499C504.327 472.499 503.092 455.068 503.092 433.764C503.092 401.448 502.238 394.699 497.939 393.051C491.169 390.452 425.348 390.498 412.289 393.11L402.109 395.145V511.99V628.834H537.377H672.649L671.75 577.537L670.854 526.239L635.351 524.611L599.844 522.982L637.81 477.384C687.214 418.052 693.657 405.278 693.657 366.647C693.657 340.604 692.579 335.204 683.992 318.261C673.197 296.964 653.495 277.891 630.663 266.648C615.776 259.313 613.239 259.156 501.463 258.603C438.756 258.29 381.876 259.384 375.065 261.029Z"/>
</mask>
<path fill-rule="evenodd" clip-rule="evenodd" d="M375.065 261.029C325.505 272.999 283.043 314.532 270.283 363.514C262.941 391.696 262.957 628.271 270.303 656.47C281.007 697.56 309.631 731.599 349.262 750.369L371.162 760.742H539.739C632.458 760.742 708.316 761.097 708.316 761.527C708.316 761.96 703.309 768.872 697.191 776.887C691.071 784.903 682.686 799.937 678.555 810.3C671.284 828.549 670.994 833.174 669.314 957.79C667.466 1094.57 667.499 1094.3 650.889 1107.36C642.527 1113.94 638.888 1114.13 519.754 1114.11C357.243 1114.1 368.902 1121.24 366.859 1020.42C365.159 936.418 367.621 906.929 376.742 902.05C386.336 896.917 391.652 900.161 440.688 941.068L484.149 977.332H443.479C409.396 977.332 402.487 978.166 400.829 982.484C398.265 989.161 398.337 1064.65 400.917 1074.27L402.891 1081.64L518.956 1080.78L635.022 1079.93L635.872 945.576L636.722 811.225H584.673H532.625L531.703 846.87L530.781 882.511L483.664 843.564C422.68 793.156 416.351 790.055 374.42 790.055C346.959 790.055 339.444 791.237 326.551 797.589C307.035 807.197 286.669 827.562 275.596 848.531L266.922 864.966V987.275V1109.58L279.033 1134.08C294.063 1164.48 316.657 1187.63 345.698 1202.37L367.56 1213.46H517.647H667.73L690.465 1202.3C719.154 1188.21 743.566 1163.64 757.804 1134.53L768.58 1112.5L770.209 982.217C772.013 837.995 771.808 839.363 793.777 823.696L804.413 816.111L953.731 815.202L1103.05 814.294L1115.91 827.142L1128.76 839.994L1127.83 965.913L1126.91 1091.83L1114.74 1102.98L1102.57 1114.13H1013.45C928.016 1114.13 924.075 1113.85 918.338 1107.51C909.569 1097.83 913.351 1090.95 954.259 1042.14L990.091 999.395L991.004 1040.56L991.916 1081.72L1043.12 1080.82L1094.33 1079.93L1095.19 963.49L1096.04 847.052H960.816H825.587V897.148V947.24L859.791 949.573C878.603 950.852 893.995 952.676 893.995 953.621C893.995 954.565 879.609 972.378 862.029 993.203C808.38 1056.76 801.246 1070.2 801.331 1107.61C801.429 1151.18 825.86 1189.27 864.954 1206.81L883.916 1215.32L1005.41 1214.39L1126.91 1213.46L1148.97 1203.01C1177.59 1189.46 1202.14 1164.93 1216.7 1135.36L1227.89 1112.63V964.372V816.111L1217.52 794.214C1197.98 752.987 1158.36 722.163 1113.88 713.584C1100.27 710.962 1047.65 710.132 940.808 710.852L787.281 711.887L795.214 702.465C807.156 688.284 818.55 663.935 823.932 641.11C827.714 625.082 828.759 595.242 828.795 502.3L828.844 383.909L839.627 373.128C847.288 365.468 854.598 361.729 864.872 360.221C872.827 359.048 929.176 358.553 990.091 359.113C1092.52 360.055 1101.53 360.599 1109.97 366.315C1127.74 378.359 1128.54 383.091 1128.54 476.99C1128.54 599.248 1132.49 597.587 1034.55 516.468C1023.74 507.512 1014.81 499.082 1014.71 497.741C1014.61 496.399 1032.85 495.298 1055.24 495.298H1095.96V444.814V394.331H978.69H861.419V529.496V664.661H911.911H962.403V628.834C962.403 609.129 963.504 593.033 964.846 593.066C966.188 593.102 984.879 607.849 1006.38 625.841C1074.01 682.431 1086.98 689.014 1126.68 686.867C1167.25 684.675 1201.51 662.564 1219.79 626.779L1227.89 610.921L1228.82 491.647C1229.73 374.249 1229.63 372.063 1222.3 352.528C1207.48 313.004 1179.75 284.177 1140.76 267.745L1120.39 259.166L987.186 258.183C902.034 257.551 848.181 258.44 837.913 260.642C784.369 272.123 739.705 317.027 728.268 370.878C725.946 381.815 724.603 430.487 724.603 503.73C724.603 612.285 724.213 620.089 718.189 631.893C714.662 638.807 706.234 647.907 699.459 652.118L687.142 659.776H539.791H392.444L380.173 647.51L367.905 635.241V512.202C367.905 400.138 368.416 388.381 373.651 380.395C386.681 360.504 388.694 360.133 483.716 360.133C577.184 360.133 581.272 360.84 581.272 377.004C581.272 382.319 569.278 399.383 544.925 428.718C524.937 452.797 507.346 472.499 505.835 472.499C504.327 472.499 503.092 455.068 503.092 433.764C503.092 401.448 502.238 394.699 497.939 393.051C491.169 390.452 425.348 390.498 412.289 393.11L402.109 395.145V511.99V628.834H537.377H672.649L671.75 577.537L670.854 526.239L635.351 524.611L599.844 522.982L637.81 477.384C687.214 418.052 693.657 405.278 693.657 366.647C693.657 340.604 692.579 335.204 683.992 318.261C673.197 296.964 653.495 277.891 630.663 266.648C615.776 259.313 613.239 259.156 501.463 258.603C438.756 258.29 381.876 259.384 375.065 261.029Z" fill="#5D32A8" stroke="#FFD700" stroke-width="1.21361" mask="url(#path-2-inside-2_31_392)"/>
<mask id="path-3-inside-3_31_392" fill="white">
<path fill-rule="evenodd" clip-rule="evenodd" d="M375.065 -725.955C325.505 -713.985 283.043 -672.452 270.283 -623.47C262.941 -595.288 262.957 -358.713 270.303 -330.514C281.007 -289.424 309.631 -255.385 349.262 -236.615L371.162 -226.242H539.739C632.458 -226.242 708.316 -225.887 708.316 -225.457C708.316 -225.024 703.309 -218.112 697.191 -210.097C691.071 -202.081 682.686 -187.047 678.555 -176.683C671.284 -158.435 670.994 -153.81 669.314 -29.194C667.466 107.586 667.499 107.313 650.889 120.373C642.527 126.952 638.888 127.141 519.754 127.128C357.243 127.112 368.902 134.258 366.859 33.4313C365.159 -50.5663 367.621 -80.0551 376.742 -84.9341C386.336 -90.0671 391.652 -86.8231 440.688 -45.9154L484.149 -9.6521H443.479C409.396 -9.6521 402.487 -8.8183 400.829 -4.49951C398.265 2.17731 398.337 77.6645 400.917 87.2856L402.891 94.6529L518.956 93.7996L635.022 92.943L635.872 -41.4077L636.722 -175.758H584.673H532.625L531.703 -140.114L530.781 -104.473L483.664 -143.42C422.68 -193.828 416.351 -196.929 374.42 -196.929C346.959 -196.929 339.444 -195.747 326.551 -189.395C307.035 -179.787 286.669 -159.421 275.596 -138.453L266.922 -122.018V0.291504V122.598L279.033 147.1C294.063 177.501 316.657 200.645 345.698 215.383L367.56 226.479H517.647H667.73L690.465 215.311C719.154 201.222 743.566 176.654 757.804 147.546L768.58 125.513L770.209 -4.7666C772.013 -148.989 771.808 -147.621 793.777 -163.287L804.413 -170.873L953.731 -171.782L1103.05 -172.69L1115.91 -159.842L1128.76 -146.99L1127.83 -21.0711L1126.91 104.847L1114.74 115.996L1102.57 127.141H1013.45C928.016 127.141 924.075 126.868 918.338 120.53C909.569 110.843 913.351 103.961 954.259 55.1586L990.091 12.4107L991.004 53.5725L991.916 94.7343L1043.12 93.8386L1094.33 92.943L1095.19 -23.4943L1096.04 -139.932H960.816H825.587V-89.8359V-39.7434L859.791 -37.4114C878.603 -36.1314 893.995 -34.3075 893.995 -33.363C893.995 -32.4184 879.609 -14.606 862.029 6.21918C808.38 69.7728 801.246 83.2144 801.331 120.627C801.429 164.193 825.86 202.287 864.954 219.829L883.916 228.336L1005.41 227.408L1126.91 226.479L1148.97 216.028C1177.59 202.479 1202.14 177.95 1216.7 148.38L1227.89 125.65V-22.6116V-170.873L1217.52 -192.77C1197.98 -233.997 1158.36 -264.821 1113.88 -273.4C1100.27 -276.022 1047.65 -276.852 940.808 -276.132L787.281 -275.096L795.214 -284.519C807.156 -298.7 818.55 -323.049 823.932 -345.874C827.714 -361.902 828.759 -391.742 828.795 -484.684L828.844 -603.075L839.627 -613.856C847.288 -621.516 854.598 -625.255 864.872 -626.763C872.827 -627.936 929.176 -628.431 990.091 -627.87C1092.52 -626.929 1101.53 -626.385 1109.97 -620.669C1127.74 -608.625 1128.54 -603.893 1128.54 -509.994C1128.54 -387.736 1132.49 -389.397 1034.55 -470.516C1023.74 -479.472 1014.81 -487.901 1014.71 -489.243C1014.61 -490.585 1032.85 -491.686 1055.24 -491.686H1095.96V-542.169V-592.653H978.69H861.419V-457.488V-322.323H911.911H962.403V-358.15C962.403 -377.854 963.504 -393.95 964.846 -393.918C966.188 -393.882 984.879 -379.134 1006.38 -361.143C1074.01 -304.553 1086.98 -297.97 1126.68 -300.117C1167.25 -302.309 1201.51 -324.42 1219.79 -360.205L1227.89 -376.063L1228.82 -495.337C1229.73 -612.735 1229.63 -614.921 1222.3 -634.456C1207.48 -673.98 1179.75 -702.807 1140.76 -719.239L1120.39 -727.818L987.186 -728.801C902.034 -729.433 848.181 -728.544 837.913 -726.342C784.369 -714.861 739.705 -669.957 728.268 -616.106C725.946 -605.169 724.603 -556.497 724.603 -483.254C724.603 -374.698 724.213 -366.895 718.189 -355.091C714.662 -348.177 706.234 -339.077 699.459 -334.865L687.142 -327.208H539.791H392.444L380.173 -339.474L367.905 -351.743V-474.782C367.905 -586.845 368.416 -598.603 373.651 -606.589C386.681 -626.48 388.694 -626.851 483.716 -626.851C577.184 -626.851 581.272 -626.144 581.272 -609.98C581.272 -604.664 569.278 -587.601 544.925 -558.265C524.937 -534.187 507.346 -514.485 505.835 -514.485C504.327 -514.485 503.092 -531.916 503.092 -553.22C503.092 -585.536 502.238 -592.285 497.939 -593.933C491.169 -596.532 425.348 -596.486 412.289 -593.874L402.109 -591.838V-474.994V-358.15H537.377H672.649L671.75 -409.447L670.854 -460.745L635.351 -462.373L599.844 -464.002L637.81 -509.6C687.214 -568.932 693.657 -581.706 693.657 -620.337C693.657 -646.38 692.579 -651.78 683.992 -668.723C673.197 -690.02 653.495 -709.093 630.663 -720.336C615.776 -727.671 613.239 -727.827 501.463 -728.381C438.756 -728.694 381.876 -727.599 375.065 -725.955Z"/>
</mask>
<path fill-rule="evenodd" clip-rule="evenodd" d="M375.065 -725.955C325.505 -713.985 283.043 -672.452 270.283 -623.47C262.941 -595.288 262.957 -358.713 270.303 -330.514C281.007 -289.424 309.631 -255.385 349.262 -236.615L371.162 -226.242H539.739C632.458 -226.242 708.316 -225.887 708.316 -225.457C708.316 -225.024 703.309 -218.112 697.191 -210.097C691.071 -202.081 682.686 -187.047 678.555 -176.683C671.284 -158.435 670.994 -153.81 669.314 -29.194C667.466 107.586 667.499 107.313 650.889 120.373C642.527 126.952 638.888 127.141 519.754 127.128C357.243 127.112 368.902 134.258 366.859 33.4313C365.159 -50.5663 367.621 -80.0551 376.742 -84.9341C386.336 -90.0671 391.652 -86.8231 440.688 -45.9154L484.149 -9.6521H443.479C409.396 -9.6521 402.487 -8.8183 400.829 -4.49951C398.265 2.17731 398.337 77.6645 400.917 87.2856L402.891 94.6529L518.956 93.7996L635.022 92.943L635.872 -41.4077L636.722 -175.758H584.673H532.625L531.703 -140.114L530.781 -104.473L483.664 -143.42C422.68 -193.828 416.351 -196.929 374.42 -196.929C346.959 -196.929 339.444 -195.747 326.551 -189.395C307.035 -179.787 286.669 -159.421 275.596 -138.453L266.922 -122.018V0.291504V122.598L279.033 147.1C294.063 177.501 316.657 200.645 345.698 215.383L367.56 226.479H517.647H667.73L690.465 215.311C719.154 201.222 743.566 176.654 757.804 147.546L768.58 125.513L770.209 -4.7666C772.013 -148.989 771.808 -147.621 793.777 -163.287L804.413 -170.873L953.731 -171.782L1103.05 -172.69L1115.91 -159.842L1128.76 -146.99L1127.83 -21.0711L1126.91 104.847L1114.74 115.996L1102.57 127.141H1013.45C928.016 127.141 924.075 126.868 918.338 120.53C909.569 110.843 913.351 103.961 954.259 55.1586L990.091 12.4107L991.004 53.5725L991.916 94.7343L1043.12 93.8386L1094.33 92.943L1095.19 -23.4943L1096.04 -139.932H960.816H825.587V-89.8359V-39.7434L859.791 -37.4114C878.603 -36.1314 893.995 -34.3075 893.995 -33.363C893.995 -32.4184 879.609 -14.606 862.029 6.21918C808.38 69.7728 801.246 83.2144 801.331 120.627C801.429 164.193 825.86 202.287 864.954 219.829L883.916 228.336L1005.41 227.408L1126.91 226.479L1148.97 216.028C1177.59 202.479 1202.14 177.95 1216.7 148.38L1227.89 125.65V-22.6116V-170.873L1217.52 -192.77C1197.98 -233.997 1158.36 -264.821 1113.88 -273.4C1100.27 -276.022 1047.65 -276.852 940.808 -276.132L787.281 -275.096L795.214 -284.519C807.156 -298.7 818.55 -323.049 823.932 -345.874C827.714 -361.902 828.759 -391.742 828.795 -484.684L828.844 -603.075L839.627 -613.856C847.288 -621.516 854.598 -625.255 864.872 -626.763C872.827 -627.936 929.176 -628.431 990.091 -627.87C1092.52 -626.929 1101.53 -626.385 1109.97 -620.669C1127.74 -608.625 1128.54 -603.893 1128.54 -509.994C1128.54 -387.736 1132.49 -389.397 1034.55 -470.516C1023.74 -479.472 1014.81 -487.901 1014.71 -489.243C1014.61 -490.585 1032.85 -491.686 1055.24 -491.686H1095.96V-542.169V-592.653H978.69H861.419V-457.488V-322.323H911.911H962.403V-358.15C962.403 -377.854 963.504 -393.95 964.846 -393.918C966.188 -393.882 984.879 -379.134 1006.38 -361.143C1074.01 -304.553 1086.98 -297.97 1126.68 -300.117C1167.25 -302.309 1201.51 -324.42 1219.79 -360.205L1227.89 -376.063L1228.82 -495.337C1229.73 -612.735 1229.63 -614.921 1222.3 -634.456C1207.48 -673.98 1179.75 -702.807 1140.76 -719.239L1120.39 -727.818L987.186 -728.801C902.034 -729.433 848.181 -728.544 837.913 -726.342C784.369 -714.861 739.705 -669.957 728.268 -616.106C725.946 -605.169 724.603 -556.497 724.603 -483.254C724.603 -374.698 724.213 -366.895 718.189 -355.091C714.662 -348.177 706.234 -339.077 699.459 -334.865L687.142 -327.208H539.791H392.444L380.173 -339.474L367.905 -351.743V-474.782C367.905 -586.845 368.416 -598.603 373.651 -606.589C386.681 -626.48 388.694 -626.851 483.716 -626.851C577.184 -626.851 581.272 -626.144 581.272 -609.98C581.272 -604.664 569.278 -587.601 544.925 -558.265C524.937 -534.187 507.346 -514.485 505.835 -514.485C504.327 -514.485 503.092 -531.916 503.092 -553.22C503.092 -585.536 502.238 -592.285 497.939 -593.933C491.169 -596.532 425.348 -596.486 412.289 -593.874L402.109 -591.838V-474.994V-358.15H537.377H672.649L671.75 -409.447L670.854 -460.745L635.351 -462.373L599.844 -464.002L637.81 -509.6C687.214 -568.932 693.657 -581.706 693.657 -620.337C693.657 -646.38 692.579 -651.78 683.992 -668.723C673.197 -690.02 653.495 -709.093 630.663 -720.336C615.776 -727.671 613.239 -727.827 501.463 -728.381C438.756 -728.694 381.876 -727.599 375.065 -725.955Z" fill="#5D32A8" stroke="#FFD700" stroke-width="1.21361" mask="url(#path-3-inside-3_31_392)"/>
<mask id="path-4-inside-4_31_392" fill="white">
<path fill-rule="evenodd" clip-rule="evenodd" d="M1365.85 41.3335C1316.29 53.3029 1273.83 94.836 1261.07 143.818C1253.73 172.001 1253.74 408.575 1261.09 436.774C1271.79 477.864 1300.42 511.903 1340.05 530.673L1361.95 541.046H1530.52C1623.24 541.046 1699.1 541.401 1699.1 541.831C1699.1 542.264 1694.09 549.176 1687.98 557.191C1681.86 565.207 1673.47 580.241 1669.34 590.605C1662.07 608.854 1661.78 613.479 1660.1 738.094C1658.25 874.874 1658.28 874.601 1641.67 887.661C1633.31 894.241 1629.67 894.43 1510.54 894.416C1348.03 894.4 1359.69 901.546 1357.64 800.719C1355.94 716.722 1358.41 687.233 1367.53 682.354C1377.12 677.221 1382.44 680.465 1431.47 721.373L1474.93 757.636H1434.26C1400.18 757.636 1393.27 758.47 1391.61 762.789C1389.05 769.465 1389.12 844.953 1391.7 854.574L1393.68 861.941L1509.74 861.088L1625.81 860.231L1626.66 725.88L1627.51 591.53H1575.46H1523.41L1522.49 627.174L1521.57 662.815L1474.45 623.868C1413.47 573.46 1407.14 570.359 1365.2 570.359C1337.74 570.359 1330.23 571.542 1317.34 577.893C1297.82 587.501 1277.45 607.867 1266.38 628.835L1257.71 645.27V767.58V889.886L1269.82 914.388C1284.85 944.789 1307.44 967.933 1336.48 982.671L1358.34 993.768H1508.43H1658.52L1681.25 982.599C1709.94 968.51 1734.35 943.942 1748.59 914.835L1759.37 892.801L1760.99 762.521C1762.8 618.299 1762.59 619.667 1784.56 604.001L1795.2 596.415L1944.52 595.506L2093.84 594.598L2106.69 607.447L2119.54 620.299L2118.62 746.217L2117.69 872.135L2105.53 883.284L2093.36 894.43H2004.23C1918.8 894.43 1914.86 894.156 1909.12 887.818C1900.35 878.132 1904.14 871.249 1945.04 822.447L1980.88 779.699L1981.79 820.861L1982.7 862.022L2033.91 861.127L2085.12 860.231L2085.97 743.794L2086.83 627.357H1951.6H1816.37V677.452V727.545L1850.58 729.877C1869.39 731.157 1884.78 732.981 1884.78 733.925C1884.78 734.87 1870.39 752.682 1852.81 773.507C1799.17 837.061 1792.03 850.503 1792.12 887.916C1792.21 931.481 1816.65 969.575 1855.74 987.117L1874.7 995.624L1996.2 994.696L2117.69 993.768L2139.76 983.316C2168.37 969.767 2192.92 945.238 2207.49 915.668L2218.68 892.938V744.676V596.415L2208.3 574.518C2188.77 533.291 2149.15 502.467 2104.66 493.888C2091.06 491.267 2038.43 490.436 1931.59 491.156L1778.07 492.192L1786 482.769C1797.94 468.588 1809.34 444.239 1814.72 421.414C1818.5 405.386 1819.54 375.546 1819.58 282.605L1819.63 164.213L1830.41 153.432C1838.07 145.772 1845.38 142.033 1855.66 140.525C1863.61 139.352 1919.96 138.857 1980.88 139.418C2083.31 140.359 2092.32 140.903 2100.76 146.619C2118.53 158.663 2119.32 163.396 2119.32 257.294C2119.32 379.552 2123.28 377.891 2025.34 296.772C2014.53 287.816 2005.59 279.387 2005.49 278.045C2005.39 276.703 2023.63 275.602 2046.03 275.602H2086.75V225.119V174.635H1969.48H1852.2V309.8V444.965H1902.7H1953.19V409.138C1953.19 389.434 1954.29 373.338 1955.63 373.37C1956.97 373.406 1975.66 388.154 1997.16 406.145C2064.79 462.735 2077.76 469.318 2117.46 467.171C2158.03 464.979 2192.3 442.868 2210.57 407.083L2218.68 391.225L2219.6 271.951C2220.52 154.553 2220.42 152.367 2213.09 132.832C2198.26 93.3085 2170.54 64.4809 2131.54 48.0494L2111.18 39.4705L1977.97 38.4869C1892.82 37.855 1838.97 38.7442 1828.7 40.9459C1775.15 52.4268 1730.49 97.3308 1719.05 151.182C1716.73 162.119 1715.39 210.791 1715.39 284.034C1715.39 392.59 1715 400.393 1708.97 412.197C1705.45 419.111 1697.02 428.211 1690.24 432.423L1677.93 440.08H1530.58H1383.23L1370.96 427.814L1358.69 415.545V292.506C1358.69 180.443 1359.2 168.685 1364.44 160.699C1377.47 140.808 1379.48 140.437 1474.5 140.437C1567.97 140.437 1572.06 141.144 1572.06 157.308C1572.06 162.624 1560.06 179.687 1535.71 209.023C1515.72 233.102 1498.13 252.803 1496.62 252.803C1495.11 252.803 1493.88 235.372 1493.88 214.068C1493.88 181.752 1493.02 175.003 1488.72 173.355C1481.95 170.756 1416.13 170.802 1403.07 173.414L1392.89 175.45V292.294V409.138H1528.16H1663.43L1662.54 357.841L1661.64 306.543L1626.14 304.915L1590.63 303.286L1628.6 257.689C1678 198.356 1684.44 185.582 1684.44 146.951C1684.44 120.908 1683.36 115.508 1674.78 98.5652C1663.98 77.2678 1644.28 58.1949 1621.45 46.9518C1606.56 39.617 1604.02 39.4607 1492.25 38.907C1429.54 38.5943 1372.66 39.6887 1365.85 41.3335Z"/>
</mask>
<path fill-rule="evenodd" clip-rule="evenodd" d="M1365.85 41.3335C1316.29 53.3029 1273.83 94.836 1261.07 143.818C1253.73 172.001 1253.74 408.575 1261.09 436.774C1271.79 477.864 1300.42 511.903 1340.05 530.673L1361.95 541.046H1530.52C1623.24 541.046 1699.1 541.401 1699.1 541.831C1699.1 542.264 1694.09 549.176 1687.98 557.191C1681.86 565.207 1673.47 580.241 1669.34 590.605C1662.07 608.854 1661.78 613.479 1660.1 738.094C1658.25 874.874 1658.28 874.601 1641.67 887.661C1633.31 894.241 1629.67 894.43 1510.54 894.416C1348.03 894.4 1359.69 901.546 1357.64 800.719C1355.94 716.722 1358.41 687.233 1367.53 682.354C1377.12 677.221 1382.44 680.465 1431.47 721.373L1474.93 757.636H1434.26C1400.18 757.636 1393.27 758.47 1391.61 762.789C1389.05 769.465 1389.12 844.953 1391.7 854.574L1393.68 861.941L1509.74 861.088L1625.81 860.231L1626.66 725.88L1627.51 591.53H1575.46H1523.41L1522.49 627.174L1521.57 662.815L1474.45 623.868C1413.47 573.46 1407.14 570.359 1365.2 570.359C1337.74 570.359 1330.23 571.542 1317.34 577.893C1297.82 587.501 1277.45 607.867 1266.38 628.835L1257.71 645.27V767.58V889.886L1269.82 914.388C1284.85 944.789 1307.44 967.933 1336.48 982.671L1358.34 993.768H1508.43H1658.52L1681.25 982.599C1709.94 968.51 1734.35 943.942 1748.59 914.835L1759.37 892.801L1760.99 762.521C1762.8 618.299 1762.59 619.667 1784.56 604.001L1795.2 596.415L1944.52 595.506L2093.84 594.598L2106.69 607.447L2119.54 620.299L2118.62 746.217L2117.69 872.135L2105.53 883.284L2093.36 894.43H2004.23C1918.8 894.43 1914.86 894.156 1909.12 887.818C1900.35 878.132 1904.14 871.249 1945.04 822.447L1980.88 779.699L1981.79 820.861L1982.7 862.022L2033.91 861.127L2085.12 860.231L2085.97 743.794L2086.83 627.357H1951.6H1816.37V677.452V727.545L1850.58 729.877C1869.39 731.157 1884.78 732.981 1884.78 733.925C1884.78 734.87 1870.39 752.682 1852.81 773.507C1799.17 837.061 1792.03 850.503 1792.12 887.916C1792.21 931.481 1816.65 969.575 1855.74 987.117L1874.7 995.624L1996.2 994.696L2117.69 993.768L2139.76 983.316C2168.37 969.767 2192.92 945.238 2207.49 915.668L2218.68 892.938V744.676V596.415L2208.3 574.518C2188.77 533.291 2149.15 502.467 2104.66 493.888C2091.06 491.267 2038.43 490.436 1931.59 491.156L1778.07 492.192L1786 482.769C1797.94 468.588 1809.34 444.239 1814.72 421.414C1818.5 405.386 1819.54 375.546 1819.58 282.605L1819.63 164.213L1830.41 153.432C1838.07 145.772 1845.38 142.033 1855.66 140.525C1863.61 139.352 1919.96 138.857 1980.88 139.418C2083.31 140.359 2092.32 140.903 2100.76 146.619C2118.53 158.663 2119.32 163.396 2119.32 257.294C2119.32 379.552 2123.28 377.891 2025.34 296.772C2014.53 287.816 2005.59 279.387 2005.49 278.045C2005.39 276.703 2023.63 275.602 2046.03 275.602H2086.75V225.119V174.635H1969.48H1852.2V309.8V444.965H1902.7H1953.19V409.138C1953.19 389.434 1954.29 373.338 1955.63 373.37C1956.97 373.406 1975.66 388.154 1997.16 406.145C2064.79 462.735 2077.76 469.318 2117.46 467.171C2158.03 464.979 2192.3 442.868 2210.57 407.083L2218.68 391.225L2219.6 271.951C2220.52 154.553 2220.42 152.367 2213.09 132.832C2198.26 93.3085 2170.54 64.4809 2131.54 48.0494L2111.18 39.4705L1977.97 38.4869C1892.82 37.855 1838.97 38.7442 1828.7 40.9459C1775.15 52.4268 1730.49 97.3308 1719.05 151.182C1716.73 162.119 1715.39 210.791 1715.39 284.034C1715.39 392.59 1715 400.393 1708.97 412.197C1705.45 419.111 1697.02 428.211 1690.24 432.423L1677.93 440.08H1530.58H1383.23L1370.96 427.814L1358.69 415.545V292.506C1358.69 180.443 1359.2 168.685 1364.44 160.699C1377.47 140.808 1379.48 140.437 1474.5 140.437C1567.97 140.437 1572.06 141.144 1572.06 157.308C1572.06 162.624 1560.06 179.687 1535.71 209.023C1515.72 233.102 1498.13 252.803 1496.62 252.803C1495.11 252.803 1493.88 235.372 1493.88 214.068C1493.88 181.752 1493.02 175.003 1488.72 173.355C1481.95 170.756 1416.13 170.802 1403.07 173.414L1392.89 175.45V292.294V409.138H1528.16H1663.43L1662.54 357.841L1661.64 306.543L1626.14 304.915L1590.63 303.286L1628.6 257.689C1678 198.356 1684.44 185.582 1684.44 146.951C1684.44 120.908 1683.36 115.508 1674.78 98.5652C1663.98 77.2678 1644.28 58.1949 1621.45 46.9518C1606.56 39.617 1604.02 39.4607 1492.25 38.907C1429.54 38.5943 1372.66 39.6887 1365.85 41.3335Z" fill="#5D32A8" stroke="#FFD700" stroke-width="1.21361" mask="url(#path-4-inside-4_31_392)"/>
</g>
</svg>
