<svg width="223" height="205" viewBox="0 0 223 205" fill="none" xmlns="http://www.w3.org/2000/svg">
<path d="M0 180.469C0 166.955 10.9552 156 24.4692 156H207.393C216.012 156 223 162.988 223 171.607V189.331C223 197.951 216.012 204.938 207.393 204.938H24.4692C10.9552 204.938 0 193.983 0 180.469Z" fill="#5A30A1"/>
<path d="M2.64531 171.872C2.64531 164.567 8.56705 158.645 15.8719 158.645H207.128C214.433 158.645 220.355 164.567 220.355 171.872V189.066C220.355 196.371 214.433 202.293 207.128 202.293H15.8719C8.56705 202.293 2.64531 196.371 2.64531 189.066V171.872Z" stroke="#FFD700" stroke-width="5.29063"/>
<path d="M0 180.469C0 166.955 10.9552 156 24.4692 156H134.382V204.938H24.4691C10.9552 204.938 0 193.983 0 180.469Z" fill="#FFD700"/>
<path d="M20.0104 193.299H13.3484C13.1312 193.299 12.9863 193.154 12.9863 192.937V172.774C12.9863 169.852 15.355 167.484 18.277 167.484H20.7346H25.0431C30.2207 167.484 34.6017 171.539 34.6017 176.789C34.6017 179.83 33.3707 182.618 30.2569 184.609C30.0759 184.718 30.0397 184.935 30.1483 185.116L34.3845 192.865C34.5293 193.118 34.3845 193.299 34.131 193.299H26.9259C26.7449 193.299 26.5638 193.227 26.4914 193.046L23.088 186.347C23.0156 186.166 22.8345 186.094 22.6535 186.094H20.7346C20.5173 186.094 20.3725 186.239 20.3725 186.456V192.937C20.3725 193.154 20.2277 193.299 20.0104 193.299ZM20.7346 179.649H23.8483C26.0931 179.649 27.2155 178.201 27.2155 176.789C27.2155 175.268 25.7673 173.965 24.138 173.965H20.7346C20.5173 173.965 20.3725 174.11 20.3725 174.327V179.287C20.3725 179.504 20.5173 179.649 20.7346 179.649Z" fill="#5A30A1"/>
<path d="M43.7866 186.818H53.1279C53.3452 186.818 53.49 186.963 53.49 187.18V192.937C53.49 193.154 53.3452 193.299 53.1279 193.299H36.4004C36.1832 193.299 36.0384 193.154 36.0384 192.937V167.846C36.0384 167.629 36.1832 167.484 36.4004 167.484H58.3624C58.5796 167.484 58.7244 167.629 58.7244 167.846V173.603C58.7244 173.82 58.5796 173.965 58.3624 173.965H43.7866C43.5694 173.965 43.4245 174.11 43.4245 174.327V176.934C43.4245 177.151 43.5694 177.296 43.7866 177.296H50.34C50.5572 177.296 50.7021 177.441 50.7021 177.658V183.415C50.7021 183.632 50.5572 183.777 50.34 183.777H43.7866C43.5694 183.777 43.4245 183.922 43.4245 184.139V186.456C43.4245 186.673 43.5694 186.818 43.7866 186.818Z" fill="#5A30A1"/>
<path d="M56.1911 167.484H74.7651C74.9823 167.484 75.1271 167.629 75.1271 167.846V173.603C75.1271 173.82 74.9823 173.965 74.7651 173.965H69.5513C69.3341 173.965 69.1893 174.11 69.1893 174.327V192.937C69.1893 193.154 69.0444 193.299 68.8272 193.299H62.1652C61.9479 193.299 61.8031 193.154 61.8031 192.937V174.327C61.8031 174.11 61.6583 173.965 61.441 173.965H56.1911C55.9738 173.965 55.829 173.82 55.829 173.603V167.846C55.829 167.629 55.9738 167.484 56.1911 167.484Z" fill="#5A30A1"/>
<path d="M83.9702 193.299H77.3082C77.091 193.299 76.9461 193.154 76.9461 192.937V167.846C76.9461 167.629 77.091 167.484 77.3082 167.484H89.003C94.1805 167.484 98.5615 171.539 98.5615 176.789C98.5615 179.83 97.3305 182.618 94.2167 184.609C94.0357 184.718 93.9995 184.935 94.1081 185.116L98.3443 192.865C98.4891 193.118 98.3443 193.299 98.0908 193.299H90.8857C90.7047 193.299 90.5236 193.227 90.4512 193.046L87.0478 186.347C86.9754 186.166 86.7943 186.094 86.6133 186.094H84.6944C84.4771 186.094 84.3323 186.239 84.3323 186.456V192.937C84.3323 193.154 84.1875 193.299 83.9702 193.299ZM84.6944 179.649H87.8081C90.053 179.649 91.1754 178.201 91.1754 176.789C91.1754 175.268 89.7271 173.965 88.0978 173.965H84.6944C84.4771 173.965 84.3323 174.11 84.3323 174.327V179.287C84.3323 179.504 84.4771 179.649 84.6944 179.649Z" fill="#5A30A1"/>
<path d="M112.832 167.375C120.29 167.375 126.011 172.915 126.011 180.373C126.011 187.832 120.29 193.408 112.832 193.408C105.373 193.408 99.6164 187.832 99.6164 180.373C99.6164 172.915 105.373 167.375 112.832 167.375ZM112.832 173.856C110.189 173.856 107.003 175.63 107.003 180.373C107.003 185.116 110.189 186.927 112.832 186.927C115.511 186.927 118.625 185.116 118.625 180.373C118.625 175.63 115.511 173.856 112.832 173.856Z" fill="#5A30A1"/>
<path d="M149.925 193.034H143.263C143.046 193.034 142.901 192.889 142.901 192.672V167.581C142.901 167.364 143.046 167.219 143.263 167.219H154.125C159.955 167.219 164.842 171.238 164.842 177.031C164.842 182.824 159.955 186.843 154.125 186.843H150.649C150.432 186.843 150.287 186.988 150.287 187.205V192.672C150.287 192.889 150.143 193.034 149.925 193.034ZM150.649 180.362H153.763C156.37 180.362 157.456 179.24 157.456 177.031C157.456 174.786 156.334 173.7 153.763 173.7H150.649C150.432 173.7 150.287 173.845 150.287 174.062V180C150.287 180.217 150.432 180.362 150.649 180.362Z" fill="#FFD700"/>
<path d="M179.493 177.502H190.68C190.898 177.502 191.043 177.646 191.043 177.864V180.109C191.043 187.35 186.299 193.143 178.841 193.143C171.672 193.143 165.734 187.314 165.734 180.109C165.734 172.94 171.563 167.11 178.768 167.11C182.57 167.11 185.756 168.378 188.182 170.586C188.363 170.767 188.291 170.948 188.182 171.093L183.946 175.329C183.801 175.474 183.62 175.51 183.439 175.329C182.317 174.388 181.049 173.591 178.768 173.591C175.293 173.591 173.12 176.415 173.12 180.109C173.12 183.802 175.401 186.662 179.275 186.662C182.353 186.662 183.656 184.779 183.656 183.874C183.656 183.657 183.548 183.512 183.331 183.512H179.493C179.275 183.512 179.131 183.367 179.131 183.15V177.864C179.131 177.646 179.275 177.502 179.493 177.502Z" fill="#FFD700"/>
<path d="M205.702 184.381H200.053C199.836 184.381 199.691 184.526 199.691 184.743V192.672C199.691 192.889 199.546 193.034 199.329 193.034H192.667C192.45 193.034 192.305 192.889 192.305 192.672V167.581C192.305 167.364 192.45 167.219 192.667 167.219H209.467C209.684 167.219 209.829 167.364 209.829 167.581V173.338C209.829 173.555 209.684 173.7 209.467 173.7H200.053C199.836 173.7 199.691 173.845 199.691 174.062V177.538C199.691 177.755 199.836 177.9 200.053 177.9H205.702C205.919 177.9 206.064 178.045 206.064 178.262V184.019C206.064 184.236 205.919 184.381 205.702 184.381Z" fill="#FFD700"/>
<path fill-rule="evenodd" clip-rule="evenodd" d="M28.0748 89.8904C28.6662 89.8322 36.4049 89.7751 45.2721 89.7635L61.3946 89.7424V89.8693C61.3946 59.2562 61.5064 43.6194 61.7253 43.6194C61.9072 43.6194 62.056 43.3905 62.056 43.1106C62.056 41.557 66.898 35.6908 68.1806 35.6908C68.4498 35.6908 68.6703 35.5422 68.6703 35.3605C68.6703 35.1788 68.968 35.0301 69.3318 35.0301C69.6956 35.0301 69.9932 34.8815 69.9932 34.6998C69.9932 34.5181 70.8117 34.3694 71.8122 34.3694C72.8126 34.3694 73.6311 34.2207 73.6311 34.039C73.6311 33.8207 86.5843 33.7087 111.829 33.7087C137.074 33.7087 150.027 33.8207 150.027 34.039C150.027 34.2207 150.696 34.3694 151.515 34.3694C152.334 34.3694 153.003 34.5181 153.003 34.6998C153.003 34.8815 153.204 35.0301 153.448 35.0301C154.111 35.0301 155.98 36.0232 155.98 36.3757C155.98 36.5441 156.24 36.6862 156.558 36.6918C156.877 36.6971 157.509 37.1527 157.964 37.7037C158.419 38.2547 159.125 39.0611 159.535 39.4955C159.944 39.9303 160.279 40.5157 160.279 40.7965C160.279 41.0773 160.428 41.3069 160.61 41.3069C160.792 41.3069 160.94 41.6785 160.94 42.1328C160.94 42.587 161.068 42.9587 161.225 42.9587C161.382 42.9587 161.64 43.7393 161.8 44.6931C162.182 46.9841 162.175 99.898 161.792 101.579C161.162 104.338 157.371 106.564 154.758 105.708C153.3 105.231 152.071 104.504 151.311 103.67C151.017 103.348 150.687 103.084 150.578 103.084C150.364 103.084 148.644 101.594 146.857 99.8626C146.248 99.2723 145.671 98.789 145.576 98.789C145.401 98.789 144.463 98.0232 142.744 96.4765C141.097 94.9958 140.434 94.4943 140.121 94.4943C139.952 94.4943 138.856 93.528 137.686 92.347C136.515 91.166 135.394 90.1997 135.193 90.1997C134.993 90.1997 133.971 89.3821 132.921 88.3827C131.872 87.3834 130.886 86.5658 130.731 86.5658C130.576 86.5658 130.054 86.1565 129.572 85.6563C129.09 85.1561 128.1 84.3074 127.373 83.7706C126.645 83.2338 125.655 82.3795 125.173 81.8721C124.691 81.365 124.196 80.9497 124.074 80.9497C123.804 80.9497 122.908 80.0792 122.908 79.8169C122.908 79.7132 128.997 79.6283 136.44 79.6283C143.883 79.6283 150.208 79.5381 150.496 79.4277C150.963 79.2487 151.018 77.4654 151.014 62.6621C151.011 53.5512 150.89 45.9107 150.745 45.6828C150.536 45.3538 142.463 45.2857 111.478 45.3524L72.4736 45.4364L72.3059 135.576L89.2562 135.665C100.278 135.722 106.292 135.637 106.45 135.423C106.583 135.241 106.695 130.086 106.698 123.318C106.701 116.55 106.782 111.012 106.879 111.012C106.976 111.012 107.552 111.495 108.158 112.086C108.765 112.676 109.68 113.457 110.193 113.82C110.706 114.184 111.614 114.964 112.211 115.555C112.807 116.145 113.422 116.628 113.578 116.628C113.733 116.628 114.712 117.446 115.754 118.445C116.795 119.445 117.805 120.262 117.998 120.262C118.191 120.262 119.155 121.08 120.14 122.079C121.124 123.078 122.082 123.896 122.269 123.896C122.455 123.896 122.956 124.23 123.381 124.639C123.807 125.048 124.704 125.829 125.376 126.374C126.047 126.919 126.95 127.699 127.383 128.108C127.815 128.517 128.256 128.851 128.361 128.851C128.466 128.851 129.045 129.335 129.648 129.925C131.048 131.297 132.454 132.485 132.678 132.485C132.773 132.485 133.356 132.969 133.973 133.559C135.369 134.896 137.917 136.78 138.328 136.78C138.498 136.78 138.851 137.077 139.113 137.441C139.375 137.804 139.855 138.101 140.178 138.101C140.502 138.101 140.767 138.25 140.767 138.432C140.767 138.613 140.99 138.762 141.263 138.762C141.536 138.762 141.759 138.911 141.759 139.092C141.759 139.274 141.911 139.423 142.096 139.423C142.282 139.423 143.023 139.795 143.743 140.249C144.463 140.703 145.428 141.075 145.886 141.075C146.345 141.075 146.72 141.223 146.72 141.405C146.72 141.587 147.166 141.735 147.712 141.735C148.257 141.735 148.704 141.884 148.704 142.066C148.704 142.247 149.225 142.396 149.861 142.396C150.498 142.396 151.019 142.531 151.019 142.694C151.019 143.16 154.05 143.45 159.287 143.485C164.236 143.519 167.885 143.177 167.885 142.68C167.885 142.524 168.481 142.396 169.208 142.396C169.936 142.396 170.531 142.247 170.531 142.066C170.531 141.884 170.978 141.735 171.523 141.735C172.069 141.735 172.516 141.587 172.516 141.405C172.516 141.223 172.776 141.073 173.094 141.071C173.412 141.068 174.321 140.697 175.112 140.245C175.904 139.793 176.727 139.423 176.941 139.423C177.155 139.423 177.545 139.126 177.807 138.762C178.069 138.399 178.623 138.101 179.038 138.101C179.452 138.101 179.791 137.985 179.791 137.842C179.791 137.7 180.2 137.339 180.701 137.04C182.717 135.836 186.721 132.1 188.061 130.173C188.503 129.537 189.018 128.836 189.206 128.615C190.232 127.408 190.374 127.198 190.374 126.883C190.374 126.694 190.523 126.539 190.705 126.539C190.887 126.539 191.036 126.254 191.036 125.906C191.036 125.557 191.156 125.223 191.303 125.162C191.685 125.005 194.012 120.122 194.012 119.478C194.012 119.183 194.161 118.941 194.343 118.941C194.525 118.941 194.674 118.42 194.674 117.784C194.674 117.149 194.822 116.628 195.004 116.628C195.186 116.628 195.335 115.959 195.335 115.142C195.335 114.324 195.484 113.655 195.666 113.655C195.884 113.655 195.996 101.267 195.996 77.1506C195.996 53.0346 195.884 40.6462 195.666 40.6462C195.482 40.6462 195.335 39.7651 195.335 38.664C195.335 37.563 195.188 36.6819 195.004 36.6819C194.822 36.6819 194.674 36.2726 194.674 35.7721C194.674 35.2716 194.284 33.822 193.807 32.5511C193.33 31.2799 192.762 29.7596 192.545 29.1726C192.328 28.5852 192.048 28.0031 191.924 27.8785C191.799 27.754 191.697 27.3797 191.697 27.0464C191.697 26.7134 191.548 26.4408 191.366 26.4408C191.184 26.4408 191.036 26.1435 191.036 25.7801C191.036 25.4167 190.887 25.1194 190.705 25.1194C190.523 25.1194 190.374 24.8221 190.374 24.4587C190.374 24.0953 190.253 23.798 190.104 23.798C189.956 23.798 189.481 23.166 189.048 22.394C188.615 21.6216 188.104 20.8092 187.912 20.5886C186.997 19.5364 186.736 19.1862 186.736 19.0098C186.736 18.8162 186.349 18.359 184.263 16.0888C183.623 15.3917 183.098 14.7551 183.098 14.6739C183.098 14.4571 180.838 12.2355 180.618 12.2355C180.515 12.2355 179.934 11.7525 179.328 11.1618C178.722 10.5712 177.809 9.79085 177.3 9.42746C176.791 9.06407 176.187 8.58076 175.957 8.35381C175.727 8.12685 175.374 7.94086 175.171 7.94086C174.968 7.94086 174.623 7.79021 174.403 7.60587C173.611 6.94186 171.652 5.74069 170.606 5.27819C170.019 5.01886 169.539 4.69413 169.539 4.5567C169.539 4.41927 169.241 4.30695 168.878 4.30695C168.514 4.30695 168.216 4.15829 168.216 3.97659C168.216 3.7949 167.844 3.64623 167.389 3.64623C166.935 3.64623 166.563 3.49758 166.563 3.31588C166.563 3.13419 166.116 2.98552 165.57 2.98552C165.025 2.98552 164.577 2.87419 164.575 2.73775C164.574 2.60132 163.644 2.22305 162.508 1.89699C161.373 1.5706 159.987 1.16195 159.429 0.988516C158.87 0.815079 157.874 0.673025 157.216 0.673025C156.557 0.673025 155.927 0.524358 155.814 0.342662C155.532 -0.114221 67.7956 -0.11422 67.5128 0.342663C67.4004 0.524359 66.7697 0.673026 66.1113 0.673026C65.4528 0.673026 64.457 0.816741 63.8984 0.992491C63.3399 1.16824 61.9899 1.56333 60.8985 1.87023C59.8071 2.17713 58.773 2.55375 58.6 2.70704C58.4274 2.86032 58.018 2.98552 57.6905 2.98552C57.3631 2.98552 57.0953 3.13419 57.0953 3.31588C57.0953 3.49758 56.6488 3.64623 56.1031 3.64623C55.5574 3.64623 55.111 3.7949 55.111 3.97659C55.111 4.15829 54.9019 4.30696 54.6466 4.30696C54.0613 4.30696 50.0229 6.56494 49.8747 6.97524C49.8139 7.14306 49.4792 7.28016 49.1306 7.28016C48.7817 7.28016 48.4966 7.4288 48.4966 7.6105C48.4966 7.79219 48.2734 7.94086 48.0005 7.94086C47.7277 7.94086 47.5045 8.08953 47.5045 8.27122C47.5045 8.45292 47.3451 8.60157 47.1503 8.60157C46.9551 8.60157 46.6079 8.78723 46.378 9.01452C46.1482 9.24147 45.543 9.72478 45.0333 10.0882C44.5237 10.4516 43.4611 11.3809 42.6724 12.1529C41.8836 12.9253 41.0856 13.5569 40.8987 13.5569C40.7122 13.5569 40.5594 13.7105 40.5594 13.8982C40.5594 14.0862 40.0756 14.7353 39.4846 15.3408C38.8932 15.9467 38.1217 16.8426 37.7698 17.3316C37.4179 17.8208 36.7856 18.621 36.3649 19.1099C35.9439 19.5988 35.5993 20.1518 35.599 20.3388C35.599 20.5258 35.301 20.8932 34.9372 21.1551C34.5734 21.4171 34.2758 21.8446 34.2758 22.1052C34.2758 22.3662 33.9037 23.0666 33.449 23.6622C32.9942 24.2578 32.6222 24.978 32.6222 25.2625C32.6222 25.5472 32.4734 25.7801 32.2915 25.7801C32.1096 25.7801 31.9608 26.0774 31.9608 26.4408C31.9608 26.8042 31.8119 27.1015 31.63 27.1015C31.4481 27.1015 31.2993 27.3989 31.2993 27.7623C31.2993 28.1257 31.1505 28.423 30.9686 28.423C30.7867 28.423 30.6379 28.7946 30.6379 29.2489C30.6379 29.7031 30.4891 30.0748 30.3072 30.0748C30.1253 30.0748 29.9765 30.3552 29.9765 30.6978C29.9765 31.0404 29.7661 31.7256 29.5092 32.2208C29.2519 32.7156 28.8527 34.0704 28.6215 35.2316C28.3907 36.3925 28.0801 37.3426 27.9316 37.3426C27.7828 37.3426 27.6614 38.3089 27.6614 39.4899C27.6614 40.7013 27.5172 41.6372 27.3307 41.6372C27.1118 41.6372 27 57.6467 27 89.0051L27 89.9958L28.0748 89.8904Z" fill="#FFD700"/>
<path d="M27 89.5471H61.2776V111.856H27V89.5471Z" fill="#FFD700"/>
<path d="M27 113.754H61.2776V124.908H27V113.754Z" fill="#FFD700"/>
<path d="M27 126.806H61.2776V132.383H27V126.806Z" fill="#FFD700"/>
<path d="M27 134.281H61.2776V137.07H27V134.281Z" fill="#FFD700"/>
<path d="M27 138.967H61.2776V140.362H27V138.967Z" fill="#FFD700"/>
<path d="M27 142.259H61.2776V142.956H27V142.259Z" fill="#FFD700"/>
</svg>
