<?xml version="1.0" standalone="no"?>
<!DOCTYPE svg PUBLIC "-//W3C//DTD SVG 20010904//EN"
 "http://www.w3.org/TR/2001/REC-SVG-20010904/DTD/svg10.dtd">
<svg version="1.0" xmlns="http://www.w3.org/2000/svg"
 width="982.000000pt" height="982.000000pt" viewBox="0 0 982.000000 982.000000"
 preserveAspectRatio="xMidYMid meet">
<metadata>
Created by potrace 1.14, written by Peter Selinger 2001-2017
</metadata>
<g transform="translate(0.000000,982.000000) scale(0.100000,-0.100000)"
fill="#000000" stroke="none">
<path d="M3175 9413 c-11 -1 -63 -4 -115 -7 -170 -9 -271 -29 -430 -87 -30
-11 -70 -25 -87 -30 -18 -6 -33 -14 -33 -19 0 -6 -15 -10 -34 -10 -18 0 -39
-7 -46 -15 -7 -8 -18 -15 -24 -15 -19 0 -148 -69 -188 -101 -20 -16 -46 -29
-56 -29 -11 0 -22 -7 -26 -15 -3 -8 -15 -15 -26 -15 -11 0 -20 -7 -20 -15 0
-8 -6 -15 -14 -15 -14 0 -179 -132 -206 -165 -8 -10 -27 -25 -41 -34 -15 -9
-42 -35 -60 -58 -19 -23 -68 -84 -110 -135 -42 -51 -83 -108 -93 -125 -9 -18
-21 -33 -27 -33 -5 0 -16 -15 -24 -32 -7 -18 -29 -60 -49 -92 -19 -32 -33 -62
-31 -66 3 -5 -2 -10 -10 -14 -8 -3 -15 -14 -15 -24 0 -11 -7 -25 -15 -32 -8
-7 -15 -20 -15 -30 0 -10 -7 -23 -15 -30 -8 -7 -15 -23 -15 -36 0 -12 -7 -29
-15 -38 -8 -8 -15 -23 -15 -33 0 -10 -9 -37 -19 -60 -11 -23 -27 -77 -36 -120
-10 -43 -23 -87 -30 -99 -7 -11 -16 -56 -19 -100 -3 -43 -10 -108 -14 -144 -5
-36 -10 -736 -11 -1556 l-2 -1490 753 0 753 1 3 455 c1 250 5 912 8 1470 6
1136 5 1080 16 1080 4 0 8 7 8 15 0 67 186 298 268 332 17 7 32 18 32 23 0 6
10 10 23 10 13 0 28 5 34 11 6 6 37 13 69 15 33 3 73 9 90 13 43 12 313 14
1719 14 1375 0 1613 -2 1636 -14 9 -5 39 -10 65 -12 27 -2 58 -9 69 -15 11 -6
44 -21 73 -33 28 -12 52 -26 52 -31 0 -5 16 -16 35 -24 40 -16 165 -157 165
-186 0 -10 4 -18 10 -18 5 0 12 -12 16 -27 3 -16 13 -43 21 -61 8 -19 17 -57
21 -85 6 -55 8 -2168 2 -2367 -4 -128 -16 -167 -73 -222 -44 -42 -128 -80
-180 -79 -62 0 -165 42 -197 81 -3 3 -23 19 -45 36 -46 34 -95 76 -139 120
-17 17 -53 48 -81 69 -27 20 -81 65 -119 98 -38 34 -89 75 -114 91 -25 15 -78
60 -118 99 -40 38 -91 82 -112 96 -22 14 -69 53 -107 86 -37 33 -75 65 -85 70
-9 6 -46 35 -81 67 -75 66 -157 135 -216 180 -23 18 -44 38 -47 44 -5 14 14
14 717 18 361 2 491 6 500 15 9 9 12 191 12 741 0 400 -3 731 -7 735 -4 4 -40
9 -80 12 -64 5 -1958 7 -3000 3 l-368 -1 0 -887 c0 -488 -2 -1381 -3 -1984
l-3 -1098 165 -1 c487 -2 1224 -2 1279 1 59 3 62 5 63 29 3 89 8 432 9 706 0
176 4 326 8 332 5 8 22 -1 52 -30 25 -23 68 -60 95 -82 28 -22 67 -55 88 -74
20 -19 49 -42 65 -51 15 -10 52 -41 82 -69 30 -28 78 -67 105 -85 28 -19 70
-56 95 -81 25 -26 64 -60 87 -75 24 -15 62 -45 87 -66 24 -22 61 -53 82 -71
22 -17 48 -40 59 -50 11 -11 28 -24 37 -29 8 -5 49 -39 89 -76 41 -37 92 -80
114 -97 22 -17 76 -60 119 -95 44 -36 93 -72 110 -80 17 -8 42 -26 55 -40 14
-14 33 -26 43 -26 10 0 21 -7 24 -15 4 -8 13 -15 21 -15 9 0 21 -6 27 -14 16
-21 150 -86 176 -86 13 0 31 -6 39 -14 9 -8 31 -16 49 -18 18 -2 36 -9 40 -15
4 -6 25 -13 47 -16 22 -2 60 -12 85 -22 38 -14 86 -18 295 -20 254 -2 388 7
415 29 8 7 35 14 60 15 24 2 53 9 64 17 11 8 32 14 47 14 15 0 32 7 39 15 7 8
19 15 26 15 24 0 187 82 213 107 13 13 32 23 42 23 34 0 215 145 324 260 54
57 175 214 175 228 0 5 7 12 15 16 8 3 15 13 15 22 0 9 15 42 34 73 33 55 97
192 100 217 1 6 7 18 13 25 6 8 12 30 14 49 2 19 8 42 15 50 6 8 15 40 18 70
4 30 10 82 15 115 11 79 11 3053 0 3125 -4 30 -11 82 -14 115 -9 85 -10 88
-22 110 -5 11 -13 39 -17 62 -6 42 -85 264 -108 307 -7 11 -13 30 -15 40 -2
11 -10 27 -18 36 -8 9 -15 24 -15 33 0 9 -4 17 -9 17 -5 0 -12 12 -15 26 -4
14 -16 35 -26 47 -11 11 -29 38 -40 59 -11 21 -38 61 -60 89 -22 28 -40 54
-40 57 0 4 -19 27 -41 52 -23 25 -71 81 -108 125 -38 44 -81 89 -96 100 -23
16 -113 93 -135 115 -18 18 -119 90 -126 90 -8 0 -72 40 -109 67 -6 5 -35 21
-65 37 -30 16 -62 35 -71 42 -8 8 -25 14 -36 14 -12 0 -23 7 -27 15 -3 9 -18
15 -36 15 -18 0 -33 6 -36 15 -4 9 -19 15 -40 15 -19 0 -45 6 -57 14 -22 15
-208 73 -257 81 -14 2 -43 5 -65 6 -22 2 -46 8 -54 13 -10 8 -566 11 -1840 12
-1004 0 -1835 -1 -1846 -3z"/>
<path d="M1190 4165 l0 -245 755 0 755 0 0 245 0 245 -755 0 -755 0 0 -245z"/>
<path d="M1195 3831 c-3 -2 -5 -58 -5 -123 l0 -118 755 0 756 0 -3 123 -3 122
-748 1 c-411 0 -750 -2 -752 -5z"/>
<path d="M1190 3445 l0 -61 755 0 756 0 -3 61 -3 60 -752 1 -753 0 0 -61z"/>
<path d="M1190 3270 c0 -27 3 -30 33 -30 27 0 954 0 1360 0 l117 0 0 30 0 30
-755 0 -755 0 0 -30z"/>
<path d="M1190 3140 c0 -13 88 -15 753 -15 661 0 752 2 752 15 0 13 -91 15
-752 15 -665 0 -753 -2 -753 -15z"/>
<path d="M555 2536 c-22 -7 -44 -13 -50 -14 -30 -6 -86 -29 -135 -55 -183 -99
-313 -272 -356 -477 -20 -95 -18 -946 2 -1042 50 -233 226 -434 449 -512 123
-43 4 -42 4475 -41 4409 1 4311 0 4415 37 187 67 350 222 414 394 50 131 51
147 48 674 -3 534 -2 525 -60 650 -68 149 -218 291 -368 350 -135 54 175 50
-4487 49 -3414 0 -4315 -3 -4347 -13z"/>
</g>
</svg>
