<?xml version="1.0" encoding="UTF-8"?>
<svg width="24px" height="24px" viewBox="0 0 24 24" version="1.1" xmlns="http://www.w3.org/2000/svg" xmlns:xlink="http://www.w3.org/1999/xlink">
    <title>Group 4</title>
    <g id="Page-1" stroke="none" stroke-width="1" fill="none" fill-rule="evenodd">
        <g id="Frame-1000004578" transform="translate(-144, 0)" fill-rule="nonzero">
            <g id="Group-4" transform="translate(144, 0)">
                <rect id="Rectangle" fill="#212327" x="0" y="0" width="24" height="24"></rect>
                <path d="M17.463,7.0271 C19.237,9.635 20.113,12.5767 19.785,15.9633 C19.784,15.9776 19.776,15.9907 19.765,15.9994 C18.421,16.9857 17.12,17.5843 15.837,17.9812 C15.827,17.9843 15.816,17.9841 15.806,17.9808 C15.796,17.9774 15.788,17.9711 15.782,17.9626 C15.485,17.5501 15.216,17.1153 14.98,16.6586 C14.966,16.6317 14.979,16.5993 15.007,16.5887 C15.434,16.4276 15.841,16.2344 16.232,16.0057 C16.263,15.9876 16.265,15.9434 16.237,15.9222 C16.154,15.8606 16.071,15.7958 15.993,15.731 C15.978,15.719 15.958,15.7167 15.941,15.7247 C13.401,16.8977 10.619,16.8977 8.048,15.7247 C8.032,15.7173 8.012,15.7198 7.998,15.7316 C7.919,15.7964 7.837,15.8606 7.754,15.9222 C7.726,15.9434 7.728,15.9876 7.759,16.0057 C8.15,16.2301 8.557,16.4276 8.984,16.5895 C9.012,16.6001 9.025,16.6317 9.012,16.6586 C8.781,17.1159 8.511,17.5507 8.209,17.9632 C8.196,17.9799 8.175,17.9875 8.154,17.9812 C6.877,17.5843 5.576,16.9857 4.232,15.9994 C4.221,15.9907 4.213,15.977 4.212,15.9627 C3.938,13.0333 4.496,10.0673 6.532,7.0265 C6.537,7.0184 6.545,7.0121 6.553,7.0084 C7.555,6.5486 8.628,6.2104 9.75,6.0172 C9.77,6.014 9.791,6.0235 9.802,6.0415 C9.94,6.2869 10.099,6.6016 10.206,6.8588 C11.388,6.6782 12.589,6.6782 13.796,6.8588 C13.903,6.6071 14.056,6.2869 14.194,6.0415 C14.199,6.0326 14.207,6.0254 14.216,6.021 C14.225,6.0166 14.236,6.0153 14.246,6.0172 C15.368,6.211 16.442,6.5492 17.443,7.0084 C17.451,7.0121 17.459,7.0184 17.463,7.0271 Z M10.807,12.5967 C10.819,11.7307 10.188,11.0142 9.395,11.0142 C8.609,11.0142 7.984,11.7245 7.984,12.5967 C7.984,13.4688 8.622,14.1791 9.395,14.1791 C10.182,14.1791 10.807,13.4688 10.807,12.5967 Z M16.026,12.5967 C16.038,11.7307 15.406,11.0142 14.614,11.0142 C13.828,11.0142 13.203,11.7245 13.203,12.5967 C13.203,13.4688 13.84,14.1791 14.614,14.1791 C15.406,14.1791 16.026,13.4688 16.026,12.5967 Z" id="Shape" fill="#FFFFFF"></path>
            </g>
        </g>
    </g>
</svg>