<?xml version="1.0" encoding="UTF-8"?>
<svg width="24px" height="24px" viewBox="0 0 24 24" version="1.1" xmlns="http://www.w3.org/2000/svg" xmlns:xlink="http://www.w3.org/1999/xlink">
    <title>Group 3</title>
    <g id="Page-1" stroke="none" stroke-width="1" fill="none" fill-rule="evenodd">
        <g id="Frame-1000004578" transform="translate(-96, 0)" fill-rule="nonzero">
            <g id="Group-3" transform="translate(96, 0)">
                <rect id="Rectangle" fill="#212327" x="0" y="0" width="24" height="24"></rect>
                <path d="M12,4.4058 C7.7,4.4058 4.214,7.8918 4.214,12.1921 C4.214,15.6324 6.445,18.551 9.539,19.5806 C9.928,19.6527 10.071,19.4117 10.071,19.206 C10.071,19.0204 10.063,18.407 10.06,17.7564 C7.894,18.2274 7.437,16.8377 7.437,16.8377 C7.082,15.9377 6.572,15.6984 6.572,15.6984 C5.866,15.2151 6.625,15.225 6.625,15.225 C7.407,15.28 7.819,16.0274 7.819,16.0274 C8.513,17.2178 9.641,16.8737 10.085,16.6748 C10.155,16.1714 10.357,15.828 10.579,15.6336 C8.85,15.4366 7.032,14.769 7.032,11.7855 C7.032,10.9354 7.336,10.2408 7.834,9.6955 C7.753,9.4994 7.487,8.7075 7.909,7.6349 C7.909,7.6349 8.563,7.4257 10.051,8.4331 C10.672,8.2605 11.338,8.174 12,8.1711 C12.662,8.174 13.328,8.2605 13.951,8.4331 C15.437,7.4257 16.09,7.6349 16.09,7.6349 C16.514,8.7075 16.247,9.4994 16.166,9.6955 C16.665,10.2408 16.967,10.9354 16.967,11.7855 C16.967,14.7761 15.146,15.4346 13.412,15.6273 C13.691,15.869 13.94,16.3429 13.94,17.0692 C13.94,18.1111 13.931,18.9496 13.931,19.206 C13.931,19.4132 14.071,19.6561 14.466,19.5796 C17.558,18.5488 19.786,15.6312 19.786,12.1921 C19.786,7.8918 16.3,4.4058 12,4.4058 Z" id="Path" fill="#FFFFFF"></path>
            </g>
        </g>
    </g>
</svg>