<svg width="32" height="32" viewBox="0 0 32 32" fill="none" xmlns="http://www.w3.org/2000/svg">
<path d="M0 0L28 0C30.2091 0 32 1.79086 32 4V28C32 30.2091 30.2091 32 28 32L4 32C1.79086 32 0 30.2091 0 28L0 0Z" fill="white"/>
<path d="M15.5237 21.7677C15.4971 21.7384 15.4751 21.7143 15.4528 21.6902C15.2287 21.4431 14.9638 21.2363 14.6698 21.0788C14.4289 20.948 14.1644 20.8666 13.8917 20.8393C13.6416 20.8166 13.3895 20.8459 13.1513 20.9255C12.8296 21.0308 12.5087 21.1377 12.1846 21.2383C11.7049 21.3913 11.2169 21.5172 10.723 21.6152C10.4097 21.6765 10.0932 21.7204 9.77506 21.7464C9.53198 21.7655 9.28799 21.7702 9.04435 21.7607C8.51373 21.7401 7.99918 21.6414 7.50853 21.431C7.10491 21.2578 6.73514 21.0145 6.41637 20.7124C5.61621 19.9611 5.05633 19.0593 4.72456 18.0142C4.60334 17.631 4.51597 17.238 4.46348 16.8396C4.39843 16.3562 4.37808 15.8679 4.40269 15.3808C4.44203 14.5907 4.59321 13.8102 4.85171 13.0626C5.20882 12.0322 5.80435 11.16 6.60905 10.428C7.20986 9.87663 7.90773 9.44147 8.66725 9.14462C9.05053 8.99445 9.4489 8.88605 9.85543 8.8213C10.2689 8.75547 10.6887 8.73832 11.1063 8.77019C11.3729 8.7908 11.635 8.83696 11.8973 8.88518C12.347 8.96761 12.7966 9.05209 13.2469 9.1337C13.4962 9.17883 13.7456 9.22354 13.9961 9.26208C14.2826 9.30638 14.5702 9.33976 14.8616 9.33111C15.153 9.32245 15.4256 9.24229 15.6671 9.07188C15.6877 9.05683 15.7106 9.04344 15.7351 9.02737C15.7557 9.042 15.7749 9.05395 15.792 9.06858C15.9185 9.17409 16.0434 9.28165 16.1716 9.3851C16.1928 9.4001 16.2099 9.42011 16.2214 9.44334C16.233 9.46657 16.2386 9.49229 16.2377 9.51822C16.2377 9.68616 16.2437 9.85411 16.247 10.0221C16.2597 10.6839 16.2722 11.3459 16.2847 12.0079C16.2938 12.5025 16.3023 12.9965 16.3103 13.49C16.3103 13.5252 16.3167 13.5615 16.3016 13.6031C16.152 13.5633 16.0076 13.5219 15.8646 13.4759C15.8497 13.4421 15.8367 13.4121 15.8233 13.3822C15.473 12.601 15.0504 11.8624 14.5251 11.1847C14.2653 10.8438 13.9697 10.5316 13.6434 10.2537C13.3755 10.028 13.0849 9.83556 12.7616 9.69605C12.475 9.56838 12.1657 9.49917 11.852 9.49246C11.2573 9.48463 10.7442 9.68925 10.3129 10.0989C10.1161 10.2893 9.94529 10.5047 9.80474 10.7396C9.59413 11.0843 9.43794 11.4536 9.31224 11.8363C9.17094 12.2751 9.0636 12.7241 8.99118 13.1794C8.93081 13.5435 8.88815 13.9097 8.86033 14.2775C8.83053 14.6552 8.82007 15.0342 8.82901 15.413C8.83519 15.6396 8.84117 15.8676 8.85641 16.0942C8.90587 16.8287 9.01447 17.5536 9.23063 18.2594C9.32664 18.5814 9.4534 18.8935 9.60918 19.1912C9.72921 19.4224 9.87672 19.6382 10.0485 19.8339C10.2597 20.0705 10.5056 20.2586 10.7992 20.3837C11.125 20.5226 11.4564 20.5436 11.7929 20.4371C12.3526 20.2597 12.7783 19.9151 13.0482 19.3911C13.266 18.9683 13.2955 18.5225 13.1741 18.0655C13.1504 17.973 13.1202 17.8823 13.0837 17.7941C12.9108 17.3855 12.6891 17.0055 12.3979 16.6683C12.2931 16.5453 12.1745 16.4347 12.0445 16.3386C11.9052 16.2356 11.756 16.1532 11.5849 16.119C11.576 16.1164 11.5672 16.1129 11.559 16.1085C11.5567 16.1047 11.5542 16.1023 11.5542 16.0998C11.5539 16.0965 11.5547 16.0931 11.5565 16.0903C11.5699 16.0716 11.5833 16.0526 11.5977 16.0347L12.0202 15.4989C12.1473 15.4929 12.272 15.4857 12.3969 15.4812C12.8502 15.4651 13.3054 15.4503 13.7598 15.4342C14.3028 15.4148 14.8459 15.395 15.3889 15.3749C15.6096 15.3668 15.8301 15.359 16.0506 15.3485C16.07 15.346 16.0896 15.3489 16.1075 15.3569C16.1253 15.3648 16.1406 15.3774 16.1518 15.3934C16.2684 15.5447 16.3876 15.6941 16.5054 15.8443C16.5115 15.8532 16.517 15.8625 16.5219 15.8721C16.4869 16.0108 16.4502 16.1507 16.4164 16.2912C16.2976 16.7841 16.2006 17.2815 16.1254 17.7832C16.0636 18.1906 16.0191 18.5996 15.9981 19.0109C15.9739 19.4156 15.9798 19.8215 16.0156 20.2253C16.0377 20.4775 16.0801 20.7275 16.1423 20.9729C16.1461 20.991 16.1487 21.0094 16.1504 21.0279C16.0696 21.1388 15.5882 21.7085 15.5237 21.7677Z" fill="#212327"/>
<path d="M23.4882 21.7741C23.4367 21.6461 23.3842 21.5151 23.3308 21.3844C23.318 21.3535 23.3298 21.3271 23.339 21.2989C23.3947 21.1301 23.4509 20.9616 23.5039 20.792C23.6879 20.2044 23.8303 19.6045 23.9298 18.9969C23.9782 18.7014 24.0135 18.4039 24.0392 18.1051C24.0722 17.7244 24.0831 17.3421 24.072 16.9601C24.0555 16.4091 23.9945 15.8635 23.8567 15.3283C23.8345 15.2294 23.8048 15.1324 23.7676 15.0382C23.7402 15.041 23.7421 15.0588 23.7396 15.075C23.6349 15.7418 23.4954 16.4026 23.3217 17.0547C22.9803 18.3373 22.5238 19.577 21.9205 20.76C21.8024 20.9914 21.6709 21.2163 21.5448 21.4438C21.5291 21.472 21.5098 21.4982 21.4896 21.5293C21.3225 21.4788 21.1619 21.4225 21.0016 21.3687C20.771 19.6747 20.1794 18.1201 19.302 16.669C19.0454 16.2443 18.7913 15.8816 18.7044 15.8101C18.6961 15.8418 18.6935 15.8747 18.697 15.9074C18.6955 16.2006 18.6932 16.4936 18.6941 16.7868C18.6964 17.6661 18.6996 18.5453 18.7035 19.4245C18.7035 19.5432 18.7108 19.6617 18.7134 19.7802C18.7202 20.142 18.843 20.4922 19.0638 20.779C19.2859 21.0743 19.5715 21.2927 19.8989 21.459C19.9251 21.4724 19.9511 21.4864 19.977 21.5002C19.9793 21.5015 19.9799 21.5058 19.9812 21.5083C19.9824 21.5147 19.9824 21.5212 19.9812 21.5276C19.9399 21.6101 19.8987 21.6925 19.8575 21.7722C19.7813 21.7834 16.6781 21.786 16.5586 21.7751C16.5633 21.7599 16.5693 21.7452 16.5765 21.731C16.6383 21.6333 16.7002 21.5365 16.7607 21.4386C16.7774 21.4103 16.8025 21.3878 16.8325 21.3743C17.3874 21.1219 17.7233 20.6844 17.8925 20.1074C17.9493 19.9133 17.9716 19.714 17.9823 19.5131C18.0081 19.0363 18.0338 18.5594 18.0594 18.0826C18.0761 17.7636 18.0926 17.4438 18.1066 17.1254C18.1239 16.7305 18.1395 16.3355 18.1536 15.9405C18.1638 15.7497 18.1619 15.5584 18.1478 15.3679C18.1112 14.9395 17.9697 14.5267 17.7356 14.1661C17.7179 14.1385 17.6994 14.1113 17.6775 14.0781C17.7429 13.9402 17.8088 13.8009 17.8768 13.6579C17.9032 13.6557 17.9289 13.6517 17.9547 13.6515C18.1094 13.6503 18.2642 13.6497 18.4192 13.6497H20.533C20.7537 13.6497 20.9744 13.6482 21.1951 13.6476H21.2915C21.308 13.667 21.3216 13.681 21.3328 13.6969C21.4152 13.8117 21.4976 13.927 21.58 14.0414C21.6028 14.0697 21.6156 14.1047 21.6165 14.1409C21.6198 14.5498 21.7292 14.9341 21.8912 15.3054C22.0878 15.7486 22.3453 16.1621 22.6563 16.534C22.6648 16.5441 22.6734 16.5546 22.6825 16.5635C22.6876 16.5681 22.693 16.5722 22.6988 16.5758C22.7299 16.5711 22.7359 16.5418 22.7482 16.5206C22.8895 16.2749 23.0003 16.0128 23.0779 15.7402C23.172 15.4173 23.2348 15.0861 23.2655 14.7511C23.288 14.5283 23.2984 14.3043 23.2966 14.0804C23.2966 14.0643 23.2991 14.0482 23.3005 14.0297C23.3195 14.0155 23.3376 14.0014 23.3559 13.9885C23.495 13.8883 23.6347 13.7894 23.7726 13.6878C23.8091 13.6597 23.8543 13.6451 23.9004 13.6466C24.0551 13.6491 24.2095 13.6491 24.3646 13.6493L26.6178 13.6524L27.2205 13.6536C27.2467 13.6536 27.2729 13.6536 27.2955 13.6536C27.3474 13.7125 27.5344 14.0293 27.5801 14.1356C27.5756 14.1471 27.5706 14.1628 27.5636 14.1768C27.4138 14.4873 27.3207 14.8156 27.2566 15.1536C27.1859 15.5425 27.1446 15.9361 27.1329 16.3312C27.1202 16.6772 27.1237 17.0232 27.1412 17.3684C27.1568 17.6775 27.1824 17.9866 27.2112 18.2942C27.2403 18.5957 27.2743 18.897 27.3178 19.1966C27.3728 19.5743 27.4359 19.951 27.502 20.3269C27.5716 20.7223 27.6559 21.1149 27.7493 21.5041C27.7066 21.566 27.6028 21.6649 27.4647 21.7774C27.3126 21.7879 23.5702 21.7844 23.4882 21.7741Z" fill="#212327"/>
<path d="M22.2923 12.8251C22.2868 12.8218 22.2717 12.8179 22.2657 12.8084C22.2538 12.7888 22.2438 12.7681 22.2357 12.7466C22.146 12.5344 22.0615 12.3198 21.9661 12.1103C21.7052 11.537 21.2884 11.13 20.6838 10.9293C20.5901 10.8985 20.4981 10.8628 20.4083 10.8223C20.3302 10.7871 20.2521 10.7525 20.174 10.7175C20.1645 10.7144 20.1563 10.7084 20.1505 10.7004C20.1447 10.6923 20.1416 10.6827 20.1416 10.6727C20.1418 10.6628 20.145 10.6532 20.1509 10.6453C20.1568 10.6373 20.165 10.6313 20.1744 10.6282C20.2858 10.5796 20.3949 10.5252 20.515 10.498C21.1484 10.3575 21.7308 9.88659 21.984 9.19977C22.0593 8.99618 22.153 8.79959 22.2383 8.59971C22.242 8.59058 22.2465 8.58182 22.2517 8.57354C22.256 8.56753 22.2617 8.56265 22.2683 8.55933C22.275 8.556 22.2823 8.55433 22.2897 8.55445C22.2971 8.55457 22.3043 8.55648 22.3108 8.56002C22.3173 8.56356 22.3228 8.56862 22.3269 8.57477C22.3337 8.58606 22.3395 8.59792 22.3443 8.61022C22.4368 8.82123 22.5322 9.031 22.6208 9.24367C22.8831 9.87361 23.3377 10.2884 23.9942 10.4786C24.1339 10.5198 24.2636 10.5845 24.3975 10.6392C24.4064 10.6434 24.4148 10.6487 24.4224 10.655C24.4277 10.659 24.4319 10.6642 24.4348 10.6701C24.4377 10.676 24.4392 10.6825 24.4392 10.6891C24.4392 10.6957 24.4377 10.7022 24.4348 10.7081C24.4319 10.714 24.4277 10.7192 24.4224 10.7232C24.414 10.7284 24.4052 10.7329 24.3961 10.7366C24.2501 10.8049 24.1003 10.8647 23.9475 10.9157C23.2825 11.1288 22.8302 11.5638 22.5903 12.2209C22.5553 12.3165 22.5126 12.4095 22.4722 12.503C22.4318 12.5966 22.3898 12.6895 22.3473 12.7825C22.3438 12.7945 22.3366 12.805 22.3267 12.8127C22.3169 12.8204 22.3048 12.8247 22.2923 12.8251Z" fill="#212327"/>
<path d="M18.126 9.35588C18.1419 9.34217 18.159 9.32983 18.1771 9.31899C18.2544 9.28269 18.335 9.25379 18.4178 9.23265C18.779 9.136 19.0527 8.92355 19.2406 8.60064C19.2739 8.54016 19.3037 8.47775 19.3296 8.41374C19.3857 8.28392 19.4397 8.15327 19.4945 8.02324C19.5031 8.00263 19.5093 7.97811 19.5441 7.97461C19.556 7.98793 19.5664 8.00251 19.575 8.01809C19.6329 8.14729 19.6927 8.27547 19.7459 8.40653C19.9163 8.82773 20.2169 9.10324 20.6526 9.23265C20.7373 9.258 20.8174 9.29674 20.8998 9.32971C20.9087 9.33384 20.9171 9.33896 20.9248 9.34496C20.9278 9.3476 20.9303 9.35084 20.9321 9.35447C20.9338 9.35811 20.9348 9.36206 20.935 9.36609C20.9352 9.37012 20.9345 9.37415 20.9331 9.37792C20.9316 9.38169 20.9294 9.38513 20.9266 9.38802C20.9162 9.39627 20.9048 9.40319 20.8926 9.40863C20.8042 9.44407 20.7171 9.48343 20.6266 9.51269C20.1869 9.65529 19.8889 9.94193 19.729 10.3759C19.6849 10.496 19.628 10.6117 19.5767 10.7291C19.5728 10.7378 19.5666 10.7497 19.559 10.7518C19.5535 10.7541 19.5476 10.7552 19.5417 10.7552C19.5357 10.7552 19.5298 10.7541 19.5243 10.7518C19.5147 10.7431 19.5076 10.732 19.5037 10.7196C19.448 10.5897 19.3923 10.4596 19.3368 10.3295C19.1703 9.94028 18.8958 9.66374 18.4905 9.52774C18.3778 9.48982 18.271 9.43933 18.1631 9.39112C18.1515 9.38493 18.142 9.37113 18.126 9.35588Z" fill="#212327"/>
<path d="M18.9662 10.7981C18.9805 10.8133 18.9931 10.83 19.0039 10.8478C19.0486 10.9467 19.0936 11.0456 19.135 11.1457C19.2649 11.4603 19.4921 11.6684 19.8164 11.7699C19.8822 11.7905 19.9459 11.8175 20.0097 11.8433C20.0287 11.8534 20.0468 11.8652 20.0637 11.8785C20.0499 11.8909 20.0348 11.9019 20.0188 11.9113C19.9489 11.9399 19.8797 11.9708 19.8078 11.9937C19.4762 12.1009 19.2498 12.3166 19.1251 12.6422C19.0888 12.7374 19.0451 12.8295 19.0041 12.9229C18.9982 12.9335 18.9913 12.9436 18.9835 12.9529C18.953 12.956 18.9479 12.9336 18.9405 12.9169C18.8992 12.8235 18.858 12.7302 18.8197 12.636C18.6891 12.3205 18.4675 12.1027 18.1397 11.9949C18.0556 11.9673 17.9748 11.9267 17.8945 11.8919C17.8897 11.8898 17.8875 11.8814 17.8809 11.8713C17.8879 11.8639 17.8945 11.8507 17.9044 11.8474C17.9615 11.8225 18.0201 11.8009 18.0797 11.7827C18.4321 11.6887 18.6744 11.4723 18.8113 11.1352C18.8494 11.0406 18.8902 10.9473 18.9308 10.8537C18.9413 10.8344 18.9532 10.8158 18.9662 10.7981Z" fill="#212327"/>
</svg>
