<?xml version="1.0" encoding="UTF-8"?>
<svg width="718px" height="717px" viewBox="0 0 718 717" version="1.1" xmlns="http://www.w3.org/2000/svg" xmlns:xlink="http://www.w3.org/1999/xlink">
    <title>Group 881</title>
    <defs>
        <path d="M66.4703,0.0324337479 C141.427,0.0705271479 150.263,1.10682205 173.9,12.631832 C184.887,17.988532 191.934,23.385232 204.408,35.992232 C222.593,54.371232 230.683,68.433632 236.129,91.123532 L239.433,104.888932 L242.808,90.582532 C250.75,56.933432 273.695,28.374332 305.827,12.153632 C327.692,1.11633205 337.48,1.7550997e-14 412.366,1.7550997e-14 L479.134,1.7550997e-14 L477.817,10.953532 C473.99,42.768132 464.831,61.747232 442.593,83.957132 C424.551,101.975932 410.503,110.237932 387.948,116.102932 C375.901,119.234932 375.324,119.609932 380.589,120.876932 C383.733,121.634932 391.448,123.899932 397.734,125.911932 C439.903,139.411932 472.674,180.389932 477.716,225.923932 L479.002,237.539932 L496.829,240.452932 C517.498,243.830932 533.418,250.710932 550.544,263.672932 C571.31,279.387932 587.837,304.289932 593.768,328.796932 C596.347,339.453932 596.496,337.412932 596.646,289.350932 L596.804,238.669932 L582.993,237.555932 C545.412,234.522932 508.661,209.216932 491.137,174.302932 C481.947,155.996932 478.696,141.646932 478.696,119.409932 C478.696,97.167932 482.163,82.057832 491.228,64.768432 C503.502,41.369932 521.578,23.518632 544.417,12.246932 C566.877,1.16203205 576.366,0.0704943479 650.62,0.0323896479 L716.818,1.7550997e-14 L716.785,7.14358205 C716.675,30.704032 702.839,62.808232 684.665,81.673032 C664.292,102.817932 640.87,114.809932 612.53,118.600932 L596.804,120.705932 L596.804,168.300932 C596.804,194.476932 597.339,215.360932 597.993,214.707932 C598.646,214.051932 601.277,207.291932 603.839,199.682932 C618.793,155.278932 664.657,120.171932 707.893,120.040932 L717.065,120.011932 L716.461,191.923932 L715.859,263.835932 L710.805,277.673932 C701.271,303.777932 685.176,324.047932 661.808,339.380932 C648.776,347.933932 627.928,356.226932 619.464,356.226932 C617.479,356.226932 615.854,357.083932 615.854,358.131932 C615.854,359.178932 617.479,360.036932 619.464,360.036932 C627.928,360.036932 648.776,368.328932 661.808,376.881932 C685.176,392.214932 701.271,412.485932 710.805,438.588932 L715.859,452.426932 L716.461,524.338932 L717.065,596.250932 L708.015,596.250932 C665.044,596.250932 618.746,560.843932 603.839,516.579932 C601.277,508.971932 598.646,502.210932 597.993,501.555932 C597.339,500.901932 596.804,521.785932 596.804,547.961932 L596.804,595.557932 L612.53,597.662932 C621.18,598.818932 633.227,601.624932 639.302,603.896932 C655.653,610.015932 677.583,625.535932 688.677,638.841932 C704.889,658.281932 716.818,688.425932 716.818,709.945932 L716.818,716.262932 L650.62,716.230932 C575.962,716.192932 567.087,715.148932 543.465,703.630932 C524.596,694.429932 499.553,669.676932 490.722,651.494932 C480.723,630.913932 478.174,617.608932 479.221,591.488932 C480.324,564.018932 484.357,550.912932 497.963,530.569932 C518.14,500.404932 549.248,481.429932 582.993,478.707932 L596.804,477.592932 L596.701,426.911932 L596.6,376.228932 L592.297,390.515932 C583.49,419.750932 568.165,441.061932 544.621,456.807932 C527.24,468.431932 514.658,473.323932 494.577,476.259932 L479.301,478.493932 L476.945,493.882932 C473.889,513.849932 468.744,527.521932 458.341,543.319932 C442.412,567.512932 415.189,587.175932 389.248,593.225932 C382.7,594.753932 376.999,596.349932 376.574,596.774932 C376.151,597.197932 380.738,598.618932 386.769,599.930932 C407.882,604.525932 424.781,614.301932 442.608,632.236932 C464.835,654.599932 474.006,673.633932 477.817,705.309932 L479.134,716.262932 L412.142,716.262932 C337.36,716.262932 327.846,715.155932 305.343,703.840932 C273.137,687.646932 248.792,656.569932 241.938,622.904932 L239.421,610.537932 L236.785,622.919932 C229.944,655.045932 203.312,689.217932 173.9,703.608932 C150.312,715.146932 141.439,716.192932 66.7447,716.230932 L0.546781,716.262932 L0.546781,709.945932 C0.546779,688.425932 12.4757,658.281932 28.6871,638.841932 C39.7817,625.535932 61.7117,610.015932 78.0621,603.897932 C84.1371,601.624932 96.1842,598.818932 104.835,597.662932 L120.56,595.557932 L120.56,547.961932 C120.56,521.785932 120.025,500.901932 119.372,501.555932 C118.718,502.210932 116.087,508.971932 113.525,516.579932 C98.6187,560.843932 52.3202,596.250932 9.34967,596.250932 L0.299125,596.250932 L0.902998,524.338932 L1.50496,452.426932 L6.63697,438.365932 C15.7237,413.468932 33.2095,391.271932 54.8386,377.180932 C67.1752,369.143932 89.4634,360.148932 97.2243,360.076932 C105.338,359.999932 101.491,356.984932 90.3454,354.681932 C59.4372,348.297932 27.0392,321.626932 11.8033,290.021932 C1.68021,269.023932 0.617232,259.180932 0.579126,186.208932 L0.546736,120.011932 L9.59537,120.040932 C52.705,120.173932 98.592,155.337932 113.525,199.682932 C116.087,207.291932 118.718,214.051932 119.371,214.707932 C120.025,215.360932 120.56,194.476932 120.56,168.300932 L120.56,120.705932 L104.835,118.600932 C84.459,115.874932 70.3984,110.492932 52.6707,98.638632 C23.3874,79.051832 4.56052,47.658232 1.23062,12.858532 L0,1.7550997e-14 L66.4703,0.0324337479 Z M124.33,328.362932 C131.893,299.509932 148.773,275.486932 172.743,259.454932 C190.153,247.809932 202.707,242.938932 222.924,239.982932 L238.339,237.728932 L239.636,226.018932 C244.902,178.503932 279.917,136.649932 325.345,123.574932 L336.775,120.282932 L287.722,120.147932 L238.669,120.011932 L238.669,129.136932 C238.669,134.154932 237.364,143.370932 235.769,149.614932 C223.757,196.667932 180.944,233.796932 134.371,237.555932 L120.56,238.669932 L120.665,290.303932 L120.77,341.939932 L124.33,328.362932 Z M134.371,478.707932 C168.228,481.438932 200.116,500.966932 219.79,531.019932 C230.336,547.125932 236.566,564.384932 238.351,582.449932 L239.621,595.298932 L288.198,595.707932 L336.775,596.115932 L323.217,591.705932 C296.53,583.024932 273.976,566.026932 259.033,543.334932 C248.649,527.565932 243.477,513.859932 240.45,494.085932 L238.126,478.901932 L220.036,475.824932 C173.199,467.856932 134.461,432.283932 123.54,387.214932 C121.042,376.906932 120.867,379.358932 120.718,426.911932 L120.56,477.592932 L134.371,478.707932 Z M269.065,361.617932 C307.511,369.558932 347.254,409.302932 355.196,447.747932 C356.486,453.988932 358.054,459.093932 358.682,459.093932 C359.311,459.093932 360.879,453.988932 362.168,447.747932 C370.11,409.302932 409.854,369.558932 448.3,361.617932 C454.541,360.327932 459.646,358.759932 459.646,358.131932 C459.646,357.502932 454.541,355.934932 448.3,354.645932 C409.854,346.703932 370.11,306.960932 362.168,268.514932 C360.879,262.273932 359.311,257.168932 358.682,257.168932 C358.054,257.168932 356.486,262.273932 355.196,268.514932 C347.254,306.960932 307.511,346.703932 269.065,354.645932 C262.824,355.934932 257.718,357.502932 257.718,358.131932 C257.718,358.759932 262.824,360.327932 269.065,361.617932 Z" id="path-1"></path>
    </defs>
    <g id="Page-1" stroke="none" stroke-width="1" fill="none" fill-rule="evenodd">
        <g id="Group-881" transform="translate(0, 0.0001)">
            <g id="Clipped">
                <mask id="mask-2" fill="white">
                    <use xlink:href="#path-1"></use>
                </mask>
                <g id="Shape"></g>
                <path d="M66.4703,0.0324337479 C141.427,0.0705271479 150.263,1.10682205 173.9,12.631832 C184.887,17.988532 191.934,23.385232 204.408,35.992232 C222.593,54.371232 230.683,68.433632 236.129,91.123532 L239.433,104.888932 L242.808,90.582532 C250.75,56.933432 273.695,28.374332 305.827,12.153632 C327.692,1.11633205 337.48,1.7550997e-14 412.366,1.7550997e-14 L479.134,1.7550997e-14 L477.817,10.953532 C473.99,42.768132 464.831,61.747232 442.593,83.957132 C424.551,101.975932 410.503,110.237932 387.948,116.102932 C375.901,119.234932 375.324,119.609932 380.589,120.876932 C383.733,121.634932 391.448,123.899932 397.734,125.911932 C439.903,139.411932 472.674,180.389932 477.716,225.923932 L479.002,237.539932 L496.829,240.452932 C517.498,243.830932 533.418,250.710932 550.544,263.672932 C571.31,279.387932 587.837,304.289932 593.768,328.796932 C596.347,339.453932 596.496,337.412932 596.646,289.350932 L596.804,238.669932 L582.993,237.555932 C545.412,234.522932 508.661,209.216932 491.137,174.302932 C481.947,155.996932 478.696,141.646932 478.696,119.409932 C478.696,97.167932 482.163,82.057832 491.228,64.768432 C503.502,41.369932 521.578,23.518632 544.417,12.246932 C566.877,1.16203205 576.366,0.0704943479 650.62,0.0323896479 L716.818,1.7550997e-14 L716.785,7.14358205 C716.675,30.704032 702.839,62.808232 684.665,81.673032 C664.292,102.817932 640.87,114.809932 612.53,118.600932 L596.804,120.705932 L596.804,168.300932 C596.804,194.476932 597.339,215.360932 597.993,214.707932 C598.646,214.051932 601.277,207.291932 603.839,199.682932 C618.793,155.278932 664.657,120.171932 707.893,120.040932 L717.065,120.011932 L716.461,191.923932 L715.859,263.835932 L710.805,277.673932 C701.271,303.777932 685.176,324.047932 661.808,339.380932 C648.776,347.933932 627.928,356.226932 619.464,356.226932 C617.479,356.226932 615.854,357.083932 615.854,358.131932 C615.854,359.178932 617.479,360.036932 619.464,360.036932 C627.928,360.036932 648.776,368.328932 661.808,376.881932 C685.176,392.214932 701.271,412.485932 710.805,438.588932 L715.859,452.426932 L716.461,524.338932 L717.065,596.250932 L708.015,596.250932 C665.044,596.250932 618.746,560.843932 603.839,516.579932 C601.277,508.971932 598.646,502.210932 597.993,501.555932 C597.339,500.901932 596.804,521.785932 596.804,547.961932 L596.804,595.557932 L612.53,597.662932 C621.18,598.818932 633.227,601.624932 639.302,603.896932 C655.653,610.015932 677.583,625.535932 688.677,638.841932 C704.889,658.281932 716.818,688.425932 716.818,709.945932 L716.818,716.262932 L650.62,716.230932 C575.962,716.192932 567.087,715.148932 543.465,703.630932 C524.596,694.429932 499.553,669.676932 490.722,651.494932 C480.723,630.913932 478.174,617.608932 479.221,591.488932 C480.324,564.018932 484.357,550.912932 497.963,530.569932 C518.14,500.404932 549.248,481.429932 582.993,478.707932 L596.804,477.592932 L596.701,426.911932 L596.6,376.228932 L592.297,390.515932 C583.49,419.750932 568.165,441.061932 544.621,456.807932 C527.24,468.431932 514.658,473.323932 494.577,476.259932 L479.301,478.493932 L476.945,493.882932 C473.889,513.849932 468.744,527.521932 458.341,543.319932 C442.412,567.512932 415.189,587.175932 389.248,593.225932 C382.7,594.753932 376.999,596.349932 376.574,596.774932 C376.151,597.197932 380.738,598.618932 386.769,599.930932 C407.882,604.525932 424.781,614.301932 442.608,632.236932 C464.835,654.599932 474.006,673.633932 477.817,705.309932 L479.134,716.262932 L412.142,716.262932 C337.36,716.262932 327.846,715.155932 305.343,703.840932 C273.137,687.646932 248.792,656.569932 241.938,622.904932 L239.421,610.537932 L236.785,622.919932 C229.944,655.045932 203.312,689.217932 173.9,703.608932 C150.312,715.146932 141.439,716.192932 66.7447,716.230932 L0.546781,716.262932 L0.546781,709.945932 C0.546779,688.425932 12.4757,658.281932 28.6871,638.841932 C39.7817,625.535932 61.7117,610.015932 78.0621,603.897932 C84.1371,601.624932 96.1842,598.818932 104.835,597.662932 L120.56,595.557932 L120.56,547.961932 C120.56,521.785932 120.025,500.901932 119.372,501.555932 C118.718,502.210932 116.087,508.971932 113.525,516.579932 C98.6187,560.843932 52.3202,596.250932 9.34967,596.250932 L0.299125,596.250932 L0.902998,524.338932 L1.50496,452.426932 L6.63697,438.365932 C15.7237,413.468932 33.2095,391.271932 54.8386,377.180932 C67.1752,369.143932 89.4634,360.148932 97.2243,360.076932 C105.338,359.999932 101.491,356.984932 90.3454,354.681932 C59.4372,348.297932 27.0392,321.626932 11.8033,290.021932 C1.68021,269.023932 0.617232,259.180932 0.579126,186.208932 L0.546736,120.011932 L9.59537,120.040932 C52.705,120.173932 98.592,155.337932 113.525,199.682932 C116.087,207.291932 118.718,214.051932 119.371,214.707932 C120.025,215.360932 120.56,194.476932 120.56,168.300932 L120.56,120.705932 L104.835,118.600932 C84.459,115.874932 70.3984,110.492932 52.6707,98.638632 C23.3874,79.051832 4.56052,47.658232 1.23062,12.858532 L0,1.7550997e-14 L66.4703,0.0324337479 Z M124.33,328.362932 C131.893,299.509932 148.773,275.486932 172.743,259.454932 C190.153,247.809932 202.707,242.938932 222.924,239.982932 L238.339,237.728932 L239.636,226.018932 C244.902,178.503932 279.917,136.649932 325.345,123.574932 L336.775,120.282932 L287.722,120.147932 L238.669,120.011932 L238.669,129.136932 C238.669,134.154932 237.364,143.370932 235.769,149.614932 C223.757,196.667932 180.944,233.796932 134.371,237.555932 L120.56,238.669932 L120.665,290.303932 L120.77,341.939932 L124.33,328.362932 Z M134.371,478.707932 C168.228,481.438932 200.116,500.966932 219.79,531.019932 C230.336,547.125932 236.566,564.384932 238.351,582.449932 L239.621,595.298932 L288.198,595.707932 L336.775,596.115932 L323.217,591.705932 C296.53,583.024932 273.976,566.026932 259.033,543.334932 C248.649,527.565932 243.477,513.859932 240.45,494.085932 L238.126,478.901932 L220.036,475.824932 C173.199,467.856932 134.461,432.283932 123.54,387.214932 C121.042,376.906932 120.867,379.358932 120.718,426.911932 L120.56,477.592932 L134.371,478.707932 Z M269.065,361.617932 C307.511,369.558932 347.254,409.302932 355.196,447.747932 C356.486,453.988932 358.054,459.093932 358.682,459.093932 C359.311,459.093932 360.879,453.988932 362.168,447.747932 C370.11,409.302932 409.854,369.558932 448.3,361.617932 C454.541,360.327932 459.646,358.759932 459.646,358.131932 C459.646,357.502932 454.541,355.934932 448.3,354.645932 C409.854,346.703932 370.11,306.960932 362.168,268.514932 C360.879,262.273932 359.311,257.168932 358.682,257.168932 C358.054,257.168932 356.486,262.273932 355.196,268.514932 C347.254,306.960932 307.511,346.703932 269.065,354.645932 C262.824,355.934932 257.718,357.502932 257.718,358.131932 C257.718,358.759932 262.824,360.327932 269.065,361.617932 Z" id="Shape" stroke="#FF0420" stroke-width="2" mask="url(#mask-2)"></path>
            </g>
            <path d="M269.166,361.127932 C288.508,365.123932 308.139,377.106932 323.923,392.889932 C339.707,408.673932 351.69,428.304932 355.686,447.646932 C356.328,450.756932 357.039,453.576932 357.665,455.614932 C357.979,456.635932 358.267,457.446932 358.511,457.995932 C358.573,458.136932 358.631,458.255932 358.682,458.352932 C358.734,458.255932 358.791,458.136932 358.854,457.995932 C359.097,457.446932 359.386,456.635932 359.699,455.614932 C360.325,453.576932 361.036,450.756932 361.679,447.646932 C365.674,428.304932 377.657,408.673932 393.441,392.889932 C409.226,377.106932 428.856,365.123932 448.199,361.127932 C451.308,360.484932 454.129,359.774932 456.166,359.148932 C457.187,358.834932 457.999,358.546932 458.548,358.302932 C458.689,358.240932 458.808,358.182932 458.905,358.131932 C458.808,358.079932 458.689,358.022932 458.548,357.959932 C457.999,357.715932 457.187,357.427932 456.166,357.113932 C454.129,356.487932 451.308,355.777932 448.199,355.134932 C428.856,351.139932 409.226,339.156932 393.441,323.372932 C377.657,307.588932 365.674,287.957932 361.679,268.615932 C361.036,265.506932 360.325,262.685932 359.699,260.648932 C359.386,259.626932 359.097,258.815932 358.854,258.266932 C358.791,258.125932 358.734,258.006932 358.682,257.909932 C358.631,258.006932 358.573,258.125932 358.511,258.266932 C358.267,258.815932 357.979,259.626932 357.665,260.648932 C357.039,262.685932 356.328,265.506932 355.686,268.615932 C351.69,287.957932 339.707,307.588932 323.923,323.372932 C308.139,339.156932 288.508,351.139932 269.166,355.134932 C266.056,355.777932 263.236,356.487932 261.198,357.113932 C260.177,357.427932 259.366,357.716932 258.816,357.959932 C258.675,358.022932 258.557,358.079932 258.46,358.131932 C258.557,358.182932 258.675,358.240932 258.816,358.302932 C259.366,358.546932 260.177,358.834932 261.198,359.148932 C263.236,359.774932 266.056,360.484932 269.166,361.127932 Z" id="Path" stroke="#FF0420" fill="#FF0420" fill-rule="nonzero"></path>
        </g>
    </g>
</svg>