<?xml version="1.0" encoding="UTF-8"?>
<svg width="508px" height="769px" viewBox="0 0 508 769" version="1.1" xmlns="http://www.w3.org/2000/svg" xmlns:xlink="http://www.w3.org/1999/xlink">
    <title>Artboard</title>
    <defs>
        <rect id="path-1" x="0" y="0" width="510.281" height="381.045"></rect>
    </defs>
    <g id="Artboard" stroke="none" stroke-width="1" fill="none" fill-rule="evenodd">
        <g id="Group-877" transform="translate(-2.746, -1.0002)">
            <path d="M510.647,746.150244 C510.633,719.429244 510.264,716.280244 506.155,707.854244 C504.245,703.937244 502.321,701.425244 497.826,696.978244 C491.273,690.496244 486.259,687.611244 478.17,685.670244 L473.262,684.492244 L478.363,683.289244 C490.36,680.458244 500.542,672.278244 506.325,660.824244 C510.261,653.030244 510.659,649.540244 510.659,622.845244 L510.659,599.044244 L506.753,599.513244 C495.41,600.877244 488.643,604.142244 480.725,612.070244 C474.3,618.501244 471.355,623.509244 469.263,631.549244 C468.147,635.844244 468.013,636.050244 467.561,634.173244 C467.291,633.052244 466.484,630.302244 465.766,628.061244 C460.953,613.029244 446.343,601.346244 430.108,599.549244 L425.967,599.090244 L424.928,592.736244 C423.724,585.367244 421.271,579.692244 416.649,573.587244 C411.046,566.185244 402.168,560.293244 393.43,558.179244 C389.631,557.259244 390.358,557.206244 407.494,557.153244 L425.564,557.096244 L425.961,562.020244 C427.042,575.417244 436.065,588.518244 448.513,594.765244 C455.04,598.041244 460.156,599.200244 468.084,599.200244 C476.015,599.200244 481.402,597.964244 487.566,594.732244 C495.909,590.357244 502.273,583.913244 506.292,575.771244 C510.244,567.765244 510.633,564.382244 510.647,537.912244 L510.659,514.314244 L508.112,514.325244 C499.711,514.365244 488.265,519.297244 481.539,525.776244 C474,533.038244 469.725,541.388244 468.373,551.490244 L467.623,557.096244 L450.653,557.096244 C441.32,557.096244 433.874,556.906244 434.107,556.673244 C434.341,556.440244 436.751,555.502244 439.464,554.588244 C455.296,549.258244 467.813,532.908244 467.86,517.495244 L467.87,514.226244 L442.23,514.441244 L416.591,514.655244 L411.657,516.457244 C402.35,519.856244 395.123,525.594244 389.656,533.924244 C386.607,538.570244 383.65,546.001244 383.65,549.019244 C383.65,549.726244 383.345,550.305244 382.971,550.305244 C382.598,550.305244 382.292,549.726244 382.292,549.019244 C382.292,546.001244 379.336,538.570244 376.286,533.924244 C370.819,525.594244 363.592,519.856244 354.285,516.457244 L349.351,514.655244 L323.712,514.441244 L298.073,514.226244 L298.073,517.452244 C298.073,532.770244 310.697,549.275244 326.478,554.588244 C329.191,555.502244 331.601,556.440244 331.835,556.673244 C332.068,556.906244 324.622,557.096244 315.289,557.096244 L298.32,557.096244 L297.569,551.490244 C297.157,548.407244 296.157,544.112244 295.346,541.947244 C293.165,536.118244 287.631,528.300244 282.887,524.345244 C275.956,518.566244 265.209,514.314244 257.536,514.314244 L255.284,514.314244 L255.295,537.912244 C255.309,564.526244 255.681,567.690244 259.787,576.111244 C263.068,582.837244 271.893,591.764244 278.376,594.913244 C285.714,598.477244 290.458,599.386244 299.771,599.012244 C309.565,598.619244 314.237,597.182244 321.49,592.331244 C332.245,585.139244 339.011,574.049244 339.981,562.020244 L340.379,557.096244 L358.448,557.133244 L376.519,557.169244 L371.425,558.703244 C361.001,561.842244 353.403,567.306244 347.789,575.699244 C343.645,581.895244 341.901,586.380244 340.854,593.538244 L340.057,598.984244 L334.571,599.824244 C327.452,600.913244 322.577,602.747244 316.945,606.456244 C308.319,612.134244 301.308,621.838244 299.151,631.086244 C298.607,633.420244 298.037,635.453244 297.886,635.604244 C297.735,635.755244 297.228,634.120244 296.76,631.970244 C295.122,624.443244 291.637,618.419244 285.242,612.064244 C277.269,604.141244 270.483,600.872244 259.189,599.513244 L255.284,599.044244 L255.284,622.925244 C255.284,649.583244 255.678,652.975244 259.713,660.997244 C265.487,672.477244 276.567,681.156244 288.569,683.599244 L292.979,684.496244 L288.564,685.436244 C277.11,687.875244 264.926,697.369244 259.796,707.854244 C255.682,716.262244 255.309,719.425244 255.295,746.052244 L255.284,769.651244 L257.536,769.651244 C265.209,769.651244 275.956,765.398244 282.887,759.619244 C287.631,755.664244 293.165,747.846244 295.346,742.018244 C296.157,739.852244 297.157,735.558244 297.569,732.474244 L298.32,726.868244 L315.289,726.868244 C324.622,726.868244 332.068,727.059244 331.835,727.292244 C331.601,727.525244 329.191,728.463244 326.478,729.376244 C310.697,734.690244 298.073,751.194244 298.073,766.513244 L298.073,769.739244 L323.712,769.524244 L349.351,769.309244 L354.364,767.480244 C363.241,764.240244 371.155,758.007244 376.179,750.297244 C379.045,745.899244 382.252,737.954244 382.278,735.187244 C382.305,732.295244 383.38,733.666244 384.201,737.639244 C386.477,748.657244 395.986,760.207244 407.255,765.638244 C414.742,769.247244 418.251,769.625244 444.268,769.639244 L467.87,769.651244 L467.86,766.425244 C467.812,751.057244 455.275,734.699244 439.464,729.376244 C436.751,728.463244 434.341,727.525244 434.107,727.292244 C433.874,727.059244 441.32,726.868244 450.653,726.868244 L467.623,726.868244 L468.373,732.474244 C469.345,739.738244 471.264,744.750244 475.49,751.069244 C482.474,761.508244 493.667,768.220244 506.074,769.407244 L510.659,769.846244 L510.647,746.150244 Z M393.585,725.524244 C403.872,722.828244 412.437,716.811244 418.153,708.266244 C422.305,702.060244 424.042,697.585244 425.096,690.377244 L425.899,684.882244 L430.074,684.420244 C447.015,682.543244 461.938,670.060244 466.6,653.866244 L467.773,649.792244 L467.822,667.278244 L467.87,684.765244 L464.616,684.765244 C462.827,684.765244 459.542,685.230244 457.315,685.798244 C440.539,690.081244 427.301,705.342244 425.961,721.945244 L425.564,726.868244 L407.154,726.831244 L388.744,726.793244 L393.585,725.524244 Z M339.981,721.945244 C339.007,709.875244 332.045,698.508244 321.33,691.494244 C315.588,687.735244 309.434,685.514244 302.993,684.878244 L298.412,684.425244 L298.266,667.108244 L298.121,649.792244 L299.693,654.625244 C302.788,664.138244 308.849,672.179244 316.939,677.505244 C322.561,681.207244 327.448,683.051244 334.498,684.130244 L339.912,684.958244 L341.009,691.407244 C343.85,708.104244 356.533,721.913244 372.602,725.806244 C376.277,726.696244 375.403,726.759244 358.448,726.812244 L340.379,726.868244 L339.981,721.945244 Z M381.728,673.929244 C378.897,660.224244 364.727,646.056244 351.019,643.225244 C348.794,642.765244 346.974,642.206244 346.974,641.982244 C346.974,641.758244 348.794,641.199244 351.019,640.740244 C364.727,637.908244 378.897,623.741244 381.728,610.035244 C382.188,607.811244 382.747,605.991244 382.971,605.991244 C383.195,605.991244 383.754,607.811244 384.214,610.035244 C387.046,623.741244 401.216,637.908244 414.923,640.740244 C417.148,641.199244 418.968,641.758244 418.968,641.982244 C418.968,642.206244 417.148,642.765244 414.923,643.225244 C401.216,646.056244 387.046,660.224244 384.214,673.929244 C383.754,676.154244 383.195,677.974244 382.971,677.974244 C382.747,677.974244 382.188,676.154244 381.728,673.929244 Z" id="Shape" fill="#FFFFFF"></path>
            <path d="M255.282,746.150244 C255.268,719.429244 254.899,716.280244 250.791,707.854244 C248.882,703.937244 246.959,701.425244 242.465,696.978244 C235.914,690.496244 230.902,687.611244 222.815,685.670244 L217.909,684.492244 L223.008,683.289244 C235.001,680.458244 245.18,672.278244 250.962,660.824244 C254.896,653.030244 255.294,649.540244 255.294,622.845244 L255.294,599.044244 L251.39,599.513244 C240.05,600.877244 233.285,604.142244 225.369,612.070244 C218.947,618.501244 216.002,623.509244 213.912,631.549244 C212.795,635.844244 212.662,636.050244 212.21,634.173244 C211.94,633.052244 211.133,630.302244 210.416,628.061244 C205.604,613.029244 190.998,601.346244 174.769,599.549244 L170.629,599.090244 L169.59,592.736244 C168.387,585.367244 165.934,579.692244 161.315,573.587244 C155.713,566.185244 146.837,560.293244 138.103,558.179244 C134.304,557.259244 135.032,557.206244 152.162,557.153244 L170.226,557.096244 L170.623,562.020244 C171.704,575.417244 180.724,588.518244 193.168,594.765244 C199.693,598.041244 204.807,599.200244 212.733,599.200244 C220.661,599.200244 226.046,597.964244 232.209,594.732244 C240.548,590.357244 246.911,583.913244 250.929,575.771244 C254.879,567.765244 255.269,564.382244 255.282,537.912244 L255.294,514.314244 L252.747,514.325244 C244.35,514.365244 232.907,519.297244 226.183,525.776244 C218.647,533.038244 214.373,541.388244 213.022,551.490244 L212.271,557.096244 L195.307,557.096244 C185.977,557.096244 178.534,556.906244 178.767,556.673244 C179,556.440244 181.41,555.502244 184.122,554.588244 C199.949,549.258244 212.461,532.908244 212.508,517.495244 L212.518,514.226244 L186.887,514.441244 L161.256,514.655244 L156.324,516.457244 C147.02,519.856244 139.795,525.594244 134.33,533.924244 C131.282,538.570244 128.326,546.001244 128.326,549.019244 C128.326,549.726244 128.02,550.305244 127.647,550.305244 C127.274,550.305244 126.968,549.726244 126.968,549.019244 C126.968,546.001244 124.013,538.570244 120.964,533.924244 C115.499,525.594244 108.274,519.856244 98.97,516.457244 L94.038,514.655244 L68.4068,514.441244 L42.7757,514.226244 L42.7757,517.452244 C42.7757,532.770244 55.3957,549.275244 71.1723,554.588244 C73.8841,555.502244 76.2937,556.440244 76.5273,556.673244 C76.7602,556.906244 69.3166,557.096244 59.9869,557.096244 L43.0228,557.096244 L42.2725,551.490244 C41.8604,548.407244 40.8603,544.112244 40.0502,541.947244 C37.8694,536.118244 32.3378,528.300244 27.5952,524.345244 C20.6663,518.566244 9.9223,514.314244 2.2519,514.314244 L0.0004,514.314244 L0.012,537.912244 C0.0256,564.526244 0.3977,567.690244 4.5027,576.111244 C7.7822,582.837244 16.6047,591.764244 23.0855,594.913244 C30.4211,598.477244 35.163,599.386244 44.4731,599.012244 C54.2638,598.619244 58.9352,597.182244 66.1859,592.331244 C76.9374,585.139244 83.7006,574.049244 84.6709,562.020244 L85.0681,557.096244 L103.132,557.133244 L121.197,557.169244 L116.105,558.703244 C105.684,561.842244 98.089,567.306244 92.476,575.699244 C88.3333,581.895244 86.5897,586.380244 85.5434,593.538244 L84.7469,598.984244 L79.2622,599.824244 C72.1452,600.913244 67.2723,602.747244 61.6416,606.456244 C53.0186,612.134244 46.0103,621.838244 43.8539,631.086244 C43.3093,633.420244 42.7403,635.453244 42.5889,635.604244 C42.4382,635.755244 41.9317,634.120244 41.4639,631.970244 C39.8262,624.443244 36.3417,618.419244 29.9492,612.064244 C21.9788,604.141244 15.1945,600.872244 3.9046,599.513244 L0.0004,599.044244 L0.0004,622.925244 C0.0004,649.583244 0.3949,652.975244 4.428,660.997244 C10.2,672.477244 21.2767,681.156244 33.2755,683.599244 L37.6834,684.496244 L33.27,685.436244 C21.8199,687.875244 9.6398,697.369244 4.5109,707.854244 C0.3983,716.262244 0.0256,719.425244 0.012,746.052244 L0.0004,769.651244 L2.2519,769.651244 C9.9223,769.651244 20.6663,765.398244 27.5952,759.619244 C32.3378,755.664244 37.8694,747.846244 40.0502,742.018244 C40.8602,739.852244 41.8604,735.558244 42.2725,732.474244 L43.0228,726.868244 L59.9869,726.868244 C69.3166,726.868244 76.7602,727.059244 76.5273,727.292244 C76.2937,727.525244 73.884,728.463244 71.1722,729.376244 C55.3957,734.690244 42.7756,751.194244 42.7756,766.513244 L42.7756,769.739244 L68.4068,769.524244 L94.038,769.309244 L99.049,767.480244 C107.924,764.240244 115.835,758.007244 120.857,750.297244 C123.722,745.899244 126.928,737.954244 126.954,735.187244 C126.981,732.295244 128.056,733.666244 128.877,737.639244 C131.152,748.657244 140.658,760.207244 151.923,765.638244 C159.407,769.247244 162.916,769.625244 188.924,769.639244 L212.518,769.651244 L212.508,766.425244 C212.461,751.057244 199.928,734.699244 184.122,729.376244 C181.41,728.463244 179,727.525244 178.767,727.292244 C178.534,727.059244 185.977,726.868244 195.307,726.868244 L212.271,726.868244 L213.022,732.474244 C213.993,739.738244 215.911,744.750244 220.136,751.069244 C227.118,761.508244 238.307,768.220244 250.711,769.407244 L255.294,769.846244 L255.282,746.150244 Z M138.257,725.524244 C148.541,722.828244 157.104,716.811244 162.818,708.266244 C166.968,702.060244 168.704,697.585244 169.758,690.377244 L170.561,684.882244 L174.735,684.420244 C191.671,682.543244 206.588,670.060244 211.249,653.866244 L212.422,649.792244 L212.47,667.278244 L212.518,684.765244 L209.266,684.765244 C207.478,684.765244 204.193,685.230244 201.967,685.798244 C185.197,690.081244 171.963,705.342244 170.623,721.945244 L170.226,726.868244 L151.822,726.831244 L133.418,726.793244 L138.257,725.524244 Z M84.6709,721.945244 C83.6972,709.875244 76.7371,698.508244 66.0257,691.494244 C60.2849,687.735244 54.1335,685.514244 47.6948,684.878244 L43.1151,684.425244 L42.9692,667.108244 L42.8239,649.792244 L44.3957,654.625244 C47.4897,664.138244 53.5482,672.179244 61.6361,677.505244 C67.2566,681.207244 72.1418,683.051244 79.1895,684.130244 L84.6016,684.958244 L85.6982,691.407244 C88.5383,708.104244 101.217,721.913244 117.281,725.806244 C120.955,726.696244 120.081,726.759244 103.132,726.812244 L85.0681,726.868244 L84.6709,721.945244 Z M126.405,673.929244 C123.574,660.224244 109.409,646.056244 95.706,643.225244 C93.481,642.765244 91.662,642.206244 91.662,641.982244 C91.662,641.758244 93.481,641.199244 95.706,640.740244 C109.409,637.908244 123.574,623.741244 126.405,610.035244 C126.864,607.811244 127.423,605.991244 127.647,605.991244 C127.871,605.991244 128.43,607.811244 128.89,610.035244 C131.72,623.741244 145.886,637.908244 159.589,640.740244 C161.813,641.199244 163.633,641.758244 163.633,641.982244 C163.633,642.206244 161.813,642.765244 159.589,643.225244 C145.886,646.056244 131.72,660.224244 128.89,673.929244 C128.43,676.154244 127.871,677.974244 127.647,677.974244 C127.423,677.974244 126.864,676.154244 126.405,673.929244 Z" id="Shape" fill="#FFFFFF"></path>
            <path d="M382.97,502.375244 C382.964,489.010244 382.779,487.435244 380.724,483.220244 C379.769,481.261244 378.807,480.005244 376.56,477.781244 C373.284,474.539244 370.777,473.096244 366.732,472.125244 L364.278,471.536244 L366.828,470.934244 C372.827,469.518244 377.918,465.427244 380.81,459.698244 C382.777,455.800244 382.976,454.055244 382.976,440.703244 L382.976,428.798244 L381.024,429.033244 C375.352,429.715244 371.969,431.348244 368.009,435.313244 C364.797,438.530244 363.324,441.035244 362.279,445.056244 C361.72,447.204244 361.653,447.307244 361.428,446.368244 C361.292,445.808244 360.889,444.432244 360.53,443.311244 C358.123,435.793244 350.818,429.950244 342.701,429.051244 L340.63,428.821244 L340.111,425.643244 C339.509,421.958244 338.282,419.119244 335.972,416.066244 C333.17,412.363244 328.731,409.416244 324.362,408.359244 C322.462,407.899244 322.826,407.873244 331.394,407.846244 L340.429,407.818244 L340.627,410.280244 C341.168,416.981244 345.679,423.533244 351.903,426.658244 C355.167,428.296244 357.725,428.876244 361.689,428.876244 C365.654,428.876244 368.348,428.258244 371.43,426.642244 C375.601,424.453244 378.784,421.230244 380.793,417.158244 C382.769,413.154244 382.964,411.462244 382.97,398.223244 L382.976,386.420244 L381.703,386.425244 C377.503,386.445244 371.779,388.912244 368.416,392.152244 C364.647,395.785244 362.509,399.961244 361.833,405.014244 L361.458,407.818244 L352.973,407.818244 C348.307,407.818244 344.584,407.722244 344.701,407.606244 C344.817,407.489244 346.023,407.020244 347.379,406.563244 C355.295,403.897244 361.553,395.720244 361.577,388.011244 L361.582,386.375244 L348.762,386.483244 L335.942,386.590244 L333.476,387.492244 C328.822,389.192244 325.209,392.061244 322.475,396.228244 C320.95,398.551244 319.472,402.269244 319.472,403.778244 C319.472,404.131244 319.319,404.421244 319.133,404.421244 C318.946,404.421244 318.793,404.131244 318.793,403.778244 C318.793,402.269244 317.315,398.551244 315.79,396.228244 C313.057,392.061244 309.443,389.192244 304.789,387.492244 L302.323,386.590244 L289.503,386.483244 L276.683,386.375244 L276.683,387.989244 C276.683,395.651244 282.995,403.906244 290.886,406.563244 C292.242,407.020244 293.448,407.489244 293.564,407.606244 C293.681,407.722244 289.958,407.818244 285.292,407.818244 L276.807,407.818244 L276.432,405.014244 C276.225,403.472244 275.725,401.324244 275.32,400.240244 C274.229,397.325244 271.463,393.415244 269.091,391.437244 C265.625,388.547244 260.251,386.420244 256.415,386.420244 L255.289,386.420244 L255.295,398.223244 C255.301,411.534244 255.487,413.116244 257.541,417.328244 C259.181,420.692244 263.594,425.157244 266.835,426.732244 C270.504,428.515244 272.876,428.969244 277.532,428.782244 C282.429,428.586244 284.766,427.867244 288.392,425.441244 C293.77,421.843244 297.152,416.297244 297.638,410.280244 L297.836,407.818244 L306.871,407.836244 L315.906,407.854244 L313.359,408.621244 C308.148,410.192244 304.349,412.924244 301.542,417.122244 C299.469,420.221244 298.597,422.464244 298.074,426.044244 L297.676,428.768244 L294.932,429.188244 C291.373,429.733244 288.935,430.650244 286.119,432.505244 C281.806,435.346244 278.301,440.199244 277.223,444.825244 C276.95,445.992244 276.666,447.008244 276.59,447.084244 C276.514,447.160244 276.261,446.342244 276.027,445.266244 C275.208,441.502244 273.465,438.489244 270.268,435.311244 C266.281,431.347244 262.888,429.712244 257.241,429.033244 L255.289,428.798244 L255.289,440.743244 C255.289,454.076244 255.486,455.772244 257.503,459.784244 C260.39,465.527244 265.93,469.867244 271.932,471.089244 L274.136,471.538244 L271.929,472.008244 C266.202,473.228244 260.11,477.976244 257.545,483.220244 C255.488,487.426244 255.301,489.008244 255.295,502.326244 L255.289,514.129244 L256.415,514.129244 C260.251,514.129244 265.625,512.002244 269.091,509.111244 C271.463,507.133244 274.229,503.223244 275.32,500.308244 C275.725,499.225244 276.225,497.077244 276.432,495.535244 L276.807,492.731244 L285.292,492.731244 C289.958,492.731244 293.681,492.826244 293.564,492.943244 C293.448,493.059244 292.242,493.528244 290.886,493.985244 C282.995,496.643244 276.683,504.898244 276.683,512.559244 L276.683,514.173244 L289.503,514.065244 L302.323,513.958244 L304.829,513.043244 C309.268,511.423244 313.225,508.305244 315.737,504.449244 C317.169,502.249244 318.773,498.275244 318.786,496.891244 C318.799,495.445244 319.337,496.131244 319.748,498.118244 C320.886,503.629244 325.64,509.405244 331.274,512.122244 C335.018,513.927244 336.772,514.116244 349.781,514.123244 L361.582,514.129244 L361.577,512.515244 C361.553,504.829244 355.284,496.648244 347.379,493.985244 C346.023,493.528244 344.817,493.059244 344.701,492.943244 C344.584,492.826244 348.307,492.731244 352.973,492.731244 L361.458,492.731244 L361.833,495.535244 C362.319,499.168244 363.279,501.674244 365.392,504.835244 C368.884,510.056244 374.48,513.413244 380.684,514.007244 L382.976,514.226244 L382.97,502.375244 Z M324.439,492.059244 C329.583,490.710244 333.865,487.701244 336.723,483.427244 C338.799,480.323244 339.668,478.084244 340.195,474.480244 L340.597,471.731244 L342.684,471.500244 C351.155,470.561244 358.616,464.318244 360.947,456.218244 L361.534,454.180244 L361.558,462.926244 L361.582,471.672244 L359.955,471.672244 C359.061,471.672244 357.418,471.905244 356.305,472.189244 C347.917,474.331244 341.297,481.964244 340.627,490.268244 L340.429,492.731244 L331.224,492.712244 L322.019,492.693244 L324.439,492.059244 Z M297.638,490.268244 C297.151,484.232244 293.669,478.546244 288.312,475.038244 C285.441,473.158244 282.364,472.047244 279.144,471.729244 L276.853,471.502244 L276.78,462.841244 L276.707,454.180244 L277.494,456.598244 C279.041,461.356244 282.071,465.377244 286.117,468.041244 C288.928,469.893244 291.371,470.815244 294.896,471.355244 L297.603,471.769244 L298.151,474.994244 C299.572,483.345244 305.913,490.252244 313.948,492.200244 C315.785,492.645244 315.348,492.676244 306.871,492.703244 L297.836,492.731244 L297.638,490.268244 Z M318.511,466.253244 C317.095,459.398244 310.01,452.312244 303.157,450.896244 C302.044,450.666244 301.134,450.386244 301.134,450.274244 C301.134,450.162244 302.044,449.883244 303.157,449.653244 C310.01,448.237244 317.095,441.150244 318.511,434.296244 C318.741,433.183244 319.02,432.273244 319.133,432.273244 C319.245,432.273244 319.524,433.183244 319.754,434.296244 C321.17,441.150244 328.255,448.237244 335.108,449.653244 C336.221,449.883244 337.131,450.162244 337.131,450.274244 C337.131,450.386244 336.221,450.666244 335.108,450.896244 C328.255,452.312244 321.17,459.398244 319.754,466.253244 C319.524,467.366244 319.245,468.276244 319.133,468.276244 C319.02,468.276244 318.741,467.366244 318.511,466.253244 Z" id="Shape" fill="#FFFFFF"></path>
            <path d="M127.6,502.375244 C127.593,489.010244 127.409,487.435244 125.355,483.220244 C124.401,481.261244 123.44,480.005244 121.194,477.781244 C117.919,474.539244 115.414,473.096244 111.372,472.125244 L108.919,471.536244 L111.468,470.934244 C117.463,469.518244 122.551,465.427244 125.441,459.698244 C127.407,455.800244 127.606,454.055244 127.606,440.703244 L127.606,428.798244 L125.654,429.033244 C119.986,429.715244 116.605,431.348244 112.648,435.313244 C109.438,438.530244 107.966,441.035244 106.921,445.056244 C106.363,447.204244 106.297,447.307244 106.071,446.368244 C105.936,445.808244 105.532,444.432244 105.174,443.311244 C102.769,435.793244 95.468,429.950244 87.3563,429.051244 L85.2868,428.821244 L84.7679,425.643244 C84.1662,421.958244 82.9403,419.119244 80.6312,416.066244 C77.8314,412.363244 73.395,409.416244 69.0289,408.359244 C67.1305,407.899244 67.4939,407.873244 76.0564,407.846244 L85.0855,407.818244 L85.2841,410.280244 C85.8244,416.981244 90.333,423.533244 96.553,426.658244 C99.814,428.296244 102.371,428.876244 106.332,428.876244 C110.295,428.876244 112.987,428.258244 116.067,426.642244 C120.235,424.453244 123.416,421.230244 125.424,417.158244 C127.399,413.154244 127.593,411.462244 127.6,398.223244 L127.606,386.420244 L126.333,386.425244 C122.136,386.445244 116.416,388.912244 113.055,392.152244 C109.288,395.785244 107.152,399.961244 106.476,405.014244 L106.101,407.818244 L97.622,407.818244 C92.959,407.818244 89.2382,407.722244 89.3546,407.606244 C89.4713,407.489244 90.676,407.020244 92.031,406.563244 C99.942,403.897244 106.196,395.720244 106.22,388.011244 L106.225,386.375244 L93.414,386.483244 L80.602,386.590244 L78.1368,387.492244 C73.4863,389.192244 69.875,392.061244 67.1434,396.228244 C65.6196,398.551244 64.1423,402.269244 64.1423,403.778244 C64.1423,404.131244 63.9895,404.421244 63.8029,404.421244 C63.6162,404.421244 63.4635,404.131244 63.4635,403.778244 C63.4635,402.269244 61.9862,398.551244 60.4624,396.228244 C57.7307,392.061244 54.1194,389.192244 49.469,387.492244 L47.0037,386.590244 L34.1922,386.483244 L21.3808,386.375244 L21.3808,387.989244 C21.3808,395.651244 27.6888,403.906244 35.5745,406.563244 C36.93,407.020244 38.1344,407.489244 38.2512,407.606244 C38.3676,407.722244 34.647,407.818244 29.9836,407.818244 L21.5043,407.818244 L21.1293,405.014244 C20.9233,403.472244 20.4234,401.324244 20.0185,400.240244 C18.9284,397.325244 16.1635,393.415244 13.793,391.437244 C10.3296,388.547244 4.9593,386.420244 1.1254,386.420244 L0,386.420244 L0.0058,398.223244 C0.0126,411.534244 0.1985,413.116244 2.2504,417.328244 C3.8896,420.692244 8.2995,425.157244 11.5388,426.732244 C15.2054,428.515244 17.5757,428.969244 22.2292,428.782244 C27.123,428.586244 29.4579,427.867244 33.0821,425.441244 C38.4562,421.843244 41.8367,416.297244 42.3217,410.280244 L42.5202,407.818244 L51.5493,407.836244 L60.5788,407.854244 L58.0335,408.621244 C52.825,410.192244 49.0284,412.924244 46.2232,417.122244 C44.1523,420.221244 43.2808,422.464244 42.7578,426.044244 L42.3597,428.768244 L39.6182,429.188244 C36.0608,429.733244 33.6251,430.650244 30.8107,432.505244 C26.5006,435.346244 22.9975,440.199244 21.9197,444.825244 C21.6475,445.992244 21.3631,447.008244 21.2874,447.084244 C21.2121,447.160244 20.9589,446.342244 20.7251,445.266244 C19.9065,441.502244 18.1648,438.489244 14.9696,435.311244 C10.9856,431.347244 7.5946,429.712244 1.9514,429.033244 L0,428.798244 L0,440.743244 C0,454.076244 0.1972,455.772244 2.2131,459.784244 C5.0981,465.527244 10.6347,469.867244 16.6322,471.089244 L18.8354,471.538244 L16.6295,472.008244 C10.9062,473.228244 4.8181,477.976244 2.2545,483.220244 C0.1989,487.426244 0.0126,489.008244 0.0058,502.326244 L0,514.129244 L1.1254,514.129244 C4.9593,514.129244 10.3296,512.002244 13.793,509.111244 C16.1635,507.133244 18.9284,503.223244 20.0185,500.308244 C20.4234,499.225244 20.9233,497.077244 21.1293,495.535244 L21.5043,492.731244 L29.9836,492.731244 C34.647,492.731244 38.3676,492.826244 38.2512,492.943244 C38.1344,493.059244 36.93,493.528244 35.5745,493.985244 C27.6887,496.643244 21.3807,504.898244 21.3807,512.559244 L21.3807,514.173244 L34.1922,514.065244 L47.0037,513.958244 L49.5086,513.043244 C53.9443,511.423244 57.8987,508.305244 60.4091,504.449244 C61.8409,502.249244 63.4435,498.275244 63.4564,496.891244 C63.4699,495.445244 64.0072,496.131244 64.4175,498.118244 C65.5547,503.629244 70.3063,509.405244 75.937,512.122244 C79.6779,513.927244 81.4315,514.116244 94.432,514.123244 L106.225,514.129244 L106.22,512.515244 C106.196,504.829244 99.932,496.648244 92.031,493.985244 C90.676,493.528244 89.4713,493.059244 89.3546,492.943244 C89.2382,492.826244 92.959,492.731244 97.622,492.731244 L106.101,492.731244 L106.476,495.535244 C106.962,499.168244 107.921,501.674244 110.033,504.835244 C113.522,510.056244 119.115,513.413244 125.315,514.007244 L127.606,514.226244 L127.6,502.375244 Z M69.1063,492.059244 C74.2465,490.710244 78.5264,487.701244 81.3826,483.427244 C83.4572,480.323244 84.325,478.084244 84.8517,474.480244 L85.2532,471.731244 L87.3393,471.500244 C95.804,470.561244 103.261,464.318244 105.59,456.218244 L106.177,454.180244 L106.201,462.926244 L106.225,471.672244 L104.599,471.672244 C103.705,471.672244 102.064,471.905244 100.951,472.189244 C92.568,474.331244 85.9537,481.964244 85.2841,490.268244 L85.0855,492.731244 L75.8867,492.712244 L66.6876,492.693244 L69.1063,492.059244 Z M42.3217,490.268244 C41.835,484.232244 38.356,478.546244 33.002,475.038244 C30.1326,473.158244 27.0578,472.047244 23.8395,471.729244 L21.5504,471.502244 L21.4775,462.841244 L21.4048,454.180244 L22.1905,456.598244 C23.737,461.356244 26.7653,465.377244 30.808,468.041244 C33.6173,469.893244 36.0591,470.815244 39.5819,471.355244 L42.287,471.769244 L42.8351,474.994244 C44.2548,483.345244 50.5923,490.252244 58.6216,492.200244 C60.458,492.645244 60.0212,492.676244 51.5493,492.703244 L42.5202,492.731244 L42.3217,490.268244 Z M63.1818,466.253244 C61.7669,459.398244 54.6865,452.312244 47.8372,450.896244 C46.7254,450.666244 45.8159,450.386244 45.8159,450.274244 C45.8159,450.162244 46.7254,449.883244 47.8372,449.653244 C54.6865,448.237244 61.7669,441.150244 63.1818,434.296244 C63.4116,433.183244 63.6909,432.273244 63.8029,432.273244 C63.9149,432.273244 64.1942,433.183244 64.4239,434.296244 C65.8388,441.150244 72.9192,448.237244 79.7685,449.653244 C80.8803,449.883244 81.7899,450.162244 81.7899,450.274244 C81.7899,450.386244 80.8803,450.666244 79.7685,450.896244 C72.9192,452.312244 65.8388,459.398244 64.4239,466.253244 C64.1942,467.366244 63.9149,468.276244 63.8029,468.276244 C63.6909,468.276244 63.4116,467.366244 63.1818,466.253244 Z" id="Shape" fill="#FFFFFF"></path>
            <path d="M510.653,502.375244 C510.646,489.010244 510.461,487.435244 508.407,483.220244 C507.452,481.261244 506.49,480.005244 504.242,477.781244 C500.966,474.539244 498.459,473.096244 494.414,472.125244 L491.96,471.536244 L494.511,470.934244 C500.509,469.518244 505.6,465.427244 508.492,459.698244 C510.46,455.800244 510.659,454.055244 510.659,440.703244 L510.659,428.798244 L508.706,429.033244 C503.034,429.715244 499.651,431.348244 495.692,435.313244 C492.479,438.530244 491.007,441.035244 489.961,445.056244 C489.403,447.204244 489.336,447.307244 489.11,446.368244 C488.975,445.808244 488.571,444.432244 488.212,443.311244 C485.806,435.793244 478.501,429.950244 470.383,429.051244 L468.313,428.821244 L467.793,425.643244 C467.191,421.958244 465.965,419.119244 463.654,416.066244 C460.852,412.363244 456.413,409.416244 452.044,408.359244 C450.145,407.899244 450.508,407.873244 459.076,407.846244 L468.111,407.818244 L468.31,410.280244 C468.85,416.981244 473.362,423.533244 479.586,426.658244 C482.849,428.296244 485.407,428.876244 489.371,428.876244 C493.337,428.876244 496.03,428.258244 499.112,426.642244 C503.284,424.453244 506.466,421.230244 508.475,417.158244 C510.451,413.154244 510.646,411.462244 510.653,398.223244 L510.659,386.420244 L509.385,386.425244 C505.185,386.445244 499.462,388.912244 496.099,392.152244 C492.329,395.785244 490.192,399.961244 489.516,405.014244 L489.141,407.818244 L480.656,407.818244 C475.989,407.818244 472.266,407.722244 472.383,407.606244 C472.5,407.489244 473.705,407.020244 475.061,406.563244 C482.977,403.897244 489.236,395.720244 489.259,388.011244 L489.264,386.375244 L476.444,386.483244 L463.625,386.590244 L461.158,387.492244 C456.505,389.192244 452.891,392.061244 450.158,396.228244 C448.633,398.551244 447.154,402.269244 447.154,403.778244 C447.154,404.131244 447.002,404.421244 446.815,404.421244 C446.628,404.421244 446.475,404.131244 446.475,403.778244 C446.475,402.269244 444.997,398.551244 443.472,396.228244 C440.739,392.061244 437.125,389.192244 432.472,387.492244 L430.005,386.590244 L417.185,386.483244 L404.366,386.375244 L404.366,387.989244 C404.366,395.651244 410.678,403.906244 418.568,406.563244 C419.925,407.020244 421.13,407.489244 421.247,407.606244 C421.363,407.722244 417.64,407.818244 412.974,407.818244 L404.489,407.818244 L404.114,405.014244 C403.908,403.472244 403.408,401.324244 403.002,400.240244 C401.912,397.325244 399.145,393.415244 396.773,391.437244 C393.307,388.547244 387.934,386.420244 384.097,386.420244 L382.971,386.420244 L382.977,398.223244 C382.984,411.534244 383.17,413.116244 385.223,417.328244 C386.863,420.692244 391.276,425.157244 394.517,426.732244 C398.186,428.515244 400.558,428.969244 405.215,428.782244 C410.112,428.586244 412.448,427.867244 416.074,425.441244 C421.452,421.843244 424.835,416.297244 425.32,410.280244 L425.519,407.818244 L434.554,407.836244 L443.589,407.854244 L441.042,408.621244 C435.83,410.192244 432.031,412.924244 429.224,417.122244 C427.152,420.221244 426.28,422.464244 425.756,426.044244 L425.358,428.768244 L422.615,429.188244 C419.055,429.733244 416.618,430.650244 413.802,432.505244 C409.489,435.346244 405.983,440.199244 404.905,444.825244 C404.633,445.992244 404.348,447.008244 404.272,447.084244 C404.197,447.160244 403.944,446.342244 403.71,445.266244 C402.89,441.502244 401.148,438.489244 397.95,435.311244 C393.964,431.347244 390.571,429.712244 384.924,429.033244 L382.971,428.798244 L382.971,440.743244 C382.971,454.076244 383.168,455.772244 385.186,459.784244 C388.073,465.527244 393.613,469.867244 399.614,471.089244 L401.819,471.538244 L399.611,472.008244 C393.884,473.228244 387.792,477.976244 385.227,483.220244 C383.17,487.426244 382.984,489.008244 382.977,502.326244 L382.971,514.129244 L384.097,514.129244 C387.934,514.129244 393.307,512.002244 396.773,509.111244 C399.145,507.133244 401.912,503.223244 403.002,500.308244 C403.408,499.225244 403.908,497.077244 404.114,495.535244 L404.489,492.731244 L412.974,492.731244 C417.64,492.731244 421.363,492.826244 421.247,492.943244 C421.13,493.059244 419.925,493.528244 418.568,493.985244 C410.678,496.643244 404.366,504.898244 404.366,512.559244 L404.366,514.173244 L417.185,514.065244 L430.005,513.958244 L432.512,513.043244 C436.95,511.423244 440.907,508.305244 443.419,504.449244 C444.852,502.249244 446.455,498.275244 446.468,496.891244 C446.482,495.445244 447.019,496.131244 447.43,498.118244 C448.568,503.629244 453.323,509.405244 458.957,512.122244 C462.7,513.927244 464.455,514.116244 477.463,514.123244 L489.264,514.129244 L489.259,512.515244 C489.235,504.829244 482.967,496.648244 475.061,493.985244 C473.705,493.528244 472.5,493.059244 472.383,492.943244 C472.266,492.826244 475.989,492.731244 480.656,492.731244 L489.141,492.731244 L489.516,495.535244 C490.002,499.168244 490.961,501.674244 493.074,504.835244 C496.566,510.056244 502.163,513.413244 508.366,514.007244 L510.659,514.226244 L510.653,502.375244 Z M452.122,492.059244 C457.265,490.710244 461.548,487.701244 464.406,483.427244 C466.482,480.323244 467.35,478.084244 467.877,474.480244 L468.279,471.731244 L470.366,471.500244 C478.837,470.561244 486.298,464.318244 488.629,456.218244 L489.216,454.180244 L489.24,462.926244 L489.264,471.672244 L487.638,471.672244 C486.743,471.672244 485.1,471.905244 483.987,472.189244 C475.599,474.331244 468.98,481.964244 468.31,490.268244 L468.111,492.731244 L458.906,492.712244 L449.701,492.693244 L452.122,492.059244 Z M425.32,490.268244 C424.833,484.232244 421.352,478.546244 415.994,475.038244 C413.123,473.158244 410.046,472.047244 406.826,471.729244 L404.535,471.502244 L404.462,462.841244 L404.39,454.180244 L405.176,456.598244 C406.723,461.356244 409.754,465.377244 413.799,468.041244 C416.61,469.893244 419.053,470.815244 422.578,471.355244 L425.285,471.769244 L425.834,474.994244 C427.254,483.345244 433.596,490.252244 441.63,492.200244 C443.468,492.645244 443.031,492.676244 434.554,492.703244 L425.519,492.731244 L425.32,490.268244 Z M446.193,466.253244 C444.778,459.398244 437.693,452.312244 430.839,450.896244 C429.727,450.666244 428.816,450.386244 428.816,450.274244 C428.816,450.162244 429.727,449.883244 430.839,449.653244 C437.693,448.237244 444.778,441.150244 446.193,434.296244 C446.423,433.183244 446.703,432.273244 446.815,432.273244 C446.927,432.273244 447.206,433.183244 447.436,434.296244 C448.852,441.150244 455.937,448.237244 462.791,449.653244 C463.903,449.883244 464.813,450.162244 464.813,450.274244 C464.813,450.386244 463.903,450.666244 462.791,450.896244 C455.937,452.312244 448.852,459.398244 447.436,466.253244 C447.206,467.366244 446.927,468.276244 446.815,468.276244 C446.703,468.276244 446.423,467.366244 446.193,466.253244 Z" id="Shape" fill="#FFFFFF"></path>
            <path d="M255.288,502.375244 C255.281,489.010244 255.096,487.435244 253.042,483.220244 C252.087,481.261244 251.125,480.005244 248.877,477.781244 C245.601,474.539244 243.094,473.096244 239.049,472.125244 L236.595,471.536244 L239.146,470.934244 C245.144,469.518244 250.235,465.427244 253.127,459.698244 C255.095,455.800244 255.294,454.055244 255.294,440.703244 L255.294,428.798244 L253.341,429.033244 C247.669,429.715244 244.286,431.348244 240.327,435.313244 C237.114,438.530244 235.642,441.035244 234.596,445.056244 C234.038,447.204244 233.971,447.307244 233.745,446.368244 C233.61,445.808244 233.206,444.432244 232.847,443.311244 C230.441,435.793244 223.136,429.950244 215.018,429.051244 L212.948,428.821244 L212.428,425.643244 C211.826,421.958244 210.6,419.119244 208.289,416.066244 C205.487,412.363244 201.048,409.416244 196.679,408.359244 C194.78,407.899244 195.143,407.873244 203.711,407.846244 L212.746,407.818244 L212.945,410.280244 C213.485,416.981244 217.997,423.533244 224.221,426.658244 C227.484,428.296244 230.042,428.876244 234.006,428.876244 C237.972,428.876244 240.665,428.258244 243.747,426.642244 C247.919,424.453244 251.101,421.230244 253.11,417.158244 C255.086,413.154244 255.281,411.462244 255.288,398.223244 L255.294,386.420244 L254.02,386.425244 C249.82,386.445244 244.097,388.912244 240.734,392.152244 C236.964,395.785244 234.827,399.961244 234.151,405.014244 L233.776,407.818244 L225.291,407.818244 C220.624,407.818244 216.901,407.722244 217.018,407.606244 C217.135,407.489244 218.34,407.020244 219.696,406.563244 C227.612,403.897244 233.871,395.720244 233.894,388.011244 L233.899,386.375244 L221.08,386.483244 L208.26,386.590244 L205.793,387.492244 C201.14,389.192244 197.526,392.061244 194.793,396.228244 C193.268,398.551244 191.79,402.269244 191.79,403.778244 C191.79,404.131244 191.637,404.421244 191.45,404.421244 C191.263,404.421244 191.11,404.131244 191.11,403.778244 C191.11,402.269244 189.632,398.551244 188.107,396.228244 C185.374,392.061244 181.76,389.192244 177.107,387.492244 L174.64,386.590244 L161.82,386.483244 L149.001,386.375244 L149.001,387.989244 C149.001,395.651244 155.313,403.906244 163.203,406.563244 C164.56,407.020244 165.765,407.489244 165.882,407.606244 C165.998,407.722244 162.275,407.818244 157.609,407.818244 L149.124,407.818244 L148.749,405.014244 C148.543,403.472244 148.043,401.324244 147.638,400.240244 C146.547,397.325244 143.78,393.415244 141.408,391.437244 C137.942,388.547244 132.569,386.420244 128.732,386.420244 L127.606,386.420244 L127.612,398.223244 C127.619,411.534244 127.805,413.116244 129.858,417.328244 C131.498,420.692244 135.911,425.157244 139.152,426.732244 C142.821,428.515244 145.193,428.969244 149.85,428.782244 C154.747,428.586244 157.083,427.867244 160.71,425.441244 C166.087,421.843244 169.47,416.297244 169.955,410.280244 L170.154,407.818244 L179.189,407.836244 L188.224,407.854244 L185.677,408.621244 C180.465,410.192244 176.666,412.924244 173.859,417.122244 C171.787,420.221244 170.915,422.464244 170.391,426.044244 L169.993,428.768244 L167.25,429.188244 C163.69,429.733244 161.253,430.650244 158.437,432.505244 C154.124,435.346244 150.618,440.199244 149.54,444.825244 C149.268,445.992244 148.983,447.008244 148.907,447.084244 C148.832,447.160244 148.579,446.342244 148.345,445.266244 C147.525,441.502244 145.783,438.489244 142.585,435.311244 C138.599,431.347244 135.206,429.712244 129.559,429.033244 L127.606,428.798244 L127.606,440.743244 C127.606,454.076244 127.804,455.772244 129.821,459.784244 C132.708,465.527244 138.248,469.867244 144.249,471.089244 L146.454,471.538244 L144.246,472.008244 C138.519,473.228244 132.427,477.976244 129.862,483.220244 C127.805,487.426244 127.619,489.008244 127.612,502.326244 L127.606,514.129244 L128.732,514.129244 C132.569,514.129244 137.942,512.002244 141.408,509.111244 C143.78,507.133244 146.547,503.223244 147.637,500.308244 C148.043,499.225244 148.543,497.077244 148.749,495.535244 L149.124,492.731244 L157.609,492.731244 C162.275,492.731244 165.998,492.826244 165.882,492.943244 C165.765,493.059244 164.56,493.528244 163.203,493.985244 C155.313,496.643244 149.001,504.898244 149.001,512.559244 L149.001,514.173244 L161.82,514.065244 L174.64,513.958244 L177.147,513.043244 C181.585,511.423244 185.542,508.305244 188.054,504.449244 C189.487,502.249244 191.09,498.275244 191.103,496.891244 C191.117,495.445244 191.654,496.131244 192.065,498.118244 C193.203,503.629244 197.958,509.405244 203.592,512.122244 C207.335,513.927244 209.09,514.116244 222.098,514.123244 L233.899,514.129244 L233.894,512.515244 C233.87,504.829244 227.602,496.648244 219.696,493.985244 C218.34,493.528244 217.135,493.059244 217.018,492.943244 C216.901,492.826244 220.624,492.731244 225.291,492.731244 L233.776,492.731244 L234.151,495.535244 C234.637,499.168244 235.596,501.674244 237.709,504.835244 C241.201,510.056244 246.798,513.413244 253.001,514.007244 L255.294,514.226244 L255.288,502.375244 Z M196.757,492.059244 C201.9,490.710244 206.183,487.701244 209.041,483.427244 C211.117,480.323244 211.985,478.084244 212.512,474.480244 L212.914,471.731244 L215.001,471.500244 C223.472,470.561244 230.933,464.318244 233.264,456.218244 L233.851,454.180244 L233.875,462.926244 L233.899,471.672244 L232.273,471.672244 C231.378,471.672244 229.735,471.905244 228.622,472.189244 C220.234,474.331244 213.615,481.964244 212.945,490.268244 L212.746,492.731244 L203.541,492.712244 L194.336,492.693244 L196.757,492.059244 Z M169.955,490.268244 C169.468,484.232244 165.987,478.546244 160.629,475.038244 C157.758,473.158244 154.681,472.047244 151.461,471.729244 L149.17,471.502244 L149.097,462.841244 L149.025,454.180244 L149.811,456.598244 C151.358,461.356244 154.389,465.377244 158.434,468.041244 C161.245,469.893244 163.688,470.815244 167.213,471.355244 L169.92,471.769244 L170.469,474.994244 C171.889,483.345244 178.231,490.252244 186.265,492.200244 C188.103,492.645244 187.666,492.676244 179.189,492.703244 L170.154,492.731244 L169.955,490.268244 Z M190.828,466.253244 C189.413,459.398244 182.328,452.312244 175.474,450.896244 C174.362,450.666244 173.451,450.386244 173.451,450.274244 C173.451,450.162244 174.362,449.883244 175.474,449.653244 C182.328,448.237244 189.413,441.150244 190.828,434.296244 C191.058,433.183244 191.338,432.273244 191.45,432.273244 C191.562,432.273244 191.841,433.183244 192.071,434.296244 C193.487,441.150244 200.572,448.237244 207.426,449.653244 C208.538,449.883244 209.448,450.162244 209.448,450.274244 C209.448,450.386244 208.538,450.666244 207.426,450.896244 C200.572,452.312244 193.487,459.398244 192.071,466.253244 C191.841,467.366244 191.562,468.276244 191.45,468.276244 C191.338,468.276244 191.058,467.366244 190.828,466.253244 Z" id="Shape" fill="#FFFFFF"></path>
            <g id="Clipped" transform="translate(0.0771, 0)">
                <mask id="mask-2" fill="white">
                    <use xlink:href="#path-1"></use>
                </mask>
                <g id="Rectangle"></g>
                <g id="Group" mask="url(#mask-2)" fill="#FFFFFF">
                    <g transform="translate(-62.6219, 0)" id="Shape">
                        <path d="M382.379848,14.6555441 L253.144848,14.6555441 C156.015848,14.6555441 77.2774478,93.3939441 77.2774478,190.522244 L77.2774478,381.045244 L558.246848,381.045244 L558.246848,190.522244 C558.246848,93.3939441 479.508848,14.6555441 382.379848,14.6555441 Z M253.144848,0 C147.921748,0 62.6219478,85.2998441 62.6219478,190.522244 L62.6219478,381.045244 L572.902848,381.045244 L572.902848,190.522244 C572.902848,85.2998441 487.602848,0 382.379848,0 L253.144848,0 Z"></path>
                        <path d="M183.634848,1.33232414 C118.270448,1.33232414 65.2824478,54.3203441 65.2824478,119.684244 L65.2824478,253.998244 C55.1150278,249.998244 53.0614278,250.173244 52.0927428,252.697244 C51.6371308,253.882244 51.5940128,255.712244 51.9978828,256.761244 C52.3543358,257.691244 58.0200978,260.482244 65.2824478,263.635244 L65.2824478,361.346244 C28.5454478,361.545244 2.27564781,361.983244 1.48684781,362.483244 C0.420447806,363.159244 -0.217652194,364.928244 0.0683478062,366.414244 C0.492347806,368.615244 3.09484781,369.035244 65.2824478,369.325244 L65.2824478,381.045244 L575.562848,381.045244 L575.562848,369.317244 C631.988848,369.025244 634.441848,368.591244 634.861848,366.414244 C635.147848,364.928244 634.509848,363.159244 633.443848,362.483244 C632.670848,361.993244 608.957848,361.563244 575.562848,361.359244 L575.562848,337.113244 C589.177848,335.250244 600.351848,333.294244 601.015848,332.629244 C603.449848,330.196244 601.436848,326.006244 597.717848,325.761244 C595.799848,325.633244 585.936848,326.672244 575.562848,328.086244 L575.562848,266.199244 C604.171848,254.209244 625.460848,244.963244 626.351848,244.079244 C628.017848,242.426244 628.050848,241.660244 626.535848,239.833244 C623.945848,236.714244 621.755848,237.121244 607.072848,243.452244 C603.657848,244.924244 591.914848,249.840244 575.562848,256.649244 L575.562848,225.375244 C582.363848,221.086244 583.747848,219.137244 582.923848,216.989244 C582.049848,214.710244 579.955848,214.230244 575.562848,215.862244 L575.562848,120.099244 C575.562848,54.5062441 522.389848,1.33232414 456.795848,1.33232414 L183.634848,1.33232414 Z M575.562848,215.862244 C572.241848,217.096244 567.605848,219.538244 561.189848,223.324244 C544.688848,233.060244 542.673848,234.782244 543.933848,238.068244 C545.378848,241.832244 548.136848,241.049244 563.187848,232.602244 C568.539848,229.598244 572.574848,227.260244 575.562848,225.375244 L575.562848,215.862244 Z M575.562848,256.649244 C557.843848,264.029244 534.711848,273.634244 510.902848,283.492244 C465.124848,302.447244 427.186848,318.737244 426.597848,319.691244 C425.282848,321.820244 426.312848,324.825244 428.671848,325.729244 C429.634848,326.098244 441.711848,321.707244 455.507848,315.970244 C469.305848,310.234244 512.931848,292.164244 552.456848,275.818244 C560.490848,272.495244 568.264848,269.258244 575.562848,266.199244 L575.562848,256.649244 Z M575.562848,328.086244 C575.286848,328.124244 575.010848,328.162244 574.734848,328.200244 C564.062848,329.670244 552.639848,331.264244 549.350848,331.738244 C542.887848,332.672244 540.275848,335.993244 543.482848,339.199244 C545.073848,340.789244 549.957848,340.507244 572.556848,337.518244 C573.569848,337.384244 574.572848,337.249244 575.562848,337.113244 L575.562848,328.086244 Z M575.562848,361.359244 C562.917848,361.281244 548.883848,361.236244 534.181848,361.233244 C441.843848,361.213244 436.787848,361.343244 435.470848,363.804244 L435.410848,363.916244 L435.410848,363.916244 L435.410848,363.917244 C434.848848,364.966244 434.385848,365.831244 434.557848,366.540244 C435.363848,369.858244 450.049848,369.803244 533.352848,369.493244 L535.281848,369.485244 C551.094848,369.427244 564.387848,369.374244 575.562848,369.317244 L575.562848,361.359244 Z M65.2824478,369.325244 C76.8667478,369.379244 90.5187478,369.428244 106.609348,369.484244 C200.342848,369.810244 212.724848,369.600244 213.466848,367.670244 C213.926848,366.469244 213.505848,364.524244 212.529848,363.348244 C210.989848,361.493244 197.107848,361.214244 107.090848,361.233244 C92.3007478,361.236244 78.1495478,361.276244 65.2824478,361.346244 L65.2824478,369.325244 Z M65.2824478,263.635244 C78.3421478,269.307244 96.5648478,276.154244 98.3594478,275.465244 C99.6300478,274.977244 100.403248,273.307244 100.156048,271.588244 C99.8096478,269.186244 95.4433478,266.739244 78.8803478,259.657244 C73.2057478,257.231244 68.7674478,255.370244 65.2824478,253.998244 L65.2824478,263.635244 Z M320.174848,253.197244 C318.703848,250.877244 318.455848,30.1271441 319.921848,28.6597441 C320.481848,28.1006441 322.259848,27.8304441 323.873848,28.0618441 C326.798848,28.4800441 326.807848,28.8192441 326.807848,141.287244 C326.807848,250.555244 326.722848,254.111244 324.104848,254.615244 C322.618848,254.901244 320.849848,254.263244 320.174848,253.197244 Z M236.093848,56.7254441 C230.812848,36.9413441 230.286848,32.6424441 233.025848,31.6880441 C237.901848,29.9877441 238.379848,30.9794441 245.590848,57.7516441 C250.051848,74.3162441 249.905848,78.0675441 244.792848,78.0675441 C241.992848,78.0675441 241.396848,76.6044441 236.093848,56.7254441 Z M400.860848,59.9348441 C403.378848,50.5408441 405.732848,42.3699441 406.091848,41.7763441 C407.217848,39.9164441 412.377848,40.6035441 413.190848,42.7206441 C413.617848,43.8330441 411.907848,52.5228441 409.391848,62.0318441 C404.733848,79.6356441 402.431848,83.1641441 398.299848,79.0305441 C396.567848,77.3000441 396.930848,74.5922441 400.860848,59.9348441 Z M422.384848,118.134244 C422.384848,115.301244 437.639848,77.3101441 440.060848,74.1150441 C441.928848,71.6487441 446.332848,71.8542441 447.329848,74.4542441 C448.311848,77.0126441 431.528848,118.298244 428.518848,120.727244 C425.732848,122.978244 422.384848,121.562244 422.384848,118.134244 Z M215.153848,116.155244 C201.904848,84.6934441 199.816848,78.3406441 202.005848,76.1516441 C203.521848,74.6353441 206.313848,75.0320441 207.901848,76.9896441 C210.943848,80.7394441 237.100848,146.102244 236.345848,148.070244 C235.896848,149.240244 234.152848,149.934244 232.313848,149.673244 C229.556848,149.282244 227.000848,144.293244 215.153848,116.155244 Z M452.557848,133.403244 C468.527848,105.735244 482.584848,81.9870441 483.791848,80.6288441 C485.450848,78.7632441 486.643848,78.5117441 488.679848,79.6011441 C490.161848,80.3945441 491.373848,81.6895441 491.373848,82.4814441 C491.373848,85.0814441 384.343848,269.540244 382.388848,270.308244 C381.339848,270.719244 379.502848,270.078244 378.306848,268.882244 C378.188848,268.764244 378.073848,268.655244 377.963848,268.552244 L377.962848,268.551244 C377.682848,268.287244 377.436848,268.056244 377.263848,267.779244 C376.028848,265.801244 378.518848,261.497244 398.810848,226.426244 L398.834848,226.384244 C399.942848,224.468244 401.104848,222.461244 402.320848,220.358244 C413.978848,200.200244 436.584848,161.070244 452.557848,133.403244 Z M306.192848,255.022244 C303.553848,253.349244 281.250848,85.3301441 283.322848,82.7387441 C285.547848,79.9561441 288.642848,80.6101441 290.129848,84.1760441 C290.871848,85.9539441 296.314848,124.582244 302.224848,170.016244 C313.548848,257.067244 313.674848,259.764244 306.192848,255.022244 Z M351.303848,120.707244 C354.022848,100.286244 356.614848,82.9859441 357.062848,82.2601441 C358.159848,80.4850441 363.064848,80.5828441 364.188848,82.4009441 C365.571848,84.6373441 343.204848,252.421244 341.241848,254.546244 C338.673848,257.329244 334.711848,255.094244 334.711848,250.863244 C334.711848,247.333244 340.745848,199.999244 351.303848,120.707244 Z M211.790848,181.323244 C172.939848,114.064244 162.808848,95.5017441 163.870848,93.5183441 C165.446848,90.5762441 168.467848,90.2485441 170.522848,92.7996441 C173.141848,96.0493441 269.006848,262.569244 269.627848,264.947244 C269.962848,266.224244 269.187848,268.140244 267.906848,269.202244 C265.942848,270.834244 265.226848,270.782244 263.319848,268.873244 C262.074848,267.630244 238.887848,228.233244 211.790848,181.323244 Z M290.832848,257.421244 C288.479848,254.844244 252.743848,120.102244 253.729848,117.529244 C254.962848,114.315244 259.871848,115.047244 261.401848,118.670244 C262.567848,121.429244 270.772848,151.686244 292.912848,234.850244 C295.348848,244.005244 297.343848,252.830244 297.343848,254.459244 C297.343848,258.063244 293.157848,259.968244 290.832848,257.421244 Z M356.069848,227.280244 C376.001848,152.610244 385.084848,118.870244 385.694848,117.233244 C386.650848,114.666244 392.128848,115.010244 393.160848,117.702244 C393.639848,118.948244 392.673848,124.930244 391.015848,130.997244 C389.356848,137.063244 381.156848,167.574244 372.796848,198.799244 C364.434848,230.024244 356.648848,256.518244 355.494848,257.675244 C353.652848,259.524244 353.107848,259.491244 351.027848,257.412244 C348.827848,255.212244 349.186848,253.066244 356.069848,227.280244 Z M461.512848,181.468244 C461.150848,179.564244 479.596848,154.167244 496.685848,133.043244 C499.403848,129.683244 502.807848,126.935244 504.250848,126.935244 C507.267848,126.935244 509.252848,130.838244 507.451848,133.226244 C476.862848,173.764244 467.868848,184.557244 465.013848,184.147244 C463.322848,183.906244 461.746848,182.700244 461.512848,181.468244 Z M401.544848,284.634244 C401.544848,283.227244 433.553848,250.107244 474.125848,209.535244 C515.715848,167.946244 547.627848,137.122244 548.863848,137.347999 C556.005848,138.657244 551.288848,143.987244 479.402848,215.832244 C407.621848,287.572437 401.544848,292.942244 401.544848,284.634244 Z M114.811848,162.092244 C114.811848,161.253244 115.587948,159.791244 116.536548,158.842244 C117.485148,157.894244 118.946748,157.118244 119.786148,157.118244 C120.624048,157.118244 132.524548,168.346244 146.231748,182.070244 C163.967848,199.828244 171.002848,207.800244 170.633848,209.721244 C169.302848,216.628244 164.780848,213.525244 139.764048,188.538244 C126.039648,174.831244 114.811848,162.930244 114.811848,162.092244 Z M363.773848,260.467244 C363.390848,258.479244 397.676848,173.261244 403.185848,162.507244 C405.400848,158.186244 410.070848,157.228244 411.445848,160.813244 C411.937848,162.093244 403.348848,184.654244 391.610848,212.914244 C372.795848,258.216244 370.603848,262.758244 367.561848,262.758244 C365.641848,262.758244 364.027848,261.780244 363.773848,260.467244 Z M170.864848,171.539244 C170.864848,170.063244 171.673848,168.530244 172.661848,168.130244 C173.649848,167.732244 174.911848,167.354244 175.466848,167.291905 C177.412848,167.074244 257.100848,271.952244 257.100848,274.731244 C257.100848,278.616244 253.493848,279.634244 250.123848,276.699244 C244.437848,271.746244 170.864848,174.131244 170.864848,171.539244 Z M86.2908478,188.539244 C86.0177478,187.806244 86.1600478,186.257244 86.6041478,185.097244 C88.1377478,181.100244 92.4739478,183.022244 106.855148,194.071244 C114.788848,200.168244 146.503348,224.483244 177.332848,248.106244 C208.161848,271.729244 234.149848,292.029244 235.082848,293.216244 C237.339848,296.087244 235.920848,299.408244 232.438848,299.408244 C229.783848,299.408244 87.3299478,191.342244 86.2908478,188.539244 Z M276.537848,261.876244 C273.410848,258.595244 247.086848,193.160244 247.969848,190.861244 C249.126848,187.845244 253.853848,188.230244 255.593848,191.483244 C259.734848,199.221244 282.970848,256.708244 282.970848,259.216244 C282.970848,262.887244 279.046848,264.510244 276.537848,261.876244 Z M411.253848,295.815244 C410.978848,293.570244 423.259848,283.440244 467.306848,249.585244 C498.583848,225.544244 525.084848,206.175244 526.791848,206.107244 C530.501848,205.961244 532.451848,210.088244 529.872848,212.631244 C528.855848,213.633244 503.122848,233.587244 472.688848,256.972244 C417.489848,299.388244 412.106848,302.790244 411.253848,295.815244 Z M390.158848,272.442244 C390.887848,270.982244 401.508848,256.735244 413.761848,240.784244 C430.387848,219.140244 436.820848,211.777244 439.118848,211.758834 C445.083848,211.711244 443.993848,215.865244 434.880848,227.905244 C412.556848,257.396244 397.959848,276.052244 395.819848,277.829244 C392.552848,280.540244 388.189848,276.387244 390.158848,272.442244 Z M98.4112478,239.577244 C98.0131478,238.538244 98.6742478,236.701244 99.8815478,235.494244 C101.632148,233.743244 102.710048,233.634244 105.209448,234.951244 C118.269848,241.832244 223.869848,303.221244 225.895848,305.108244 C229.314848,308.296244 227.672848,312.824244 223.393848,312.004244 C218.887848,311.143244 99.2750478,241.826244 98.4112478,239.577244 Z M221.548848,270.325244 C205.364848,254.178244 202.234848,249.834244 204.880848,247.188244 C207.497848,244.569244 211.757848,247.636244 227.975848,263.814244 C240.154848,275.966244 245.601848,282.405244 245.601848,284.654244 C245.601848,291.918244 239.622848,288.355244 221.548848,270.325244 Z M420.228848,308.250244 C420.228848,305.391244 426.081848,301.544244 461.184848,281.320244 C483.711848,268.341244 502.744848,257.924244 503.481848,258.170244 C505.982848,259.003244 507.915848,263.321244 506.432848,264.758244 C502.659848,268.413244 424.580848,312.424244 422.558848,312.035244 C421.209848,311.774244 420.228848,310.183244 420.228848,308.250244 Z M125.106848,285.926244 C124.822348,284.440244 125.461848,282.677244 126.528348,282.007244 C126.616448,281.952244 126.698148,281.897244 126.775948,281.844244 L126.868348,281.781244 C127.020048,281.676244 127.159748,281.580244 127.307948,281.500244 C129.048848,280.556244 131.956148,281.762244 169.012848,297.138244 C171.214848,298.052244 173.536848,299.016244 175.986848,300.032244 C199.651848,309.847244 219.647848,318.885244 220.425848,320.115244 C221.424848,321.696244 221.213848,322.969244 219.706848,324.463244 C217.364848,326.785244 216.026848,326.297244 154.351848,300.598244 C132.968648,291.689244 125.492048,287.937244 125.106848,285.926244 Z M75.6465478,303.517244 C72.7461478,301.977244 72.2761478,297.111244 74.9279478,296.062244 C75.9167478,295.671244 77.6946478,295.591244 78.8803478,295.882244 C87.2193478,297.936244 207.008848,330.013244 210.621848,331.162244 C215.991848,332.866244 217.561848,335.868244 214.620848,338.808244 C212.789848,340.639244 211.594848,340.658244 205.697848,338.943244 C198.834848,336.948244 125.321048,317.250244 94.6901478,309.199244 C85.5995478,306.809244 77.0306478,304.253244 75.6465478,303.517244 Z M492.810848,315.909244 C518.501848,309.045244 545.988848,301.604244 553.893848,299.376244 C561.798848,297.149244 569.052848,295.273244 570.012848,295.211244 C572.374848,295.056244 574.795848,299.857244 573.453848,302.030244 C571.757848,304.772244 434.969848,341.010244 432.804848,339.291244 C431.817848,338.505244 431.008848,336.694244 431.008848,335.267244 C431.008848,335.112244 430.998848,334.968244 430.989848,334.832244 C430.974809,334.608244 430.962848,334.406244 430.993848,334.212244 C431.299848,332.339244 435.769848,331.145244 483.245848,318.465244 L483.246848,318.464244 L483.634848,318.361244 L488.608848,317.032244 C489.976848,316.667244 491.376848,316.293244 492.810848,315.909244 Z M94.1943478,337.949244 C93.1350478,336.269244 93.2012478,334.978244 94.4228478,333.506244 C95.3700478,332.365244 97.5963478,331.664244 99.3698478,331.947244 C101.143448,332.231244 125.231948,335.379244 152.898848,338.942244 C180.566848,342.505244 205.242848,345.756244 207.734848,346.169244 C212.871848,347.017244 214.588848,349.780244 212.086848,353.172244 C210.545848,355.262244 205.105848,354.776244 153.038848,347.896244 C106.938548,341.803244 95.3958478,339.853244 94.1943478,337.949244 Z M435.551848,347.413244 C436.469848,346.845244 455.065848,344.014244 476.872848,341.121244 C501.385848,337.870244 517.485848,336.329244 519.040848,337.088244 C522.548848,338.801244 522.177848,342.330244 518.321848,343.929244 C514.018848,345.714244 436.816848,355.667244 435.169848,354.650244 C433.323848,353.510244 433.582848,348.631244 435.551848,347.413244 Z M289.484848,298.575244 C289.412848,298.406244 289.171848,298.406244 289.098848,298.575244 L285.650848,306.634244 C285.084848,307.957244 284.024848,309.011244 282.693848,309.574244 L274.586848,313.002244 C274.416848,313.074244 274.416848,313.314244 274.586848,313.385244 L282.693848,316.813244 C284.024848,317.376244 285.084848,318.430244 285.650848,319.753244 L289.098848,327.812244 C289.171848,327.982244 289.412848,327.982244 289.484848,327.812244 L292.932848,319.753244 C293.498848,318.430244 294.559848,317.376244 295.890848,316.813244 L303.997848,313.385244 C304.167848,313.314244 304.167848,313.074244 303.997848,313.002244 L295.890848,309.574244 C294.559848,309.011244 293.498848,307.957244 292.932848,306.634244 L289.484848,298.575244 Z M352.113848,298.565244 C352.184848,298.400244 352.419848,298.400244 352.490848,298.565244 L355.962848,306.679244 C356.516848,307.974244 357.552848,309.004244 358.854848,309.555244 L367.017848,313.006244 C367.183848,313.076244 367.183848,313.311244 367.017848,313.381244 L358.854848,316.832244 C357.552848,317.383244 356.516848,318.414244 355.962848,319.708244 L352.490848,327.822244 C352.419848,327.988244 352.184848,327.988244 352.113848,327.822244 L348.641848,319.708244 C348.087848,318.414244 347.051848,317.383244 345.749848,316.832244 L337.586848,313.381244 C337.420848,313.311244 337.420848,313.076244 337.586848,313.006244 L345.749848,309.555244 C347.051848,309.004244 348.087848,307.974244 348.641848,306.679244 L352.113848,298.565244 Z M312.392848,330.088244 C312.392848,328.730244 311.284848,327.629244 309.918848,327.629244 C308.552848,327.629244 307.444848,328.730244 307.444848,330.088244 C307.444848,337.024244 313.244848,342.386244 320.639848,342.386244 C328.034848,342.386244 333.834848,337.024244 333.834848,330.088244 C333.834848,328.730244 332.726848,327.629244 331.360848,327.629244 C329.994848,327.629244 328.886848,328.730244 328.886848,330.088244 C328.886848,334.019244 325.601848,337.467244 320.639848,337.467244 C315.677848,337.467244 312.392848,334.019244 312.392848,330.088244 Z"></path>
                    </g>
                </g>
            </g>
        </g>
    </g>
</svg>