<svg width="532" height="1159" viewBox="0 0 532 1159" fill="none" xmlns="http://www.w3.org/2000/svg">
<path fill-rule="evenodd" clip-rule="evenodd" d="M520.901 746.15C520.887 719.429 520.518 716.28 516.409 707.854C514.499 703.937 512.575 701.425 508.08 696.978C501.527 690.496 496.513 687.611 488.424 685.67L483.516 684.492L488.617 683.289C500.614 680.458 510.796 672.278 516.579 660.824C520.515 653.03 520.913 649.54 520.913 622.845L520.913 599.044L517.007 599.513C505.664 600.877 498.897 604.142 490.979 612.07C484.554 618.501 481.609 623.509 479.517 631.549C478.401 635.844 478.267 636.05 477.815 634.173C477.545 633.052 476.738 630.302 476.02 628.061C471.207 613.029 456.597 601.346 440.362 599.549L436.221 599.09L435.182 592.736C433.978 585.367 431.525 579.692 426.903 573.587C421.3 566.185 412.422 560.293 403.684 558.179C399.885 557.259 400.612 557.206 417.748 557.153L435.818 557.096L436.215 562.02C437.296 575.417 446.319 588.518 458.767 594.765C465.294 598.041 470.41 599.2 478.338 599.2C486.269 599.2 491.656 597.964 497.82 594.732C506.163 590.357 512.527 583.913 516.546 575.771C520.498 567.765 520.887 564.382 520.901 537.912L520.913 514.314L518.366 514.325C509.965 514.365 498.519 519.297 491.793 525.776C484.254 533.038 479.979 541.388 478.627 551.49L477.877 557.096L460.907 557.096C451.574 557.096 444.128 556.906 444.361 556.673C444.595 556.44 447.005 555.502 449.718 554.588C465.55 549.258 478.067 532.908 478.114 517.495L478.124 514.226L452.484 514.441L426.845 514.655L421.911 516.457C412.604 519.856 405.377 525.594 399.91 533.924C396.861 538.57 393.904 546.001 393.904 549.019C393.904 549.726 393.599 550.305 393.225 550.305C392.852 550.305 392.546 549.726 392.546 549.019C392.546 546.001 389.59 538.57 386.54 533.924C381.073 525.594 373.846 519.856 364.539 516.457L359.605 514.655L333.966 514.441L308.327 514.226L308.327 517.452C308.327 532.77 320.951 549.275 336.732 554.588C339.445 555.502 341.855 556.44 342.089 556.673C342.322 556.906 334.876 557.096 325.543 557.096L308.574 557.096L307.823 551.49C307.411 548.407 306.411 544.112 305.6 541.947C303.419 536.118 297.885 528.3 293.141 524.345C286.21 518.566 275.463 514.314 267.79 514.314L265.538 514.314L265.549 537.912C265.563 564.526 265.935 567.69 270.041 576.111C273.322 582.837 282.147 591.764 288.63 594.913C295.968 598.477 300.712 599.386 310.025 599.012C319.819 598.619 324.491 597.182 331.744 592.331C342.499 585.139 349.265 574.049 350.235 562.02L350.633 557.096L368.702 557.133L386.773 557.169L381.679 558.703C371.255 561.842 363.657 567.306 358.043 575.699C353.899 581.895 352.155 586.38 351.108 593.538L350.311 598.984L344.825 599.824C337.706 600.913 332.831 602.747 327.199 606.456C318.573 612.134 311.562 621.838 309.405 631.086C308.861 633.42 308.291 635.453 308.14 635.604C307.989 635.755 307.482 634.12 307.014 631.97C305.376 624.443 301.891 618.419 295.496 612.064C287.523 604.141 280.737 600.872 269.443 599.513L265.538 599.044L265.538 622.925C265.538 649.583 265.932 652.975 269.967 660.997C275.741 672.477 286.821 681.156 298.823 683.599L303.233 684.496L298.818 685.436C287.364 687.875 275.18 697.369 270.05 707.854C265.936 716.262 265.563 719.425 265.549 746.052L265.538 769.651L267.79 769.651C275.463 769.651 286.21 765.398 293.141 759.619C297.885 755.664 303.419 747.846 305.6 742.018C306.411 739.852 307.411 735.558 307.823 732.474L308.574 726.868L325.543 726.868C334.876 726.868 342.322 727.059 342.089 727.292C341.855 727.525 339.445 728.463 336.732 729.376C320.951 734.69 308.327 751.194 308.327 766.513L308.327 769.739L333.966 769.524L359.605 769.309L364.618 767.48C373.495 764.24 381.409 758.007 386.433 750.297C389.299 745.899 392.506 737.954 392.532 735.187C392.559 732.295 393.634 733.666 394.455 737.639C396.731 748.657 406.24 760.207 417.509 765.638C424.996 769.247 428.505 769.625 454.522 769.639L478.124 769.651L478.114 766.425C478.066 751.057 465.529 734.699 449.718 729.376C447.005 728.463 444.595 727.525 444.361 727.292C444.128 727.059 451.574 726.868 460.907 726.868L477.877 726.868L478.627 732.474C479.599 739.738 481.518 744.75 485.744 751.069C492.728 761.508 503.921 768.22 516.328 769.407L520.913 769.846L520.901 746.15ZM403.839 725.524C414.126 722.828 422.691 716.811 428.407 708.266C432.559 702.06 434.296 697.585 435.35 690.377L436.153 684.882L440.328 684.42C457.269 682.543 472.192 670.06 476.854 653.866L478.027 649.792L478.076 667.278L478.124 684.765L474.87 684.765C473.081 684.765 469.796 685.23 467.569 685.798C450.793 690.081 437.555 705.342 436.215 721.945L435.818 726.868L417.408 726.831L398.998 726.793L403.839 725.524ZM350.235 721.945C349.261 709.875 342.299 698.508 331.584 691.494C325.842 687.735 319.688 685.514 313.247 684.878L308.666 684.425L308.52 667.108L308.375 649.792L309.947 654.625C313.042 664.138 319.103 672.179 327.193 677.505C332.815 681.207 337.702 683.051 344.752 684.13L350.166 684.958L351.263 691.407C354.104 708.104 366.787 721.913 382.856 725.806C386.531 726.696 385.657 726.759 368.702 726.812L350.633 726.868L350.235 721.945ZM391.982 673.929C389.151 660.224 374.981 646.056 361.273 643.225C359.048 642.765 357.228 642.206 357.228 641.982C357.228 641.758 359.048 641.199 361.273 640.74C374.981 637.908 389.151 623.741 391.982 610.035C392.442 607.811 393.001 605.991 393.225 605.991C393.449 605.991 394.008 607.811 394.468 610.035C397.3 623.741 411.47 637.908 425.177 640.74C427.402 641.199 429.222 641.758 429.222 641.982C429.222 642.206 427.402 642.765 425.177 643.225C411.47 646.056 397.3 660.224 394.468 673.929C394.008 676.154 393.449 677.974 393.225 677.974C393.001 677.974 392.442 676.154 391.982 673.929Z" fill="white"/>
<path fill-rule="evenodd" clip-rule="evenodd" d="M265.536 746.15C265.522 719.429 265.153 716.28 261.045 707.854C259.136 703.937 257.213 701.425 252.719 696.978C246.168 690.496 241.156 687.611 233.069 685.67L228.163 684.492L233.262 683.289C245.255 680.458 255.434 672.278 261.216 660.824C265.15 653.03 265.548 649.54 265.548 622.845L265.548 599.044L261.644 599.513C250.304 600.877 243.539 604.142 235.623 612.07C229.201 618.501 226.256 623.509 224.166 631.549C223.049 635.844 222.916 636.05 222.464 634.173C222.194 633.052 221.387 630.302 220.67 628.061C215.858 613.029 201.252 601.346 185.023 599.549L180.883 599.09L179.844 592.736C178.641 585.367 176.188 579.692 171.569 573.587C165.967 566.185 157.091 560.293 148.357 558.179C144.558 557.259 145.286 557.206 162.416 557.153L180.48 557.096L180.877 562.02C181.958 575.417 190.978 588.518 203.422 594.765C209.947 598.041 215.061 599.2 222.987 599.2C230.915 599.2 236.3 597.964 242.463 594.732C250.802 590.357 257.165 583.913 261.183 575.771C265.133 567.765 265.523 564.382 265.536 537.912L265.548 514.314L263.001 514.325C254.604 514.365 243.161 519.297 236.437 525.776C228.901 533.038 224.627 541.388 223.276 551.49L222.525 557.096L205.561 557.096C196.231 557.096 188.788 556.906 189.021 556.673C189.254 556.44 191.664 555.502 194.376 554.588C210.203 549.258 222.715 532.908 222.762 517.495L222.772 514.226L197.141 514.441L171.51 514.655L166.578 516.457C157.274 519.856 150.049 525.594 144.584 533.924C141.536 538.57 138.58 546.001 138.58 549.019C138.58 549.726 138.274 550.305 137.901 550.305C137.528 550.305 137.222 549.726 137.222 549.019C137.222 546.001 134.267 538.57 131.218 533.924C125.753 525.594 118.528 519.856 109.224 516.457L104.292 514.655L78.6608 514.441L53.0297 514.226L53.0297 517.452C53.0297 532.77 65.6497 549.275 81.4263 554.588C84.1381 555.502 86.5477 556.44 86.7813 556.673C87.0142 556.906 79.5706 557.096 70.2409 557.096L53.2768 557.096L52.5265 551.49C52.1144 548.407 51.1143 544.112 50.3042 541.947C48.1234 536.118 42.5918 528.3 37.8492 524.345C30.9203 518.566 20.1763 514.314 12.5059 514.314L10.2545 514.314L10.266 537.912C10.2796 564.526 10.6517 567.69 14.7567 576.111C18.0362 582.837 26.8587 591.764 33.3395 594.913C40.6751 598.477 45.417 599.386 54.7271 599.012C64.5178 598.619 69.1892 597.182 76.4399 592.331C87.1914 585.139 93.9546 574.049 94.9249 562.02L95.3221 557.096L113.386 557.133L131.451 557.169L126.359 558.703C115.938 561.842 108.343 567.306 102.73 575.699C98.5873 581.895 96.8437 586.38 95.7974 593.538L95.0009 598.984L89.5162 599.824C82.3992 600.913 77.5263 602.747 71.8956 606.456C63.2726 612.134 56.2643 621.838 54.1079 631.086C53.5633 633.42 52.9943 635.453 52.8429 635.604C52.6922 635.755 52.1857 634.12 51.7179 631.97C50.0802 624.443 46.5957 618.419 40.2032 612.064C32.2328 604.141 25.4485 600.872 14.1586 599.513L10.2545 599.044L10.2545 622.925C10.2545 649.583 10.6489 652.975 14.682 660.997C20.454 672.477 31.5307 681.156 43.5295 683.599L47.9374 684.496L43.524 685.436C32.0739 687.875 19.8938 697.369 14.7649 707.854C10.6523 716.262 10.2796 719.425 10.266 746.052L10.2544 769.651L12.5059 769.651C20.1763 769.651 30.9203 765.398 37.8492 759.619C42.5918 755.664 48.1234 747.846 50.3042 742.018C51.1142 739.852 52.1144 735.558 52.5265 732.474L53.2768 726.868L70.2409 726.868C79.5706 726.868 87.0142 727.059 86.7813 727.292C86.5477 727.525 84.138 728.463 81.4262 729.376C65.6497 734.69 53.0296 751.194 53.0296 766.513L53.0296 769.739L78.6608 769.524L104.292 769.309L109.303 767.48C118.178 764.24 126.089 758.007 131.111 750.297C133.976 745.899 137.182 737.954 137.208 735.187C137.235 732.295 138.31 733.666 139.131 737.639C141.406 748.657 150.912 760.207 162.177 765.638C169.661 769.247 173.17 769.625 199.178 769.639L222.772 769.651L222.762 766.425C222.715 751.057 210.182 734.699 194.376 729.376C191.664 728.463 189.254 727.525 189.021 727.292C188.788 727.059 196.231 726.868 205.561 726.868L222.525 726.868L223.276 732.474C224.247 739.738 226.165 744.75 230.39 751.069C237.372 761.508 248.561 768.22 260.965 769.407L265.548 769.846L265.536 746.15ZM148.511 725.524C158.795 722.828 167.358 716.811 173.072 708.266C177.222 702.06 178.958 697.585 180.012 690.377L180.815 684.882L184.989 684.42C201.925 682.543 216.842 670.06 221.503 653.866L222.676 649.792L222.724 667.278L222.772 684.765L219.52 684.765C217.732 684.765 214.447 685.23 212.221 685.798C195.451 690.081 182.217 705.342 180.877 721.945L180.48 726.868L162.076 726.831L143.672 726.793L148.511 725.524ZM94.9249 721.945C93.9512 709.875 86.9911 698.508 76.2797 691.494C70.5389 687.735 64.3875 685.514 57.9488 684.878L53.3691 684.425L53.2232 667.108L53.0779 649.792L54.6497 654.625C57.7437 664.138 63.8022 672.179 71.8901 677.505C77.5106 681.207 82.3958 683.051 89.4435 684.13L94.8556 684.958L95.9522 691.407C98.7923 708.104 111.471 721.913 127.535 725.806C131.209 726.696 130.335 726.759 113.386 726.812L95.3221 726.868L94.9249 721.945ZM136.659 673.929C133.828 660.224 119.663 646.056 105.96 643.225C103.735 642.765 101.916 642.206 101.916 641.982C101.916 641.758 103.735 641.199 105.96 640.74C119.663 637.908 133.828 623.741 136.659 610.035C137.118 607.811 137.677 605.991 137.901 605.991C138.125 605.991 138.684 607.811 139.144 610.035C141.974 623.741 156.14 637.908 169.843 640.74C172.067 641.199 173.887 641.758 173.887 641.982C173.887 642.206 172.067 642.765 169.843 643.225C156.14 646.056 141.974 660.224 139.144 673.929C138.684 676.154 138.125 677.974 137.901 677.974C137.677 677.974 137.118 676.154 136.659 673.929Z" fill="white"/>
<path fill-rule="evenodd" clip-rule="evenodd" d="M393.224 502.375C393.218 489.01 393.033 487.435 390.978 483.22C390.023 481.261 389.061 480.005 386.814 477.781C383.538 474.539 381.031 473.096 376.986 472.125L374.532 471.536L377.082 470.934C383.081 469.518 388.172 465.427 391.064 459.698C393.031 455.8 393.23 454.055 393.23 440.703L393.23 428.798L391.278 429.033C385.606 429.715 382.223 431.348 378.263 435.313C375.051 438.53 373.578 441.035 372.533 445.056C371.974 447.204 371.907 447.307 371.682 446.368C371.546 445.808 371.143 444.432 370.784 443.311C368.377 435.793 361.072 429.95 352.955 429.051L350.884 428.821L350.365 425.643C349.763 421.958 348.536 419.119 346.226 416.066C343.424 412.363 338.985 409.416 334.616 408.359C332.716 407.899 333.08 407.873 341.648 407.846L350.683 407.818L350.881 410.28C351.422 416.981 355.933 423.533 362.157 426.658C365.421 428.296 367.979 428.876 371.943 428.876C375.908 428.876 378.602 428.258 381.684 426.642C385.855 424.453 389.038 421.23 391.047 417.158C393.023 413.154 393.218 411.462 393.224 398.223L393.23 386.42L391.957 386.425C387.757 386.445 382.033 388.912 378.67 392.152C374.901 395.785 372.763 399.961 372.087 405.014L371.712 407.818L363.227 407.818C358.561 407.818 354.838 407.722 354.955 407.606C355.071 407.489 356.277 407.02 357.633 406.563C365.549 403.897 371.807 395.72 371.831 388.011L371.836 386.376L359.016 386.483L346.196 386.59L343.73 387.492C339.076 389.192 335.463 392.061 332.729 396.228C331.204 398.551 329.726 402.269 329.726 403.778C329.726 404.131 329.573 404.421 329.387 404.421C329.2 404.421 329.047 404.131 329.047 403.778C329.047 402.269 327.569 398.551 326.044 396.228C323.311 392.061 319.697 389.192 315.043 387.492L312.577 386.59L299.757 386.483L286.937 386.375L286.937 387.989C286.937 395.651 293.249 403.906 301.14 406.563C302.496 407.02 303.702 407.489 303.818 407.606C303.935 407.722 300.212 407.818 295.546 407.818L287.061 407.818L286.686 405.014C286.479 403.472 285.979 401.324 285.574 400.24C284.483 397.325 281.717 393.415 279.345 391.437C275.879 388.547 270.505 386.42 266.669 386.42L265.543 386.42L265.549 398.223C265.555 411.534 265.741 413.116 267.795 417.328C269.435 420.692 273.848 425.157 277.089 426.732C280.758 428.515 283.13 428.969 287.786 428.782C292.683 428.586 295.02 427.867 298.646 425.441C304.024 421.843 307.406 416.297 307.892 410.28L308.09 407.818L317.125 407.836L326.16 407.854L323.613 408.621C318.402 410.192 314.603 412.924 311.796 417.122C309.723 420.221 308.851 422.464 308.328 426.044L307.93 428.768L305.186 429.188C301.627 429.733 299.189 430.65 296.373 432.505C292.06 435.346 288.555 440.199 287.477 444.825C287.204 445.992 286.92 447.008 286.844 447.084C286.768 447.16 286.515 446.342 286.281 445.266C285.462 441.502 283.719 438.489 280.522 435.311C276.535 431.347 273.142 429.712 267.495 429.033L265.543 428.798L265.543 440.743C265.543 454.076 265.74 455.772 267.757 459.784C270.644 465.527 276.184 469.867 282.186 471.089L284.39 471.538L282.183 472.008C276.456 473.228 270.364 477.976 267.799 483.22C265.742 487.426 265.555 489.008 265.549 502.326L265.543 514.129L266.669 514.129C270.505 514.129 275.879 512.002 279.345 509.111C281.717 507.133 284.483 503.223 285.574 500.308C285.979 499.225 286.479 497.077 286.686 495.535L287.061 492.731L295.546 492.731C300.212 492.731 303.935 492.826 303.818 492.943C303.702 493.059 302.496 493.528 301.14 493.985C293.249 496.643 286.937 504.898 286.937 512.559L286.937 514.173L299.757 514.065L312.577 513.958L315.083 513.043C319.522 511.423 323.479 508.305 325.991 504.449C327.423 502.249 329.027 498.275 329.04 496.891C329.053 495.445 329.591 496.131 330.002 498.118C331.14 503.629 335.894 509.405 341.528 512.122C345.272 513.927 347.026 514.116 360.035 514.123L371.836 514.129L371.831 512.515C371.807 504.829 365.538 496.648 357.633 493.985C356.277 493.528 355.071 493.059 354.955 492.943C354.838 492.826 358.561 492.731 363.227 492.731L371.712 492.731L372.087 495.535C372.573 499.168 373.533 501.674 375.646 504.835C379.138 510.056 384.734 513.413 390.938 514.007L393.23 514.226L393.224 502.375ZM334.693 492.059C339.837 490.71 344.119 487.701 346.977 483.427C349.053 480.323 349.922 478.084 350.449 474.48L350.851 471.731L352.938 471.5C361.409 470.561 368.87 464.318 371.201 456.218L371.788 454.18L371.812 462.926L371.836 471.672L370.209 471.672C369.315 471.672 367.672 471.905 366.559 472.189C358.171 474.331 351.551 481.964 350.881 490.268L350.683 492.731L341.478 492.712L332.273 492.693L334.693 492.059ZM307.892 490.268C307.405 484.232 303.923 478.546 298.566 475.038C295.695 473.158 292.618 472.047 289.398 471.729L287.107 471.502L287.034 462.841L286.961 454.18L287.748 456.598C289.295 461.356 292.325 465.377 296.371 468.041C299.182 469.893 301.625 470.815 305.15 471.355L307.857 471.769L308.405 474.994C309.826 483.345 316.167 490.252 324.202 492.2C326.039 492.645 325.602 492.676 317.125 492.703L308.09 492.731L307.892 490.268ZM328.765 466.253C327.349 459.398 320.264 452.312 313.411 450.896C312.298 450.666 311.388 450.386 311.388 450.274C311.388 450.162 312.298 449.883 313.411 449.653C320.264 448.237 327.349 441.15 328.765 434.296C328.995 433.183 329.274 432.273 329.387 432.273C329.499 432.273 329.778 433.183 330.008 434.296C331.424 441.15 338.509 448.237 345.362 449.653C346.475 449.883 347.385 450.162 347.385 450.274C347.385 450.386 346.475 450.666 345.362 450.896C338.509 452.312 331.424 459.398 330.008 466.253C329.778 467.366 329.499 468.276 329.387 468.276C329.274 468.276 328.995 467.366 328.765 466.253Z" fill="white"/>
<path fill-rule="evenodd" clip-rule="evenodd" d="M137.854 502.375C137.847 489.01 137.663 487.435 135.609 483.22C134.655 481.261 133.694 480.005 131.448 477.781C128.173 474.539 125.668 473.096 121.626 472.125L119.173 471.536L121.722 470.934C127.717 469.518 132.805 465.427 135.695 459.698C137.661 455.8 137.86 454.055 137.86 440.703L137.86 428.798L135.908 429.033C130.24 429.715 126.859 431.348 122.902 435.313C119.692 438.53 118.22 441.035 117.175 445.056C116.617 447.204 116.551 447.307 116.325 446.368C116.19 445.808 115.786 444.432 115.428 443.311C113.023 435.793 105.722 429.95 97.6103 429.051L95.5408 428.821L95.0219 425.643C94.4202 421.958 93.1943 419.119 90.8852 416.066C88.0854 412.363 83.649 409.416 79.2829 408.359C77.3845 407.899 77.7479 407.873 86.3104 407.846L95.3395 407.818L95.5381 410.28C96.0784 416.981 100.587 423.533 106.807 426.658C110.068 428.296 112.625 428.876 116.586 428.876C120.549 428.876 123.241 428.258 126.321 426.642C130.489 424.453 133.67 421.23 135.678 417.158C137.653 413.154 137.847 411.462 137.854 398.223L137.86 386.42L136.587 386.425C132.39 386.445 126.67 388.912 123.309 392.152C119.542 395.785 117.406 399.961 116.73 405.014L116.355 407.818L107.876 407.818C103.213 407.818 99.4922 407.722 99.6086 407.606C99.7253 407.489 100.93 407.02 102.285 406.563C110.196 403.897 116.45 395.72 116.474 388.011L116.479 386.376L103.668 386.483L90.856 386.59L88.3908 387.492C83.7403 389.192 80.129 392.061 77.3974 396.228C75.8736 398.551 74.3963 402.269 74.3963 403.778C74.3963 404.131 74.2435 404.421 74.0569 404.421C73.8702 404.421 73.7175 404.131 73.7175 403.778C73.7175 402.269 72.2402 398.551 70.7164 396.228C67.9847 392.061 64.3734 389.192 59.723 387.492L57.2577 386.59L44.4462 386.483L31.6348 386.375L31.6348 387.989C31.6348 395.651 37.9428 403.906 45.8285 406.563C47.184 407.02 48.3884 407.489 48.5052 407.606C48.6216 407.722 44.901 407.818 40.2376 407.818L31.7583 407.818L31.3833 405.014C31.1773 403.472 30.6774 401.324 30.2725 400.24C29.1824 397.325 26.4175 393.415 24.047 391.437C20.5836 388.547 15.2133 386.42 11.3794 386.42L10.254 386.42L10.2598 398.223C10.2666 411.534 10.4525 413.116 12.5044 417.328C14.1436 420.692 18.5535 425.157 21.7928 426.732C25.4594 428.515 27.8297 428.969 32.4832 428.782C37.377 428.586 39.7119 427.867 43.3361 425.441C48.7102 421.843 52.0907 416.297 52.5757 410.28L52.7742 407.818L61.8033 407.836L70.8328 407.854L68.2875 408.621C63.079 410.192 59.2824 412.924 56.4772 417.122C54.4063 420.221 53.5348 422.464 53.0118 426.044L52.6137 428.768L49.8722 429.188C46.3148 429.733 43.8791 430.65 41.0647 432.505C36.7546 435.346 33.2515 440.199 32.1737 444.825C31.9015 445.992 31.6171 447.008 31.5414 447.084C31.4661 447.16 31.2129 446.342 30.9791 445.266C30.1605 441.502 28.4188 438.489 25.2236 435.311C21.2396 431.347 17.8486 429.712 12.2054 429.033L10.254 428.798L10.254 440.743C10.254 454.076 10.4512 455.772 12.4671 459.784C15.3521 465.527 20.8887 469.867 26.8862 471.089L29.0894 471.538L26.8835 472.008C21.1602 473.228 15.0721 477.976 12.5085 483.22C10.4529 487.426 10.2666 489.008 10.2598 502.326L10.254 514.129L11.3794 514.129C15.2133 514.129 20.5836 512.002 24.047 509.111C26.4175 507.133 29.1824 503.223 30.2725 500.308C30.6774 499.225 31.1773 497.077 31.3833 495.535L31.7583 492.731L40.2376 492.731C44.901 492.731 48.6216 492.826 48.5052 492.943C48.3884 493.059 47.184 493.528 45.8285 493.985C37.9427 496.643 31.6347 504.898 31.6347 512.559L31.6347 514.173L44.4462 514.065L57.2577 513.958L59.7626 513.043C64.1983 511.423 68.1527 508.305 70.6631 504.449C72.0949 502.249 73.6975 498.275 73.7104 496.891C73.7239 495.445 74.2612 496.131 74.6715 498.118C75.8087 503.629 80.5603 509.405 86.191 512.122C89.9319 513.927 91.6855 514.116 104.686 514.123L116.479 514.129L116.474 512.515C116.45 504.829 110.186 496.648 102.285 493.985C100.93 493.528 99.7253 493.059 99.6086 492.943C99.4922 492.826 103.213 492.731 107.876 492.731L116.355 492.731L116.73 495.535C117.216 499.168 118.175 501.674 120.287 504.835C123.776 510.056 129.369 513.413 135.569 514.007L137.86 514.226L137.854 502.375ZM79.3603 492.059C84.5005 490.71 88.7804 487.701 91.6366 483.427C93.7112 480.323 94.579 478.084 95.1057 474.48L95.5072 471.731L97.5933 471.5C106.058 470.561 113.515 464.318 115.844 456.218L116.431 454.18L116.455 462.926L116.479 471.672L114.853 471.672C113.959 471.672 112.318 471.905 111.205 472.189C102.822 474.331 96.2077 481.964 95.5381 490.268L95.3395 492.731L86.1407 492.712L76.9416 492.693L79.3603 492.059ZM52.5757 490.268C52.089 484.232 48.61 478.546 43.256 475.038C40.3866 473.158 37.3118 472.047 34.0935 471.729L31.8044 471.502L31.7315 462.841L31.6588 454.18L32.4445 456.598C33.991 461.356 37.0193 465.377 41.062 468.041C43.8713 469.893 46.3131 470.815 49.8359 471.355L52.541 471.769L53.0891 474.994C54.5088 483.345 60.8463 490.252 68.8756 492.2C70.712 492.645 70.2752 492.676 61.8033 492.703L52.7742 492.731L52.5757 490.268ZM73.4358 466.253C72.0209 459.398 64.9405 452.312 58.0912 450.896C56.9794 450.666 56.0699 450.386 56.0699 450.274C56.0699 450.162 56.9794 449.883 58.0912 449.653C64.9405 448.237 72.0209 441.15 73.4358 434.296C73.6656 433.183 73.9449 432.273 74.0569 432.273C74.1689 432.273 74.4482 433.183 74.6779 434.296C76.0928 441.15 83.1732 448.237 90.0225 449.653C91.1343 449.883 92.0439 450.162 92.0439 450.274C92.0439 450.386 91.1343 450.666 90.0225 450.896C83.1732 452.312 76.0928 459.398 74.6779 466.253C74.4482 467.366 74.1689 468.276 74.0569 468.276C73.9449 468.276 73.6656 467.366 73.4358 466.253Z" fill="white"/>
<path fill-rule="evenodd" clip-rule="evenodd" d="M520.907 502.375C520.9 489.01 520.715 487.435 518.661 483.22C517.706 481.261 516.744 480.005 514.496 477.781C511.22 474.539 508.713 473.096 504.668 472.125L502.214 471.536L504.765 470.934C510.763 469.518 515.854 465.427 518.746 459.698C520.714 455.8 520.913 454.055 520.913 440.703L520.913 428.798L518.96 429.033C513.288 429.715 509.905 431.348 505.946 435.313C502.733 438.53 501.261 441.035 500.215 445.056C499.657 447.204 499.59 447.307 499.364 446.368C499.229 445.808 498.825 444.432 498.466 443.311C496.06 435.793 488.755 429.95 480.637 429.051L478.567 428.821L478.047 425.643C477.445 421.958 476.219 419.119 473.908 416.066C471.106 412.363 466.667 409.416 462.298 408.359C460.399 407.899 460.762 407.873 469.33 407.846L478.365 407.818L478.564 410.28C479.104 416.981 483.616 423.533 489.84 426.658C493.103 428.296 495.661 428.876 499.625 428.876C503.591 428.876 506.284 428.258 509.366 426.642C513.538 424.453 516.72 421.23 518.729 417.158C520.705 413.154 520.9 411.462 520.907 398.223L520.913 386.42L519.639 386.425C515.439 386.445 509.716 388.912 506.353 392.152C502.583 395.785 500.446 399.961 499.77 405.014L499.395 407.818L490.91 407.818C486.243 407.818 482.52 407.722 482.637 407.606C482.754 407.489 483.959 407.02 485.315 406.563C493.231 403.897 499.49 395.72 499.513 388.011L499.518 386.376L486.698 386.483L473.879 386.59L471.412 387.492C466.759 389.192 463.145 392.061 460.412 396.228C458.887 398.551 457.408 402.269 457.408 403.778C457.408 404.131 457.256 404.421 457.069 404.421C456.882 404.421 456.729 404.131 456.729 403.778C456.729 402.269 455.251 398.551 453.726 396.228C450.993 392.061 447.379 389.192 442.726 387.492L440.259 386.59L427.439 386.483L414.62 386.375L414.62 387.989C414.62 395.651 420.932 403.906 428.822 406.563C430.179 407.02 431.384 407.489 431.501 407.606C431.617 407.722 427.894 407.818 423.228 407.818L414.743 407.818L414.368 405.014C414.162 403.472 413.662 401.324 413.256 400.24C412.166 397.325 409.399 393.415 407.027 391.437C403.561 388.547 398.188 386.42 394.351 386.42L393.225 386.42L393.231 398.223C393.238 411.534 393.424 413.116 395.477 417.328C397.117 420.692 401.53 425.157 404.771 426.732C408.44 428.515 410.812 428.969 415.469 428.782C420.366 428.586 422.702 427.867 426.328 425.441C431.706 421.843 435.089 416.297 435.574 410.28L435.773 407.818L444.808 407.836L453.843 407.854L451.296 408.621C446.084 410.192 442.285 412.924 439.478 417.122C437.406 420.221 436.534 422.464 436.01 426.044L435.612 428.768L432.869 429.188C429.309 429.733 426.872 430.65 424.056 432.505C419.743 435.346 416.237 440.199 415.159 444.825C414.887 445.992 414.602 447.008 414.526 447.084C414.451 447.16 414.198 446.342 413.964 445.266C413.144 441.502 411.402 438.489 408.204 435.311C404.218 431.347 400.825 429.712 395.178 429.033L393.225 428.798L393.225 440.743C393.225 454.076 393.422 455.772 395.44 459.784C398.327 465.527 403.867 469.867 409.868 471.089L412.073 471.538L409.865 472.008C404.138 473.228 398.046 477.976 395.481 483.22C393.424 487.426 393.238 489.008 393.231 502.326L393.225 514.129L394.351 514.129C398.188 514.129 403.561 512.002 407.027 509.111C409.399 507.133 412.166 503.223 413.256 500.308C413.662 499.225 414.162 497.077 414.368 495.535L414.743 492.731L423.228 492.731C427.894 492.731 431.617 492.826 431.501 492.943C431.384 493.059 430.179 493.528 428.822 493.985C420.932 496.643 414.62 504.898 414.62 512.559L414.62 514.173L427.439 514.065L440.259 513.958L442.766 513.043C447.204 511.423 451.161 508.305 453.673 504.449C455.106 502.249 456.709 498.275 456.722 496.891C456.736 495.445 457.273 496.131 457.684 498.118C458.822 503.629 463.577 509.405 469.211 512.122C472.954 513.927 474.709 514.116 487.717 514.123L499.518 514.129L499.513 512.515C499.489 504.829 493.221 496.648 485.315 493.985C483.959 493.528 482.754 493.059 482.637 492.943C482.52 492.826 486.243 492.731 490.91 492.731L499.395 492.731L499.77 495.535C500.256 499.168 501.215 501.674 503.328 504.835C506.82 510.056 512.417 513.413 518.62 514.007L520.913 514.226L520.907 502.375ZM462.376 492.059C467.519 490.71 471.802 487.701 474.66 483.427C476.736 480.323 477.604 478.084 478.131 474.48L478.533 471.731L480.62 471.5C489.091 470.561 496.552 464.318 498.883 456.218L499.47 454.18L499.494 462.926L499.518 471.672L497.892 471.672C496.997 471.672 495.354 471.905 494.241 472.189C485.853 474.331 479.234 481.964 478.564 490.268L478.365 492.731L469.16 492.712L459.955 492.693L462.376 492.059ZM435.574 490.268C435.087 484.232 431.606 478.546 426.248 475.038C423.377 473.158 420.3 472.047 417.08 471.729L414.789 471.502L414.716 462.841L414.644 454.18L415.43 456.598C416.977 461.356 420.008 465.377 424.053 468.041C426.864 469.893 429.307 470.815 432.832 471.355L435.539 471.769L436.088 474.994C437.508 483.345 443.85 490.252 451.884 492.2C453.722 492.645 453.285 492.676 444.808 492.703L435.773 492.731L435.574 490.268ZM456.447 466.253C455.032 459.398 447.947 452.312 441.093 450.896C439.981 450.666 439.07 450.386 439.07 450.274C439.07 450.162 439.981 449.883 441.093 449.653C447.947 448.237 455.032 441.15 456.447 434.296C456.677 433.183 456.957 432.273 457.069 432.273C457.181 432.273 457.46 433.183 457.69 434.296C459.106 441.15 466.191 448.237 473.045 449.653C474.157 449.883 475.067 450.162 475.067 450.274C475.067 450.386 474.157 450.666 473.045 450.896C466.191 452.312 459.106 459.398 457.69 466.253C457.46 467.366 457.181 468.276 457.069 468.276C456.957 468.276 456.677 467.366 456.447 466.253Z" fill="white"/>
<path fill-rule="evenodd" clip-rule="evenodd" d="M265.542 502.375C265.535 489.01 265.35 487.435 263.296 483.22C262.341 481.261 261.379 480.005 259.131 477.781C255.855 474.539 253.348 473.096 249.303 472.125L246.849 471.536L249.4 470.934C255.398 469.518 260.489 465.427 263.381 459.698C265.349 455.8 265.548 454.055 265.548 440.703L265.548 428.798L263.595 429.033C257.923 429.715 254.54 431.348 250.581 435.313C247.368 438.53 245.896 441.035 244.85 445.056C244.292 447.204 244.225 447.307 243.999 446.368C243.864 445.808 243.46 444.432 243.101 443.311C240.695 435.793 233.39 429.95 225.272 429.051L223.202 428.821L222.682 425.643C222.08 421.958 220.854 419.119 218.543 416.066C215.741 412.363 211.302 409.416 206.933 408.359C205.034 407.899 205.397 407.873 213.965 407.846L223 407.818L223.199 410.28C223.739 416.981 228.251 423.533 234.475 426.658C237.738 428.296 240.296 428.876 244.26 428.876C248.226 428.876 250.919 428.258 254.001 426.642C258.173 424.453 261.355 421.23 263.364 417.158C265.34 413.154 265.535 411.462 265.542 398.223L265.548 386.42L264.274 386.425C260.074 386.445 254.351 388.912 250.988 392.152C247.218 395.785 245.081 399.961 244.405 405.014L244.03 407.818L235.545 407.818C230.878 407.818 227.155 407.722 227.272 407.606C227.389 407.489 228.594 407.02 229.95 406.563C237.866 403.897 244.125 395.72 244.148 388.011L244.153 386.376L231.334 386.483L218.514 386.59L216.047 387.492C211.394 389.192 207.78 392.061 205.047 396.228C203.522 398.551 202.044 402.269 202.044 403.778C202.044 404.131 201.891 404.421 201.704 404.421C201.517 404.421 201.364 404.131 201.364 403.778C201.364 402.269 199.886 398.551 198.361 396.228C195.628 392.061 192.014 389.192 187.361 387.492L184.894 386.59L172.074 386.483L159.255 386.375L159.255 387.989C159.255 395.651 165.567 403.906 173.457 406.563C174.814 407.02 176.019 407.489 176.136 407.606C176.252 407.722 172.529 407.818 167.863 407.818L159.378 407.818L159.003 405.014C158.797 403.472 158.297 401.324 157.892 400.24C156.801 397.325 154.034 393.415 151.662 391.437C148.196 388.547 142.823 386.42 138.986 386.42L137.86 386.42L137.866 398.223C137.873 411.534 138.059 413.116 140.112 417.328C141.752 420.692 146.165 425.157 149.406 426.732C153.075 428.515 155.447 428.969 160.104 428.782C165.001 428.586 167.337 427.867 170.964 425.441C176.341 421.843 179.724 416.297 180.209 410.28L180.408 407.818L189.443 407.836L198.478 407.854L195.931 408.621C190.719 410.192 186.92 412.924 184.113 417.122C182.041 420.221 181.169 422.464 180.645 426.044L180.247 428.768L177.504 429.188C173.944 429.733 171.507 430.65 168.691 432.505C164.378 435.346 160.872 440.199 159.794 444.825C159.522 445.992 159.237 447.008 159.161 447.084C159.086 447.16 158.833 446.342 158.599 445.266C157.779 441.502 156.037 438.489 152.839 435.311C148.853 431.347 145.46 429.712 139.813 429.033L137.86 428.798L137.86 440.743C137.86 454.076 138.058 455.772 140.075 459.784C142.962 465.527 148.502 469.867 154.503 471.089L156.708 471.538L154.5 472.008C148.773 473.228 142.681 477.976 140.116 483.22C138.059 487.426 137.873 489.008 137.866 502.326L137.86 514.129L138.986 514.129C142.823 514.129 148.196 512.002 151.662 509.111C154.034 507.133 156.801 503.223 157.891 500.308C158.297 499.225 158.797 497.077 159.003 495.535L159.378 492.731L167.863 492.731C172.529 492.731 176.252 492.826 176.136 492.943C176.019 493.059 174.814 493.528 173.457 493.985C165.567 496.643 159.255 504.898 159.255 512.559L159.255 514.173L172.074 514.065L184.894 513.958L187.401 513.043C191.839 511.423 195.796 508.305 198.308 504.449C199.741 502.249 201.344 498.275 201.357 496.891C201.371 495.445 201.908 496.131 202.319 498.118C203.457 503.629 208.212 509.405 213.846 512.122C217.589 513.927 219.344 514.116 232.352 514.123L244.153 514.129L244.148 512.515C244.124 504.829 237.856 496.648 229.95 493.985C228.594 493.528 227.389 493.059 227.272 492.943C227.155 492.826 230.878 492.731 235.545 492.731L244.03 492.731L244.405 495.535C244.891 499.168 245.85 501.674 247.963 504.835C251.455 510.056 257.052 513.413 263.255 514.007L265.548 514.226L265.542 502.375ZM207.011 492.059C212.154 490.71 216.437 487.701 219.295 483.427C221.371 480.323 222.239 478.084 222.766 474.48L223.168 471.731L225.255 471.5C233.726 470.561 241.187 464.318 243.518 456.218L244.105 454.18L244.129 462.926L244.153 471.672L242.527 471.672C241.632 471.672 239.989 471.905 238.876 472.189C230.488 474.331 223.869 481.964 223.199 490.268L223 492.731L213.795 492.712L204.59 492.693L207.011 492.059ZM180.209 490.268C179.722 484.232 176.241 478.546 170.883 475.038C168.012 473.158 164.935 472.047 161.715 471.729L159.424 471.502L159.351 462.841L159.279 454.18L160.065 456.598C161.612 461.356 164.643 465.377 168.688 468.041C171.499 469.893 173.942 470.815 177.467 471.355L180.174 471.769L180.723 474.994C182.143 483.345 188.485 490.252 196.519 492.2C198.357 492.645 197.92 492.676 189.443 492.703L180.408 492.731L180.209 490.268ZM201.082 466.253C199.667 459.398 192.582 452.312 185.728 450.896C184.616 450.666 183.705 450.386 183.705 450.274C183.705 450.162 184.616 449.883 185.728 449.653C192.582 448.237 199.667 441.15 201.082 434.296C201.312 433.183 201.592 432.273 201.704 432.273C201.816 432.273 202.095 433.183 202.325 434.296C203.741 441.15 210.826 448.237 217.68 449.653C218.792 449.883 219.702 450.162 219.702 450.274C219.702 450.386 218.792 450.666 217.68 450.896C210.826 452.312 203.741 459.398 202.325 466.253C202.095 467.366 201.816 468.276 201.704 468.276C201.592 468.276 201.312 467.366 201.082 466.253Z" fill="white"/>
<path d="M109.092 806.414C108.763 806.414 108.479 806.294 108.24 806.055C108.001 805.816 107.881 805.532 107.881 805.203V776.23C107.881 775.901 108.001 775.617 108.24 775.378C108.479 775.139 108.763 775.019 109.092 775.019H122.367C126.673 775.019 130.037 775.991 132.458 777.935C134.88 779.878 136.091 782.539 136.091 785.918C136.091 787.921 135.628 789.67 134.701 791.165C133.804 792.63 132.653 793.811 131.248 794.708L136.764 804.934C136.854 805.113 136.899 805.278 136.899 805.427C136.899 805.696 136.794 805.935 136.585 806.145C136.405 806.324 136.181 806.414 135.912 806.414H126.718C126.12 806.414 125.671 806.264 125.372 805.965C125.073 805.666 124.879 805.412 124.789 805.203L120.932 796.637H119.093V805.203C119.093 805.532 118.974 805.816 118.735 806.055C118.495 806.294 118.211 806.414 117.882 806.414H109.092ZM119.093 788.115H122.367C123.055 788.115 123.563 787.891 123.892 787.443C124.251 786.964 124.43 786.426 124.43 785.828C124.43 785.23 124.266 784.677 123.937 784.169C123.638 783.63 123.115 783.361 122.367 783.361H119.093V788.115ZM140.338 806.414C140.009 806.414 139.725 806.294 139.485 806.055C139.246 805.816 139.127 805.532 139.127 805.203V776.23C139.127 775.901 139.246 775.617 139.485 775.378C139.725 775.139 140.009 775.019 140.338 775.019H163.345C163.674 775.019 163.958 775.139 164.197 775.378C164.437 775.617 164.556 775.901 164.556 776.23V782.554C164.556 782.883 164.437 783.167 164.197 783.406C163.958 783.645 163.674 783.765 163.345 783.765H149.89V786.59H162.359C162.687 786.59 162.971 786.71 163.211 786.949C163.45 787.188 163.569 787.473 163.569 787.801V793.632C163.569 793.961 163.45 794.245 163.211 794.484C162.971 794.723 162.687 794.843 162.359 794.843H149.89V797.668H163.704C164.033 797.668 164.317 797.788 164.556 798.027C164.795 798.266 164.915 798.55 164.915 798.879V805.203C164.915 805.532 164.795 805.816 164.556 806.055C164.317 806.294 164.033 806.414 163.704 806.414H140.338ZM176.082 806.414C175.753 806.414 175.469 806.294 175.23 806.055C174.991 805.816 174.871 805.532 174.871 805.203V784.662H167.426C167.097 784.662 166.813 784.542 166.574 784.303C166.335 784.064 166.215 783.78 166.215 783.451V776.23C166.215 775.901 166.335 775.617 166.574 775.378C166.813 775.139 167.097 775.019 167.426 775.019H193.708C194.037 775.019 194.321 775.139 194.56 775.378C194.799 775.617 194.919 775.901 194.919 776.23V783.451C194.919 783.78 194.799 784.064 194.56 784.303C194.321 784.542 194.037 784.662 193.708 784.662H186.263V805.203C186.263 805.532 186.143 805.816 185.904 806.055C185.665 806.294 185.381 806.414 185.052 806.414H176.082ZM198.23 806.414C197.901 806.414 197.617 806.294 197.378 806.055C197.139 805.816 197.019 805.532 197.019 805.203V776.23C197.019 775.901 197.139 775.617 197.378 775.378C197.617 775.139 197.901 775.019 198.23 775.019H211.505C215.811 775.019 219.174 775.991 221.596 777.935C224.018 779.878 225.229 782.539 225.229 785.918C225.229 787.921 224.766 789.67 223.839 791.165C222.942 792.63 221.791 793.811 220.385 794.708L225.902 804.934C225.991 805.113 226.036 805.278 226.036 805.427C226.036 805.696 225.932 805.935 225.722 806.145C225.543 806.324 225.319 806.414 225.05 806.414H215.856C215.258 806.414 214.809 806.264 214.51 805.965C214.211 805.666 214.017 805.412 213.927 805.203L210.07 796.637H208.231V805.203C208.231 805.532 208.112 805.816 207.872 806.055C207.633 806.294 207.349 806.414 207.02 806.414H198.23ZM208.231 788.115H211.505C212.193 788.115 212.701 787.891 213.03 787.443C213.389 786.964 213.568 786.426 213.568 785.828C213.568 785.23 213.404 784.677 213.075 784.169C212.776 783.63 212.253 783.361 211.505 783.361H208.231V788.115ZM242.218 806.862C239.288 806.862 236.716 806.414 234.504 805.517C232.321 804.62 230.587 803.274 229.301 801.48C228.045 799.657 227.358 797.414 227.238 794.753C227.208 793.527 227.193 792.227 227.193 790.851C227.193 789.476 227.208 788.145 227.238 786.86C227.358 784.228 228.045 782.001 229.301 780.177C230.557 778.353 232.291 776.963 234.504 776.006C236.716 775.049 239.288 774.571 242.218 774.571C245.148 774.571 247.719 775.049 249.932 776.006C252.144 776.963 253.879 778.353 255.134 780.177C256.42 782.001 257.108 784.228 257.197 786.86C257.257 788.145 257.287 789.476 257.287 790.851C257.287 792.227 257.257 793.527 257.197 794.753C257.078 797.414 256.375 799.657 255.09 801.48C253.834 803.274 252.1 804.62 249.887 805.517C247.704 806.414 245.148 806.862 242.218 806.862ZM242.218 798.117C243.204 798.117 243.997 797.833 244.595 797.265C245.193 796.667 245.507 795.74 245.537 794.484C245.596 793.198 245.626 791.928 245.626 790.672C245.626 789.416 245.596 788.175 245.537 786.949C245.507 786.112 245.342 785.424 245.043 784.886C244.774 784.348 244.4 783.959 243.922 783.72C243.444 783.451 242.876 783.316 242.218 783.316C241.59 783.316 241.022 783.451 240.514 783.72C240.035 783.959 239.646 784.348 239.347 784.886C239.078 785.424 238.929 786.112 238.899 786.949C238.869 788.175 238.854 789.416 238.854 790.672C238.854 791.928 238.869 793.198 238.899 794.484C238.959 795.74 239.273 796.667 239.841 797.265C240.439 797.833 241.231 798.117 242.218 798.117ZM257.986 806.414C257.717 806.414 257.478 806.324 257.269 806.145C257.089 805.935 256.999 805.696 256.999 805.427C256.999 805.308 257.014 805.203 257.044 805.113L267.046 776.499C267.135 776.171 267.345 775.842 267.674 775.513C268.002 775.184 268.466 775.019 269.064 775.019H278.796C279.394 775.019 279.858 775.184 280.186 775.513C280.515 775.842 280.725 776.171 280.814 776.499L290.816 805.113C290.846 805.203 290.861 805.308 290.861 805.427C290.861 805.696 290.756 805.935 290.547 806.145C290.367 806.324 290.143 806.414 289.874 806.414H281.577C281.009 806.414 280.59 806.294 280.321 806.055C280.082 805.786 279.917 805.532 279.828 805.293L278.751 802.333H269.109L268.032 805.293C267.943 805.532 267.778 805.786 267.539 806.055C267.3 806.294 266.881 806.414 266.283 806.414H257.986ZM271.396 793.587H276.464L273.908 785.245L271.396 793.587ZM305.673 806.862C302.803 806.862 300.262 806.444 298.049 805.607C295.837 804.769 294.072 803.454 292.757 801.66C291.471 799.866 290.769 797.549 290.649 794.708C290.619 793.482 290.604 792.167 290.604 790.761C290.604 789.356 290.619 788.011 290.649 786.725C290.769 783.944 291.486 781.657 292.802 779.863C294.147 778.069 295.926 776.739 298.139 775.872C300.381 775.004 302.893 774.571 305.673 774.571C307.587 774.571 309.426 774.795 311.19 775.244C312.984 775.662 314.598 776.335 316.034 777.262C317.469 778.189 318.605 779.385 319.442 780.85C320.309 782.285 320.758 784.019 320.788 786.052C320.788 786.321 320.683 786.561 320.474 786.77C320.294 786.949 320.07 787.039 319.801 787.039H310.652C310.173 787.039 309.815 786.949 309.575 786.77C309.366 786.561 309.172 786.217 308.992 785.738C308.663 784.782 308.215 784.139 307.647 783.81C307.079 783.481 306.406 783.316 305.629 783.316C304.642 783.316 303.85 783.586 303.252 784.124C302.684 784.632 302.37 785.574 302.31 786.949C302.22 789.401 302.22 791.913 302.31 794.484C302.37 795.859 302.684 796.816 303.252 797.354C303.85 797.863 304.642 798.117 305.629 798.117C306.406 798.117 307.079 797.937 307.647 797.579C308.245 797.22 308.693 796.592 308.992 795.695C309.142 795.187 309.336 794.843 309.575 794.663C309.815 794.484 310.173 794.394 310.652 794.394H319.801C320.07 794.394 320.294 794.499 320.474 794.708C320.683 794.888 320.788 795.112 320.788 795.381C320.758 797.414 320.309 799.163 319.442 800.628C318.605 802.063 317.469 803.244 316.034 804.171C314.598 805.098 312.984 805.786 311.19 806.234C309.426 806.653 307.587 806.862 305.673 806.862ZM331.39 806.414C331.061 806.414 330.777 806.294 330.538 806.055C330.299 805.816 330.179 805.532 330.179 805.203V784.662H322.734C322.405 784.662 322.121 784.542 321.882 784.303C321.643 784.064 321.523 783.78 321.523 783.451V776.23C321.523 775.901 321.643 775.617 321.882 775.378C322.121 775.139 322.405 775.019 322.734 775.019H349.016C349.345 775.019 349.629 775.139 349.868 775.378C350.107 775.617 350.227 775.901 350.227 776.23V783.451C350.227 783.78 350.107 784.064 349.868 784.303C349.629 784.542 349.345 784.662 349.016 784.662H341.571V805.203C341.571 805.532 341.451 805.816 341.212 806.055C340.973 806.294 340.689 806.414 340.36 806.414H331.39ZM353.538 806.414C353.209 806.414 352.925 806.294 352.686 806.055C352.446 805.816 352.327 805.532 352.327 805.203V776.23C352.327 775.901 352.446 775.617 352.686 775.378C352.925 775.139 353.209 775.019 353.538 775.019H362.687C363.016 775.019 363.3 775.139 363.539 775.378C363.778 775.617 363.898 775.901 363.898 776.23V805.203C363.898 805.532 363.778 805.816 363.539 806.055C363.3 806.294 363.016 806.414 362.687 806.414H353.538ZM376.418 806.414C375.82 806.414 375.357 806.249 375.028 805.92C374.699 805.592 374.49 805.263 374.4 804.934L365.968 776.32C365.938 776.2 365.923 776.096 365.923 776.006C365.923 775.737 366.013 775.513 366.193 775.333C366.402 775.124 366.641 775.019 366.91 775.019H375.252C375.85 775.019 376.314 775.184 376.642 775.513C376.971 775.842 377.181 776.171 377.27 776.499L381.531 793.183L385.792 776.499C385.881 776.171 386.091 775.842 386.42 775.513C386.748 775.184 387.212 775.019 387.81 775.019H396.152C396.421 775.019 396.645 775.124 396.825 775.333C397.034 775.513 397.139 775.737 397.139 776.006C397.139 776.096 397.124 776.2 397.094 776.32L388.662 804.934C388.572 805.263 388.363 805.592 388.034 805.92C387.705 806.249 387.242 806.414 386.644 806.414H376.418ZM400.349 806.414C400.02 806.414 399.736 806.294 399.497 806.055C399.258 805.816 399.138 805.532 399.138 805.203V776.23C399.138 775.901 399.258 775.617 399.497 775.378C399.736 775.139 400.02 775.019 400.349 775.019H423.357C423.686 775.019 423.97 775.139 424.209 775.378C424.448 775.617 424.568 775.901 424.568 776.23V782.554C424.568 782.883 424.448 783.167 424.209 783.406C423.97 783.645 423.686 783.765 423.357 783.765H409.902V786.59H422.37C422.699 786.59 422.983 786.71 423.222 786.949C423.461 787.188 423.581 787.473 423.581 787.801V793.632C423.581 793.961 423.461 794.245 423.222 794.484C422.983 794.723 422.699 794.843 422.37 794.843H409.902V797.668H423.716C424.044 797.668 424.328 797.788 424.568 798.027C424.807 798.266 424.926 798.55 424.926 798.879V805.203C424.926 805.532 424.807 805.816 424.568 806.055C424.328 806.294 424.044 806.414 423.716 806.414H400.349ZM109.425 870.414C108.791 870.414 108.244 870.183 107.783 869.723C107.322 869.262 107.092 868.714 107.092 868.081V812.261C107.092 811.628 107.322 811.08 107.783 810.62C108.244 810.159 108.791 809.928 109.425 809.928H135.607C140.849 809.928 145.4 810.706 149.259 812.261C153.176 813.759 156.201 816.092 158.332 819.26C160.521 822.371 161.615 826.317 161.615 831.098C161.615 835.879 160.521 839.797 158.332 842.85C156.201 845.845 153.176 848.063 149.259 849.503C145.4 850.886 140.849 851.577 135.607 851.577H129.558V868.081C129.558 868.714 129.328 869.262 128.867 869.723C128.406 870.183 127.859 870.414 127.225 870.414H109.425ZM129.126 835.591H135.175C136.096 835.591 136.989 835.246 137.853 834.555C138.717 833.806 139.149 832.596 139.149 830.925C139.149 829.831 138.861 828.736 138.285 827.642C137.767 826.547 136.73 826 135.175 826H129.126V835.591ZM193.42 871.278C187.89 871.278 182.994 870.443 178.731 868.772C174.526 867.102 171.242 864.509 168.88 860.995C166.519 857.481 165.338 853.017 165.338 847.602V812.261C165.338 811.628 165.568 811.08 166.029 810.62C166.49 810.159 167.037 809.928 167.671 809.928H184.607C185.24 809.928 185.788 810.159 186.248 810.62C186.709 811.08 186.94 811.628 186.94 812.261V847.256C186.94 849.388 187.458 851.03 188.495 852.182C189.59 853.334 191.203 853.91 193.334 853.91C195.465 853.91 197.049 853.334 198.086 852.182C199.181 851.03 199.728 849.388 199.728 847.256V812.261C199.728 811.628 199.959 811.08 200.419 810.62C200.88 810.159 201.427 809.928 202.061 809.928H218.997C219.631 809.928 220.178 810.159 220.639 810.62C221.1 811.08 221.33 811.628 221.33 812.261V847.602C221.33 853.017 220.149 857.481 217.787 860.995C215.426 864.509 212.142 867.102 207.937 868.772C203.732 870.443 198.893 871.278 193.42 871.278ZM230.497 870.414C229.864 870.414 229.317 870.183 228.856 869.723C228.395 869.262 228.164 868.714 228.164 868.081V812.261C228.164 811.628 228.395 811.08 228.856 810.62C229.317 810.159 229.864 809.928 230.497 809.928H259.185C264.715 809.928 269.237 810.62 272.751 812.002C276.265 813.327 278.857 815.343 280.528 818.051C282.256 820.7 283.12 824.042 283.12 828.074C283.12 829.917 282.717 831.588 281.91 833.086C281.161 834.526 280.24 835.735 279.145 836.715C278.108 837.694 277.129 838.414 276.207 838.875C278.396 839.797 280.297 841.41 281.91 843.714C283.581 845.96 284.416 848.524 284.416 851.404C284.416 855.724 283.466 859.296 281.565 862.119C279.664 864.884 276.899 866.958 273.269 868.34C269.698 869.723 265.291 870.414 260.049 870.414H230.497ZM249.766 855.552H257.802C259.242 855.552 260.251 855.091 260.827 854.169C261.46 853.19 261.777 852.239 261.777 851.318C261.777 850.281 261.431 849.33 260.74 848.466C260.107 847.545 259.127 847.084 257.802 847.084H249.766V855.552ZM249.766 832.654H257.025C258.292 832.654 259.185 832.25 259.703 831.444C260.279 830.58 260.567 829.687 260.567 828.765C260.567 827.844 260.279 826.951 259.703 826.087C259.185 825.222 258.292 824.79 257.025 824.79H249.766V832.654ZM291.793 870.414C291.159 870.414 290.612 870.183 290.151 869.723C289.69 869.262 289.46 868.714 289.46 868.081V812.261C289.46 811.628 289.69 811.08 290.151 810.62C290.612 810.159 291.159 809.928 291.793 809.928H309.075C309.708 809.928 310.256 810.159 310.716 810.62C311.177 811.08 311.408 811.628 311.408 812.261V852.7H335.343C335.976 852.7 336.524 852.931 336.984 853.391C337.445 853.852 337.676 854.4 337.676 855.033V868.081C337.676 868.714 337.445 869.262 336.984 869.723C336.524 870.183 335.976 870.414 335.343 870.414H291.793ZM343.722 870.414C343.089 870.414 342.541 870.183 342.08 869.723C341.62 869.262 341.389 868.714 341.389 868.081V812.261C341.389 811.628 341.62 811.08 342.08 810.62C342.541 810.159 343.089 809.928 343.722 809.928H361.349C361.983 809.928 362.53 810.159 362.991 810.62C363.452 811.08 363.682 811.628 363.682 812.261V868.081C363.682 868.714 363.452 869.262 362.991 869.723C362.53 870.183 361.983 870.414 361.349 870.414H343.722ZM398.433 871.278C392.903 871.278 388.006 870.471 383.743 868.858C379.48 867.246 376.082 864.711 373.547 861.255C371.07 857.798 369.716 853.334 369.486 847.861C369.428 845.5 369.4 842.965 369.4 840.257C369.4 837.55 369.428 834.958 369.486 832.481C369.716 827.123 371.099 822.717 373.634 819.26C376.226 815.804 379.653 813.241 383.916 811.57C388.236 809.899 393.075 809.064 398.433 809.064C402.119 809.064 405.662 809.496 409.061 810.36C412.517 811.167 415.628 812.463 418.393 814.249C421.158 816.034 423.347 818.339 424.96 821.161C426.63 823.926 427.495 827.267 427.552 831.185C427.552 831.703 427.35 832.164 426.947 832.567C426.602 832.913 426.17 833.086 425.651 833.086H408.024C407.102 833.086 406.411 832.913 405.95 832.567C405.547 832.164 405.172 831.501 404.827 830.58C404.193 828.736 403.329 827.498 402.235 826.864C401.14 826.231 399.844 825.914 398.346 825.914C396.445 825.914 394.919 826.432 393.767 827.469C392.672 828.448 392.067 830.263 391.952 832.913C391.779 837.636 391.779 842.475 391.952 847.429C392.067 850.079 392.672 851.923 393.767 852.959C394.919 853.939 396.445 854.428 398.346 854.428C399.844 854.428 401.14 854.083 402.235 853.391C403.387 852.7 404.251 851.49 404.827 849.762C405.115 848.783 405.489 848.121 405.95 847.775C406.411 847.429 407.102 847.256 408.024 847.256H425.651C426.17 847.256 426.602 847.458 426.947 847.861C427.35 848.207 427.552 848.639 427.552 849.157C427.495 853.075 426.63 856.445 424.96 859.267C423.347 862.032 421.158 864.308 418.393 866.093C415.628 867.879 412.517 869.204 409.061 870.068C405.662 870.875 402.119 871.278 398.433 871.278ZM135.94 938.334C129.744 938.334 124.377 937.414 119.837 935.573C115.297 933.733 111.739 930.942 109.163 927.2C106.586 923.458 105.175 918.734 104.93 913.029C104.869 910.514 104.838 907.784 104.838 904.839C104.838 901.895 104.869 899.103 104.93 896.465C105.175 891.006 106.586 886.497 109.163 882.939C111.801 879.319 115.42 876.62 120.021 874.841C124.622 873.001 129.928 872.08 135.94 872.08C140.787 872.08 145.142 872.633 149.007 873.737C152.872 874.78 156.184 876.252 158.945 878.154C161.706 880.055 163.822 882.264 165.294 884.779C166.767 887.233 167.533 889.84 167.595 892.601C167.595 893.153 167.38 893.644 166.951 894.073C166.583 894.441 166.123 894.625 165.57 894.625H145.234C144.559 894.625 144.007 894.533 143.578 894.349C143.21 894.165 142.872 893.92 142.566 893.613C142.32 893.306 141.952 892.877 141.461 892.325C141.032 891.711 140.388 891.19 139.529 890.76C138.67 890.27 137.474 890.024 135.94 890.024C133.671 890.024 131.953 890.607 130.787 891.772C129.622 892.877 128.978 894.594 128.855 896.926C128.671 902.017 128.671 907.232 128.855 912.569C128.978 915.329 129.683 917.323 130.971 918.55C132.26 919.777 134.039 920.39 136.308 920.39C137.842 920.39 139.192 920.176 140.357 919.746C141.523 919.317 142.443 918.611 143.118 917.63C143.793 916.648 144.13 915.391 144.13 913.857V913.765H139.805C139.13 913.765 138.548 913.52 138.057 913.029C137.566 912.538 137.321 911.955 137.321 911.28V901.066C137.321 900.392 137.566 899.809 138.057 899.318C138.548 898.827 139.13 898.582 139.805 898.582H165.11C165.785 898.582 166.368 898.827 166.859 899.318C167.349 899.809 167.595 900.392 167.595 901.066V913.029C167.595 918.55 166.245 923.182 163.546 926.924C160.847 930.666 157.105 933.518 152.32 935.481C147.596 937.383 142.136 938.334 135.94 938.334ZM202.648 938.334C196.636 938.334 191.36 937.414 186.82 935.573C182.342 933.733 178.784 930.973 176.146 927.292C173.57 923.55 172.159 918.949 171.913 913.489C171.852 910.974 171.821 908.305 171.821 905.483C171.821 902.661 171.852 899.931 171.913 897.294C172.159 891.895 173.57 887.325 176.146 883.583C178.723 879.841 182.281 876.988 186.82 875.025C191.36 873.062 196.636 872.08 202.648 872.08C208.659 872.08 213.935 873.062 218.475 875.025C223.014 876.988 226.572 879.841 229.149 883.583C231.787 887.325 233.198 891.895 233.382 897.294C233.505 899.931 233.566 902.661 233.566 905.483C233.566 908.305 233.505 910.974 233.382 913.489C233.136 918.949 231.695 923.55 229.057 927.292C226.48 930.973 222.922 933.733 218.383 935.573C213.905 937.414 208.659 938.334 202.648 938.334ZM202.648 920.39C204.672 920.39 206.298 919.808 207.525 918.642C208.751 917.415 209.396 915.513 209.457 912.937C209.58 910.299 209.641 907.692 209.641 905.115C209.641 902.539 209.58 899.993 209.457 897.478C209.396 895.76 209.058 894.349 208.445 893.245C207.893 892.141 207.126 891.343 206.144 890.852C205.163 890.3 203.997 890.024 202.648 890.024C201.359 890.024 200.194 890.3 199.151 890.852C198.169 891.343 197.372 892.141 196.758 893.245C196.206 894.349 195.899 895.76 195.838 897.478C195.777 899.993 195.746 902.539 195.746 905.115C195.746 907.692 195.777 910.299 195.838 912.937C195.961 915.513 196.605 917.415 197.771 918.642C198.997 919.808 200.623 920.39 202.648 920.39ZM268.642 938.334C262.63 938.334 257.355 937.414 252.815 935.573C248.337 933.733 244.779 930.973 242.141 927.292C239.564 923.55 238.153 918.949 237.908 913.489C237.847 910.974 237.816 908.305 237.816 905.483C237.816 902.661 237.847 899.931 237.908 897.294C238.153 891.895 239.564 887.325 242.141 883.583C244.717 879.841 248.275 876.988 252.815 875.025C257.355 873.062 262.63 872.08 268.642 872.08C274.654 872.08 279.93 873.062 284.47 875.025C289.009 876.988 292.567 879.841 295.144 883.583C297.782 887.325 299.193 891.895 299.377 897.294C299.499 899.931 299.561 902.661 299.561 905.483C299.561 908.305 299.499 910.974 299.377 913.489C299.131 918.949 297.69 923.55 295.052 927.292C292.475 930.973 288.917 933.733 284.378 935.573C279.899 937.414 274.654 938.334 268.642 938.334ZM268.642 920.39C270.667 920.39 272.292 919.808 273.519 918.642C274.746 917.415 275.39 915.513 275.452 912.937C275.574 910.299 275.636 907.692 275.636 905.115C275.636 902.539 275.574 899.993 275.452 897.478C275.39 895.76 275.053 894.349 274.439 893.245C273.887 892.141 273.121 891.343 272.139 890.852C271.157 890.3 269.992 890.024 268.642 890.024C267.354 890.024 266.188 890.3 265.146 890.852C264.164 891.343 263.367 892.141 262.753 893.245C262.201 894.349 261.894 895.76 261.833 897.478C261.772 899.993 261.741 902.539 261.741 905.115C261.741 907.692 261.772 910.299 261.833 912.937C261.956 915.513 262.6 917.415 263.765 918.642C264.992 919.808 266.618 920.39 268.642 920.39ZM308.044 937.414C307.369 937.414 306.786 937.168 306.295 936.678C305.804 936.187 305.559 935.604 305.559 934.929V875.485C305.559 874.81 305.804 874.228 306.295 873.737C306.786 873.246 307.369 873.001 308.044 873.001H334.545C340.312 873.001 345.465 873.982 350.004 875.945C354.544 877.847 358.163 880.669 360.862 884.411C363.623 888.153 365.095 892.785 365.279 898.306C365.402 900.944 365.463 903.275 365.463 905.299C365.463 907.262 365.402 909.501 365.279 912.017C365.034 917.783 363.623 922.568 361.046 926.372C358.47 930.114 354.943 932.905 350.464 934.745C346.047 936.524 340.894 937.414 335.005 937.414H308.044ZM328.564 919.47H334.545C335.895 919.47 337.091 919.225 338.134 918.734C339.238 918.182 340.127 917.354 340.802 916.249C341.477 915.145 341.845 913.734 341.907 912.017C342.029 910.238 342.091 908.643 342.091 907.232C342.152 905.821 342.152 904.41 342.091 902.999C342.091 901.526 342.029 899.962 341.907 898.306C341.784 895.729 340.956 893.858 339.422 892.693C337.95 891.527 336.171 890.944 334.085 890.944H328.564V919.47ZM398.244 938.334C391.434 938.334 385.821 937.414 381.404 935.573C376.987 933.733 373.675 931.31 371.466 928.304C369.258 925.298 368.092 922.108 367.969 918.734C367.969 918.182 368.153 917.722 368.522 917.354C368.951 916.924 369.442 916.71 369.994 916.71H387.477C388.459 916.71 389.195 916.863 389.686 917.17C390.238 917.415 390.821 917.783 391.434 918.274C392.048 918.703 392.661 919.102 393.275 919.47C393.949 919.777 394.686 920.022 395.483 920.206C396.342 920.329 397.262 920.39 398.244 920.39C400.329 920.39 401.986 920.176 403.213 919.746C404.501 919.255 405.145 918.611 405.145 917.814C405.145 917.078 404.777 916.464 404.041 915.973C403.366 915.483 402.17 915.053 400.452 914.685C398.734 914.256 396.342 913.857 393.275 913.489C388.428 912.814 384.226 911.679 380.668 910.084C377.11 908.489 374.349 906.311 372.386 903.551C370.485 900.729 369.534 897.294 369.534 893.245C369.534 889.073 370.699 885.393 373.03 882.203C375.423 879.013 378.705 876.528 382.876 874.749C387.109 872.97 392.017 872.08 397.599 872.08C402.2 872.08 406.28 872.694 409.838 873.921C413.396 875.086 416.402 876.651 418.856 878.614C421.31 880.516 423.181 882.571 424.469 884.779C425.757 886.987 426.432 889.104 426.493 891.128C426.493 891.68 426.279 892.171 425.849 892.601C425.481 892.969 425.052 893.153 424.561 893.153H406.157C405.298 893.153 404.593 893.03 404.041 892.785C403.55 892.539 403.029 892.171 402.476 891.68C402.17 891.374 401.587 891.036 400.728 890.668C399.931 890.239 398.888 890.024 397.599 890.024C396.066 890.024 394.931 890.27 394.195 890.76C393.52 891.19 393.183 891.803 393.183 892.601C393.183 893.153 393.459 893.674 394.011 894.165C394.563 894.656 395.575 895.085 397.047 895.453C398.52 895.821 400.636 896.189 403.397 896.557C409.531 897.294 414.439 898.49 418.12 900.146C421.862 901.741 424.561 903.888 426.217 906.588C427.935 909.287 428.794 912.63 428.794 916.618C428.794 921.096 427.444 924.961 424.745 928.212C422.107 931.463 418.488 933.978 413.887 935.757C409.286 937.475 404.071 938.334 398.244 938.334ZM106.721 991.414C106.193 991.414 105.736 991.222 105.352 990.837C104.968 990.453 104.775 989.997 104.775 989.468V942.914C104.775 942.385 104.968 941.929 105.352 941.544C105.736 941.16 106.193 940.968 106.721 940.968H143.042C143.571 940.968 144.027 941.16 144.412 941.544C144.796 941.929 144.988 942.385 144.988 942.914V953.868C144.988 954.396 144.796 954.852 144.412 955.237C144.027 955.621 143.571 955.813 143.042 955.813H122.432V961.146H141.601C142.13 961.146 142.586 961.338 142.97 961.723C143.355 962.107 143.547 962.564 143.547 963.092V973.974C143.547 974.502 143.355 974.959 142.97 975.343C142.586 975.728 142.13 975.92 141.601 975.92H122.432V989.468C122.432 989.997 122.239 990.453 121.855 990.837C121.471 991.222 121.014 991.414 120.486 991.414H106.721ZM172.552 992.134C167.94 992.134 163.856 991.438 160.301 990.045C156.794 988.651 154.055 986.489 152.085 983.559C150.116 980.628 149.131 976.905 149.131 972.388V942.914C149.131 942.385 149.323 941.929 149.707 941.544C150.092 941.16 150.548 940.968 151.077 940.968H165.201C165.73 940.968 166.186 941.16 166.571 941.544C166.955 941.929 167.147 942.385 167.147 942.914V972.1C167.147 973.878 167.58 975.247 168.444 976.208C169.357 977.169 170.702 977.649 172.48 977.649C174.258 977.649 175.579 977.169 176.444 976.208C177.357 975.247 177.813 973.878 177.813 972.1V942.914C177.813 942.385 178.005 941.929 178.389 941.544C178.774 941.16 179.23 940.968 179.759 940.968H193.884C194.412 940.968 194.868 941.16 195.253 941.544C195.637 941.929 195.829 942.385 195.829 942.914V972.388C195.829 976.905 194.844 980.628 192.875 983.559C190.905 986.489 188.166 988.651 184.659 990.045C181.152 991.438 177.116 992.134 172.552 992.134ZM203.475 991.414C202.947 991.414 202.49 991.222 202.106 990.837C201.721 990.453 201.529 989.997 201.529 989.468V942.914C201.529 942.385 201.721 941.929 202.106 941.544C202.49 941.16 202.947 940.968 203.475 940.968H214.861C215.822 940.968 216.519 941.184 216.951 941.616C217.384 942.049 217.672 942.385 217.816 942.625L229.995 962.588V942.914C229.995 942.385 230.187 941.929 230.572 941.544C230.956 941.16 231.413 940.968 231.941 940.968H244.985C245.513 940.968 245.97 941.16 246.354 941.544C246.739 941.929 246.931 942.385 246.931 942.914V989.468C246.931 989.997 246.739 990.453 246.354 990.837C245.97 991.222 245.513 991.414 244.985 991.414H233.599C232.638 991.414 231.941 991.198 231.509 990.765C231.076 990.285 230.788 989.948 230.644 989.756L218.465 971.38V989.468C218.465 989.997 218.273 990.453 217.888 990.837C217.504 991.222 217.047 991.414 216.519 991.414H203.475ZM255.019 991.414C254.49 991.414 254.034 991.222 253.65 990.837C253.265 990.453 253.073 989.997 253.073 989.468V942.914C253.073 942.385 253.265 941.929 253.65 941.544C254.034 941.16 254.49 940.968 255.019 940.968H275.774C280.29 940.968 284.326 941.737 287.881 943.274C291.436 944.763 294.271 946.973 296.385 949.904C298.547 952.835 299.7 956.462 299.844 960.786C299.94 962.852 299.988 964.677 299.988 966.263C299.988 967.8 299.94 969.554 299.844 971.524C299.652 976.04 298.547 979.787 296.529 982.766C294.511 985.697 291.748 987.883 288.241 989.324C284.782 990.717 280.746 991.414 276.134 991.414H255.019ZM271.09 977.361H275.774C276.831 977.361 277.768 977.169 278.584 976.784C279.449 976.352 280.146 975.703 280.674 974.839C281.203 973.974 281.491 972.869 281.539 971.524C281.635 970.13 281.683 968.881 281.683 967.776C281.731 966.671 281.731 965.566 281.683 964.461C281.683 963.308 281.635 962.083 281.539 960.786C281.443 958.768 280.794 957.303 279.593 956.39C278.44 955.477 277.047 955.021 275.414 955.021H271.09V977.361ZM306.563 991.414C306.034 991.414 305.578 991.222 305.194 990.837C304.809 990.453 304.617 989.997 304.617 989.468V942.914C304.617 942.385 304.809 941.929 305.194 941.544C305.578 941.16 306.034 940.968 306.563 940.968H321.264C321.793 940.968 322.249 941.16 322.633 941.544C323.018 941.929 323.21 942.385 323.21 942.914V989.468C323.21 989.997 323.018 990.453 322.633 990.837C322.249 991.222 321.793 991.414 321.264 991.414H306.563ZM331.293 991.414C330.765 991.414 330.308 991.222 329.924 990.837C329.54 990.453 329.347 989.997 329.347 989.468V942.914C329.347 942.385 329.54 941.929 329.924 941.544C330.308 941.16 330.765 940.968 331.293 940.968H342.68C343.64 940.968 344.337 941.184 344.769 941.616C345.202 942.049 345.49 942.385 345.634 942.625L357.813 962.588V942.914C357.813 942.385 358.006 941.929 358.39 941.544C358.774 941.16 359.231 940.968 359.759 940.968H372.803C373.332 940.968 373.788 941.16 374.172 941.544C374.557 941.929 374.749 942.385 374.749 942.914V989.468C374.749 989.997 374.557 990.453 374.172 990.837C373.788 991.222 373.332 991.414 372.803 991.414H361.417C360.456 991.414 359.759 991.198 359.327 990.765C358.894 990.285 358.606 989.948 358.462 989.756L346.283 971.38V989.468C346.283 989.997 346.091 990.453 345.706 990.837C345.322 991.222 344.866 991.414 344.337 991.414H331.293ZM403.88 992.134C399.028 992.134 394.824 991.414 391.269 989.973C387.714 988.531 384.927 986.345 382.909 983.415C380.891 980.484 379.786 976.784 379.594 972.316C379.546 970.347 379.522 968.209 379.522 965.903C379.522 963.596 379.546 961.41 379.594 959.345C379.786 955.069 380.891 951.537 382.909 948.751C384.975 945.916 387.81 943.802 391.413 942.409C395.016 940.968 399.172 940.247 403.88 940.247C407.676 940.247 411.087 940.68 414.114 941.544C417.14 942.361 419.735 943.514 421.897 945.003C424.059 946.493 425.716 948.222 426.869 950.192C428.022 952.114 428.623 954.156 428.671 956.318C428.671 956.75 428.503 957.135 428.166 957.471C427.878 957.759 427.518 957.903 427.085 957.903H411.159C410.63 957.903 410.198 957.831 409.862 957.687C409.573 957.543 409.309 957.351 409.069 957.111C408.877 956.87 408.589 956.534 408.204 956.102C407.868 955.621 407.363 955.213 406.691 954.876C406.018 954.492 405.081 954.3 403.88 954.3C402.103 954.3 400.757 954.756 399.845 955.669C398.932 956.534 398.427 957.879 398.331 959.705C398.187 963.693 398.187 967.776 398.331 971.956C398.427 974.118 398.98 975.679 399.989 976.64C400.998 977.601 402.391 978.082 404.169 978.082C405.37 978.082 406.427 977.914 407.339 977.577C408.252 977.241 408.973 976.688 409.501 975.92C410.03 975.151 410.294 974.166 410.294 972.965V972.893H406.907C406.379 972.893 405.922 972.701 405.538 972.316C405.153 971.932 404.961 971.476 404.961 970.947V962.948C404.961 962.419 405.153 961.963 405.538 961.579C405.922 961.194 406.379 961.002 406.907 961.002H426.725C427.254 961.002 427.71 961.194 428.094 961.579C428.479 961.963 428.671 962.419 428.671 962.948V972.316C428.671 976.64 427.614 980.268 425.5 983.198C423.386 986.129 420.455 988.363 416.708 989.9C413.009 991.39 408.733 992.134 403.88 992.134Z" fill="white"/>
<path d="M166.334 1149.81C166.093 1149.81 165.905 1149.74 165.769 1149.61C165.634 1149.46 165.573 1149.27 165.589 1149.06L166.086 1134.51C166.101 1134.37 166.161 1134.25 166.266 1134.15C166.387 1134.04 166.523 1133.99 166.673 1133.99H169.543C169.98 1133.99 170.176 1134.18 170.131 1134.56L169.747 1142.96L172.323 1138.1C172.534 1137.7 172.82 1137.49 173.182 1137.49H174.876C175.253 1137.49 175.464 1137.7 175.509 1138.1L176.052 1143.03L179.261 1134.51C179.321 1134.31 179.411 1134.18 179.532 1134.1C179.667 1134.03 179.848 1133.99 180.074 1133.99H183.125C183.245 1133.99 183.336 1134.03 183.396 1134.1C183.471 1134.16 183.509 1134.25 183.509 1134.35C183.509 1134.4 183.494 1134.46 183.464 1134.56L178.153 1149.06C178.063 1149.27 177.92 1149.46 177.724 1149.61C177.543 1149.74 177.332 1149.81 177.091 1149.81H174.763C174.522 1149.81 174.342 1149.75 174.221 1149.63C174.116 1149.51 174.055 1149.37 174.04 1149.22L172.91 1142.96L169.588 1149.22C169.378 1149.61 169.054 1149.81 168.617 1149.81H166.334ZM184.664 1149.81C184.498 1149.81 184.37 1149.76 184.28 1149.65C184.204 1149.53 184.182 1149.39 184.212 1149.24L187.353 1134.56C187.383 1134.39 187.459 1134.25 187.579 1134.15C187.715 1134.04 187.865 1133.99 188.031 1133.99H191.24C191.391 1133.99 191.511 1134.04 191.602 1134.15C191.707 1134.25 191.745 1134.39 191.715 1134.56L188.573 1149.24C188.543 1149.41 188.46 1149.55 188.325 1149.65C188.189 1149.76 188.046 1149.81 187.895 1149.81H184.664ZM197.163 1149.81C196.997 1149.81 196.869 1149.76 196.779 1149.65C196.689 1149.55 196.658 1149.41 196.689 1149.24L199.152 1137.67H195.174C195.009 1137.67 194.881 1137.62 194.79 1137.52C194.7 1137.41 194.67 1137.27 194.7 1137.11L195.242 1134.58C195.272 1134.41 195.355 1134.28 195.491 1134.17C195.626 1134.05 195.777 1133.99 195.943 1133.99H208.214C208.379 1133.99 208.508 1134.05 208.598 1134.17C208.688 1134.28 208.718 1134.41 208.688 1134.58L208.123 1137.11C208.093 1137.27 208.01 1137.41 207.875 1137.52C207.754 1137.62 207.611 1137.67 207.445 1137.67H203.468L200.982 1149.24C200.952 1149.41 200.869 1149.55 200.734 1149.65C200.613 1149.76 200.47 1149.81 200.304 1149.81H197.163ZM209.566 1149.81C209.4 1149.81 209.272 1149.76 209.182 1149.65C209.091 1149.55 209.061 1149.41 209.091 1149.24L212.21 1134.58C212.24 1134.41 212.323 1134.28 212.459 1134.17C212.594 1134.05 212.745 1133.99 212.911 1133.99H215.984C216.15 1133.99 216.278 1134.05 216.368 1134.17C216.458 1134.28 216.489 1134.41 216.458 1134.58L215.306 1139.93H220.662L221.814 1134.58C221.844 1134.41 221.92 1134.28 222.04 1134.17C222.176 1134.05 222.327 1133.99 222.492 1133.99H225.588C225.754 1133.99 225.874 1134.05 225.95 1134.17C226.04 1134.28 226.07 1134.41 226.04 1134.58L222.922 1149.24C222.891 1149.41 222.809 1149.55 222.673 1149.65C222.537 1149.76 222.394 1149.81 222.244 1149.81H219.148C218.982 1149.81 218.854 1149.76 218.764 1149.65C218.673 1149.53 218.643 1149.39 218.673 1149.24L219.871 1143.71H214.515L213.34 1149.24C213.31 1149.41 213.227 1149.55 213.091 1149.65C212.956 1149.76 212.805 1149.81 212.639 1149.81H209.566ZM240.705 1150.04C239.53 1150.04 238.475 1149.85 237.541 1149.47C236.622 1149.09 235.892 1148.54 235.349 1147.8C234.807 1147.06 234.536 1146.16 234.536 1145.09C234.536 1144.77 234.573 1144.37 234.649 1143.89C234.905 1142.43 235.184 1141.12 235.485 1139.98C235.997 1137.93 236.901 1136.39 238.197 1135.35C239.507 1134.29 241.263 1133.76 243.462 1133.76C244.622 1133.76 245.669 1133.96 246.603 1134.35C247.537 1134.74 248.276 1135.32 248.818 1136.09C249.36 1136.85 249.632 1137.76 249.632 1138.83C249.632 1139.14 249.594 1139.53 249.519 1139.98C249.308 1141.2 249.029 1142.5 248.682 1143.89C248.17 1145.95 247.259 1147.5 245.948 1148.52C244.652 1149.53 242.905 1150.04 240.705 1150.04ZM241.044 1146.65C241.858 1146.65 242.543 1146.41 243.101 1145.94C243.673 1145.46 244.08 1144.73 244.321 1143.75C244.652 1142.38 244.916 1141.15 245.112 1140.05C245.172 1139.75 245.202 1139.44 245.202 1139.12C245.202 1137.81 244.517 1137.15 243.146 1137.15C242.332 1137.15 241.639 1137.4 241.067 1137.88C240.509 1138.34 240.11 1139.07 239.869 1140.05C239.613 1141 239.342 1142.23 239.056 1143.75C238.995 1144.05 238.965 1144.36 238.965 1144.68C238.965 1145.99 239.658 1146.65 241.044 1146.65ZM252.182 1149.81C252.016 1149.81 251.888 1149.76 251.797 1149.65C251.707 1149.55 251.677 1149.41 251.707 1149.24L254.826 1134.58C254.856 1134.41 254.939 1134.28 255.074 1134.17C255.21 1134.05 255.361 1133.99 255.526 1133.99H261.583C263.27 1133.99 264.626 1134.34 265.65 1135.03C266.69 1135.72 267.21 1136.73 267.21 1138.06C267.21 1138.43 267.164 1138.83 267.074 1139.23C266.697 1140.98 265.929 1142.28 264.769 1143.12C263.624 1143.95 262.057 1144.36 260.069 1144.36H257.131L256.091 1149.24C256.061 1149.41 255.978 1149.55 255.843 1149.65C255.722 1149.76 255.579 1149.81 255.413 1149.81H252.182ZM260.227 1141.13C260.829 1141.13 261.357 1140.97 261.809 1140.66C262.261 1140.33 262.554 1139.84 262.69 1139.21C262.75 1138.88 262.78 1138.65 262.78 1138.53C262.78 1137.67 262.238 1137.24 261.153 1137.24H258.577L257.741 1141.13H260.227ZM272.581 1149.81C272.415 1149.81 272.287 1149.76 272.197 1149.65C272.106 1149.55 272.076 1149.41 272.106 1149.24L274.57 1137.67H270.592C270.427 1137.67 270.299 1137.62 270.208 1137.52C270.118 1137.41 270.088 1137.27 270.118 1137.11L270.66 1134.58C270.69 1134.41 270.773 1134.28 270.909 1134.17C271.044 1134.05 271.195 1133.99 271.361 1133.99H283.632C283.797 1133.99 283.925 1134.05 284.016 1134.17C284.106 1134.28 284.136 1134.41 284.106 1134.58L283.541 1137.11C283.511 1137.27 283.428 1137.41 283.293 1137.52C283.172 1137.62 283.029 1137.67 282.863 1137.67H278.886L276.4 1149.24C276.37 1149.41 276.287 1149.55 276.152 1149.65C276.031 1149.76 275.888 1149.81 275.722 1149.81H272.581ZM284.961 1149.81C284.795 1149.81 284.667 1149.76 284.577 1149.65C284.502 1149.53 284.479 1149.39 284.509 1149.24L287.65 1134.56C287.681 1134.39 287.756 1134.25 287.876 1134.15C288.012 1134.04 288.163 1133.99 288.328 1133.99H291.537C291.688 1133.99 291.809 1134.04 291.899 1134.15C292.004 1134.25 292.042 1134.39 292.012 1134.56L288.871 1149.24C288.841 1149.41 288.758 1149.55 288.622 1149.65C288.487 1149.76 288.343 1149.81 288.193 1149.81H284.961ZM294.003 1149.81C293.837 1149.81 293.709 1149.76 293.619 1149.65C293.528 1149.55 293.498 1149.41 293.528 1149.24L296.647 1134.58C296.677 1134.41 296.76 1134.28 296.895 1134.17C297.031 1134.05 297.182 1133.99 297.347 1133.99H299.924C300.135 1133.99 300.293 1134.04 300.398 1134.15C300.504 1134.24 300.587 1134.35 300.647 1134.49L303.065 1141.45L308.443 1134.49C308.519 1134.37 308.632 1134.25 308.782 1134.15C308.933 1134.04 309.114 1133.99 309.325 1133.99H311.901C312.067 1133.99 312.195 1134.05 312.285 1134.17C312.375 1134.28 312.406 1134.41 312.375 1134.58L309.234 1149.24C309.204 1149.41 309.121 1149.55 308.986 1149.65C308.865 1149.76 308.722 1149.81 308.556 1149.81H305.686C305.521 1149.81 305.393 1149.76 305.302 1149.65C305.212 1149.53 305.182 1149.39 305.212 1149.24L306.929 1141.15L303.63 1145.49C303.344 1145.84 303.042 1146.01 302.726 1146.01H301.506C301.189 1146.01 300.971 1145.84 300.85 1145.49L299.314 1140.95L297.551 1149.24C297.521 1149.41 297.438 1149.55 297.302 1149.65C297.167 1149.76 297.024 1149.81 296.873 1149.81H294.003ZM314.343 1149.81C314.177 1149.81 314.049 1149.76 313.959 1149.65C313.883 1149.53 313.861 1149.39 313.891 1149.24L317.032 1134.56C317.062 1134.39 317.137 1134.25 317.258 1134.15C317.394 1134.04 317.544 1133.99 317.71 1133.99H320.919C321.07 1133.99 321.19 1134.04 321.28 1134.15C321.386 1134.25 321.424 1134.39 321.393 1134.56L318.252 1149.24C318.222 1149.41 318.139 1149.55 318.004 1149.65C317.868 1149.76 317.725 1149.81 317.574 1149.81H314.343ZM329.057 1150.04C327.716 1150.04 326.571 1149.85 325.622 1149.49C324.673 1149.13 323.957 1148.65 323.475 1148.05C322.993 1147.43 322.752 1146.75 322.752 1146.01C322.752 1145.89 322.767 1145.71 322.797 1145.47C322.812 1145.33 322.872 1145.22 322.978 1145.13C323.098 1145.04 323.226 1145 323.362 1145H326.39C326.586 1145 326.729 1145.03 326.819 1145.09C326.925 1145.15 327.03 1145.25 327.136 1145.4C327.256 1145.76 327.497 1146.07 327.859 1146.31C328.236 1146.53 328.748 1146.65 329.396 1146.65C330.209 1146.65 330.864 1146.52 331.362 1146.28C331.874 1146.03 332.183 1145.68 332.288 1145.24C332.303 1145.18 332.311 1145.1 332.311 1145C332.311 1144.62 332.077 1144.33 331.61 1144.11C331.143 1143.9 330.3 1143.66 329.079 1143.39C326.081 1142.77 324.582 1141.45 324.582 1139.41C324.582 1139.05 324.627 1138.68 324.718 1138.31C325.019 1136.89 325.772 1135.78 326.978 1134.98C328.198 1134.17 329.765 1133.76 331.678 1133.76C332.823 1133.76 333.847 1133.97 334.751 1134.37C335.655 1134.78 336.356 1135.3 336.853 1135.93C337.365 1136.55 337.621 1137.18 337.621 1137.81C337.621 1137.88 337.606 1138.01 337.576 1138.19C337.546 1138.33 337.486 1138.45 337.395 1138.56C337.305 1138.65 337.192 1138.69 337.056 1138.69H333.847C333.516 1138.69 333.29 1138.56 333.17 1138.28C333.139 1137.97 332.959 1137.7 332.627 1137.49C332.311 1137.27 331.889 1137.15 331.362 1137.15C330.714 1137.15 330.187 1137.27 329.78 1137.49C329.388 1137.72 329.139 1138.05 329.034 1138.49C329.019 1138.55 329.011 1138.63 329.011 1138.74C329.011 1139.1 329.215 1139.39 329.622 1139.62C330.043 1139.83 330.789 1140.05 331.859 1140.27C333.561 1140.59 334.804 1141.06 335.588 1141.7C336.371 1142.33 336.763 1143.17 336.763 1144.2C336.763 1144.63 336.725 1145 336.65 1145.31C336.318 1146.86 335.505 1148.04 334.209 1148.84C332.928 1149.64 331.211 1150.04 329.057 1150.04ZM340.017 1149.81C339.851 1149.81 339.723 1149.76 339.633 1149.65C339.543 1149.55 339.513 1149.41 339.543 1149.24L342.661 1134.58C342.691 1134.41 342.774 1134.28 342.91 1134.17C343.045 1134.05 343.196 1133.99 343.362 1133.99H345.938C346.149 1133.99 346.307 1134.04 346.413 1134.15C346.518 1134.24 346.601 1134.35 346.661 1134.49L349.079 1141.45L354.458 1134.49C354.533 1134.37 354.646 1134.25 354.797 1134.15C354.947 1134.04 355.128 1133.99 355.339 1133.99H357.915C358.081 1133.99 358.209 1134.05 358.299 1134.17C358.39 1134.28 358.42 1134.41 358.39 1134.58L355.249 1149.24C355.218 1149.41 355.136 1149.55 355 1149.65C354.879 1149.76 354.736 1149.81 354.571 1149.81H351.701C351.535 1149.81 351.407 1149.76 351.316 1149.65C351.226 1149.53 351.196 1149.39 351.226 1149.24L352.944 1141.15L349.644 1145.49C349.358 1145.84 349.057 1146.01 348.74 1146.01H347.52C347.204 1146.01 346.985 1145.84 346.865 1145.49L345.328 1140.95L343.565 1149.24C343.535 1149.41 343.452 1149.55 343.317 1149.65C343.181 1149.76 343.038 1149.81 342.887 1149.81H340.017Z" fill="white"/>
<mask id="mask0_2_684" style="mask-type:alpha" maskUnits="userSpaceOnUse" x="10" y="-1" width="511" height="383">
<rect x="10.3311" y="-0.000244141" width="510.281" height="381.045" fill="#D9D9D9"/>
</mask>
<g mask="url(#mask0_2_684)">
<path fill-rule="evenodd" clip-rule="evenodd" d="M330.089 14.6553H200.854C103.725 14.6553 24.9866 93.3937 24.9866 190.522V381.045H505.956V190.522C505.956 93.3937 427.218 14.6553 330.089 14.6553ZM200.854 -0.000244141C95.6309 -0.000244141 10.3311 85.2996 10.3311 190.522V381.045H520.612V190.522C520.612 85.2996 435.312 -0.000244141 330.089 -0.000244141H200.854Z" fill="white"/>
<path fill-rule="evenodd" clip-rule="evenodd" d="M131.344 1.33208C65.9796 1.33208 12.9916 54.3201 12.9916 119.684V253.998C2.82418 249.998 0.77058 250.173 -0.198105 252.697C-0.653717 253.882 -0.696835 255.712 -0.292965 256.761C0.063488 257.691 5.72925 260.482 12.9916 263.635V361.346C-23.7454 361.545 -50.0152 361.983 -50.804 362.483C-51.8704 363.159 -52.5085 364.928 -52.2225 366.414C-51.7985 368.615 -49.196 369.035 12.9916 369.325V381.045H523.272V369.317C579.698 369.025 582.151 368.591 582.571 366.414C582.857 364.928 582.219 363.159 581.153 362.483C580.38 361.993 556.667 361.563 523.272 361.359V337.113C536.887 335.25 548.061 333.294 548.725 332.629C551.159 330.196 549.146 326.006 545.427 325.761C543.509 325.633 533.646 326.672 523.272 328.086V266.199C551.881 254.209 573.17 244.963 574.061 244.079C575.727 242.426 575.76 241.66 574.245 239.833C571.655 236.714 569.465 237.121 554.782 243.452C551.367 244.924 539.624 249.84 523.272 256.649V225.375C530.073 221.086 531.457 219.137 530.633 216.989C529.759 214.71 527.665 214.23 523.272 215.862V120.099C523.272 54.506 470.099 1.33208 404.505 1.33208H131.344ZM523.272 215.862C519.951 217.096 515.315 219.538 508.899 223.324C492.398 233.06 490.383 234.782 491.643 238.068C493.088 241.832 495.846 241.049 510.897 232.602C516.249 229.598 520.284 227.26 523.272 225.375V215.862ZM523.272 256.649C505.553 264.029 482.421 273.634 458.612 283.492C412.834 302.447 374.896 318.737 374.307 319.691C372.992 321.82 374.022 324.825 376.381 325.729C377.344 326.098 389.421 321.707 403.217 315.97C417.015 310.234 460.641 292.164 500.166 275.818C508.2 272.495 515.974 269.258 523.272 266.199V256.649ZM523.272 328.086C522.996 328.124 522.72 328.162 522.444 328.2C511.772 329.67 500.349 331.264 497.06 331.738C490.597 332.672 487.985 335.993 491.192 339.199C492.783 340.789 497.667 340.507 520.266 337.518C521.279 337.384 522.282 337.249 523.272 337.113V328.086ZM523.272 361.359C510.627 361.281 496.593 361.236 481.891 361.233C389.553 361.213 384.497 361.343 383.18 363.804L383.12 363.916L383.12 363.916L383.12 363.917C382.558 364.966 382.095 365.831 382.267 366.54C383.073 369.858 397.759 369.803 481.062 369.493L482.991 369.485C498.804 369.427 512.097 369.374 523.272 369.317V361.359ZM12.9916 369.325C24.5759 369.379 38.2279 369.428 54.3185 369.484C148.052 369.81 160.434 369.6 161.176 367.67C161.636 366.469 161.215 364.524 160.239 363.348C158.699 361.493 144.817 361.214 54.8 361.233C40.0099 361.236 25.8587 361.276 12.9916 361.346V369.325ZM12.9916 263.635C26.0513 269.307 44.274 276.154 46.0686 275.465C47.3392 274.977 48.1124 273.307 47.8652 271.588C47.5188 269.186 43.1525 266.739 26.5895 259.657C20.9149 257.231 16.4766 255.37 12.9916 253.998V263.635ZM267.884 253.197C266.413 250.877 266.165 30.1269 267.631 28.6595C268.191 28.1004 269.969 27.8302 271.583 28.0616C274.508 28.4798 274.517 28.819 274.517 141.287C274.517 250.555 274.432 254.111 271.814 254.615C270.328 254.901 268.559 254.263 267.884 253.197ZM183.803 56.7252C178.522 36.9411 177.996 32.6422 180.735 31.6878C185.611 29.9875 186.089 30.9792 193.3 57.7514C197.761 74.316 197.615 78.0673 192.502 78.0673C189.702 78.0673 189.106 76.6042 183.803 56.7252ZM348.57 59.9346C351.088 50.5406 353.442 42.3697 353.801 41.7761C354.927 39.9162 360.087 40.6033 360.9 42.7204C361.327 43.8328 359.617 52.5226 357.101 62.0316C352.443 79.6354 350.141 83.1639 346.009 79.0303C344.277 77.2998 344.64 74.592 348.57 59.9346ZM370.094 118.134C370.094 115.301 385.349 77.3099 387.77 74.1148C389.638 71.6485 394.042 71.854 395.039 74.454C396.021 77.0124 379.238 118.298 376.228 120.727C373.442 122.978 370.094 121.562 370.094 118.134ZM162.863 116.155C149.614 84.6932 147.526 78.3404 149.715 76.1514C151.231 74.6351 154.023 75.0318 155.611 76.9894C158.653 80.7392 184.81 146.102 184.055 148.07C183.606 149.24 181.862 149.934 180.023 149.673C177.266 149.282 174.71 144.293 162.863 116.155ZM400.267 133.403C416.237 105.735 430.294 81.9868 431.501 80.6286C433.16 78.763 434.353 78.5115 436.389 79.6009C437.871 80.3943 439.083 81.6893 439.083 82.4812C439.083 85.0812 332.053 269.54 330.098 270.308C329.049 270.719 327.212 270.078 326.016 268.882C325.898 268.764 325.783 268.655 325.673 268.552L325.672 268.551C325.392 268.287 325.146 268.056 324.973 267.779C323.738 265.801 326.228 261.497 346.52 226.426L346.544 226.384C347.652 224.468 348.814 222.461 350.03 220.358C361.688 200.2 384.294 161.07 400.267 133.403ZM253.902 255.022C251.263 253.349 228.96 85.3299 231.032 82.7385C233.257 79.9559 236.352 80.6099 237.839 84.1758C238.581 85.9537 244.024 124.582 249.934 170.016C261.258 257.067 261.384 259.764 253.902 255.022ZM299.013 120.707C301.732 100.286 304.324 82.9857 304.772 82.2599C305.869 80.4848 310.774 80.5826 311.898 82.4007C313.281 84.6371 290.914 252.421 288.951 254.546C286.383 257.329 282.421 255.094 282.421 250.863C282.421 247.333 288.455 199.999 299.013 120.707ZM159.5 181.323C120.649 114.064 110.518 95.5015 111.58 93.5181C113.156 90.576 116.177 90.2483 118.232 92.7994C120.851 96.0491 216.716 262.569 217.337 264.947C217.672 266.224 216.897 268.14 215.616 269.202C213.652 270.834 212.936 270.782 211.029 268.873C209.784 267.63 186.597 228.233 159.5 181.323ZM238.542 257.421C236.189 254.844 200.453 120.102 201.439 117.529C202.672 114.315 207.581 115.047 209.111 118.67C210.277 121.429 218.482 151.686 240.622 234.85C243.058 244.005 245.053 252.83 245.053 254.459C245.053 258.063 240.867 259.968 238.542 257.421ZM303.779 227.28C323.711 152.61 332.794 118.87 333.404 117.233C334.36 114.666 339.838 115.01 340.87 117.702C341.349 118.948 340.383 124.93 338.725 130.997C337.066 137.063 328.866 167.574 320.506 198.799C312.144 230.024 304.358 256.518 303.204 257.675C301.362 259.524 300.817 259.491 298.737 257.412C296.537 255.212 296.896 253.066 303.779 227.28ZM409.222 181.468C408.86 179.564 427.306 154.167 444.395 133.043C447.113 129.683 450.517 126.935 451.96 126.935C454.977 126.935 456.962 130.838 455.161 133.226C424.572 173.764 415.578 184.557 412.723 184.147C411.032 183.906 409.456 182.7 409.222 181.468ZM349.254 284.634C349.254 283.227 381.263 250.107 421.835 209.535C463.425 167.946 495.337 137.122 496.573 137.349C503.715 138.657 498.998 143.987 427.112 215.832C355.331 287.572 349.254 292.942 349.254 284.634ZM62.521 162.092C62.521 161.253 63.2971 159.791 64.2457 158.842C65.1943 157.894 66.6559 157.118 67.4953 157.118C68.3332 157.118 80.2337 168.346 93.9409 182.07C111.677 199.828 118.712 207.8 118.343 209.721C117.012 216.628 112.49 213.525 87.4732 188.538C73.7488 174.831 62.521 162.93 62.521 162.092ZM311.483 260.467C311.1 258.479 345.386 173.261 350.895 162.507C353.11 158.186 357.78 157.228 359.155 160.813C359.647 162.093 351.058 184.654 339.32 212.914C320.505 258.216 318.313 262.758 315.271 262.758C313.351 262.758 311.737 261.78 311.483 260.467ZM118.574 171.539C118.574 170.063 119.383 168.53 120.371 168.13C121.359 167.732 122.621 167.354 123.176 167.292C125.122 167.074 204.81 271.952 204.81 274.731C204.81 278.616 201.203 279.634 197.833 276.699C192.147 271.746 118.574 174.131 118.574 171.539ZM34 188.539C33.7269 187.806 33.8692 186.257 34.3133 185.097C35.8469 181.1 40.1831 183.022 54.5643 194.071C62.498 200.168 94.2125 224.483 125.042 248.106C155.871 271.729 181.859 292.029 182.792 293.216C185.049 296.087 183.63 299.408 180.148 299.408C177.493 299.408 35.0391 191.342 34 188.539ZM224.247 261.876C221.12 258.595 194.796 193.16 195.679 190.861C196.836 187.845 201.563 188.23 203.303 191.483C207.444 199.221 230.68 256.708 230.68 259.216C230.68 262.887 226.756 264.51 224.247 261.876ZM358.963 295.815C358.688 293.57 370.969 283.44 415.016 249.585C446.293 225.544 472.794 206.175 474.501 206.107C478.211 205.961 480.161 210.088 477.582 212.631C476.565 213.633 450.832 233.587 420.398 256.972C365.199 299.388 359.816 302.79 358.963 295.815ZM337.868 272.442C338.597 270.982 349.218 256.735 361.471 240.784C378.097 219.14 384.53 211.777 386.828 211.759C392.793 211.711 391.703 215.865 382.59 227.905C360.266 257.396 345.669 276.052 343.529 277.829C340.262 280.54 335.899 276.387 337.868 272.442ZM46.1204 239.577C45.7223 238.538 46.3834 236.701 47.5907 235.494C49.3413 233.743 50.4192 233.634 52.9186 234.951C65.979 241.832 171.579 303.221 173.605 305.108C177.024 308.296 175.382 312.824 171.103 312.004C166.597 311.143 46.9842 241.826 46.1204 239.577ZM169.258 270.325C153.074 254.178 149.944 249.834 152.59 247.188C155.207 244.569 159.467 247.636 175.685 263.814C187.864 275.966 193.311 282.405 193.311 284.654C193.311 291.918 187.332 288.355 169.258 270.325ZM367.938 308.25C367.938 305.391 373.791 301.544 408.894 281.32C431.421 268.341 450.454 257.924 451.191 258.17C453.692 259.003 455.625 263.321 454.142 264.758C450.369 268.413 372.29 312.424 370.268 312.035C368.919 311.774 367.938 310.183 367.938 308.25ZM72.816 285.926C72.5315 284.44 73.171 282.677 74.2375 282.007C74.3256 281.952 74.4073 281.897 74.4851 281.844L74.5775 281.781C74.7292 281.676 74.8689 281.58 75.0171 281.5C76.758 280.556 79.6653 281.762 116.722 297.138C118.924 298.052 121.246 299.016 123.696 300.032C147.361 309.847 167.357 318.885 168.135 320.115C169.134 321.696 168.923 322.969 167.416 324.463C165.074 326.785 163.736 326.297 102.061 300.598C80.6778 291.689 73.2012 287.937 72.816 285.926ZM23.3557 303.517C20.4553 301.977 19.9853 297.111 22.6371 296.062C23.6259 295.671 25.4038 295.591 26.5895 295.882C34.9285 297.936 154.718 330.013 158.331 331.162C163.701 332.866 165.271 335.868 162.33 338.808C160.499 340.639 159.304 340.658 153.407 338.943C146.544 336.948 73.0302 317.25 42.3993 309.199C33.3087 306.809 24.7398 304.253 23.3557 303.517ZM440.52 315.909C466.211 309.045 493.698 301.604 501.603 299.376C509.508 297.149 516.762 295.273 517.722 295.211C520.084 295.056 522.505 299.857 521.163 302.03C519.467 304.772 382.679 341.01 380.514 339.291C379.527 338.505 378.718 336.694 378.718 335.267C378.718 335.112 378.708 334.968 378.699 334.832C378.685 334.608 378.672 334.406 378.703 334.212C379.009 332.339 383.479 331.145 430.955 318.465L430.956 318.464L431.344 318.361L436.318 317.032C437.686 316.667 439.086 316.293 440.52 315.909ZM41.9035 337.949C40.8442 336.269 40.9104 334.978 42.132 333.506C43.0792 332.365 45.3055 331.664 47.079 331.947C48.8526 332.231 72.9411 335.379 100.608 338.942C128.276 342.505 152.952 345.756 155.444 346.169C160.581 347.017 162.298 349.78 159.796 353.172C158.255 355.262 152.815 354.776 100.748 347.896C54.6477 341.803 43.105 339.853 41.9035 337.949ZM383.261 347.413C384.179 346.845 402.775 344.014 424.582 341.121C449.095 337.87 465.195 336.329 466.75 337.088C470.258 338.801 469.887 342.33 466.031 343.929C461.728 345.714 384.526 355.667 382.879 354.65C381.033 353.51 381.292 348.631 383.261 347.413ZM237.194 298.575C237.122 298.406 236.881 298.406 236.808 298.575L233.36 306.634C232.794 307.957 231.734 309.011 230.403 309.574L222.296 313.002C222.126 313.074 222.126 313.314 222.296 313.385L230.403 316.813C231.734 317.376 232.794 318.43 233.36 319.753L236.808 327.812C236.881 327.982 237.122 327.982 237.194 327.812L240.642 319.753C241.208 318.43 242.269 317.376 243.6 316.813L251.707 313.385C251.877 313.314 251.877 313.074 251.707 313.002L243.6 309.574C242.269 309.011 241.208 307.957 240.642 306.634L237.194 298.575ZM299.823 298.565C299.894 298.4 300.129 298.4 300.2 298.565L303.672 306.679C304.226 307.974 305.262 309.004 306.564 309.555L314.727 313.006C314.893 313.076 314.893 313.311 314.727 313.381L306.564 316.832C305.262 317.383 304.226 318.414 303.672 319.708L300.2 327.822C300.129 327.988 299.894 327.988 299.823 327.822L296.351 319.708C295.797 318.414 294.761 317.383 293.459 316.832L285.296 313.381C285.13 313.311 285.13 313.076 285.296 313.006L293.459 309.555C294.761 309.004 295.797 307.974 296.351 306.679L299.823 298.565ZM260.102 330.088C260.102 328.73 258.994 327.629 257.628 327.629C256.262 327.629 255.154 328.73 255.154 330.088C255.154 337.024 260.954 342.386 268.349 342.386C275.744 342.386 281.544 337.024 281.544 330.088C281.544 328.73 280.436 327.629 279.07 327.629C277.704 327.629 276.596 328.73 276.596 330.088C276.596 334.019 273.311 337.467 268.349 337.467C263.387 337.467 260.102 334.019 260.102 330.088Z" fill="white"/>
</g>
</svg>
