<?xml version="1.0" encoding="UTF-8"?>
<svg width="24px" height="24px" viewBox="0 0 24 24" version="1.1" xmlns="http://www.w3.org/2000/svg" xmlns:xlink="http://www.w3.org/1999/xlink">
    <title>Group 2</title>
    <g id="Page-1" stroke="none" stroke-width="1" fill="none" fill-rule="evenodd">
        <g id="Frame-1000004578" transform="translate(-48, 0)" fill-rule="nonzero">
            <g id="Group-2" transform="translate(48, 0)">
                <rect id="Rectangle" fill="#212327" x="0" y="0" width="24" height="24"></rect>
                <path d="M6,7.6132 C6,7.2284 6.1351,6.9109 6.4054,6.6608 C6.6757,6.4107 7.027,6.2856 7.4595,6.2856 C7.8842,6.2856 8.2278,6.4088 8.4903,6.6551 C8.7606,6.909 8.8958,7.2399 8.8958,7.6478 C8.8958,8.0172 8.7645,8.3251 8.5019,8.5714 C8.2317,8.8253 7.8764,8.9523 7.4363,8.9523 L7.4247,8.9523 C7,8.9523 6.6564,8.8253 6.3938,8.5714 C6.1313,8.3174 6,7.998 6,7.6132 Z M6.1506,17.7142 L6.1506,10.0028 L8.722,10.0028 L8.722,17.7142 L6.1506,17.7142 Z M10.1467,17.7142 L12.7181,17.7142 L12.7181,13.4083 C12.7181,13.1389 12.749,12.9311 12.8108,12.7849 C12.9189,12.5233 13.083,12.302 13.3031,12.1211 C13.5232,11.9403 13.7992,11.8499 14.1313,11.8499 C14.9961,11.8499 15.4286,12.4309 15.4286,13.593 L15.4286,17.7142 L18,17.7142 L18,13.2929 C18,12.1538 17.7297,11.29 17.1892,10.7012 C16.6486,10.1125 15.9344,9.8181 15.0463,9.8181 C14.0502,9.8181 13.2741,10.2452 12.7181,11.0995 L12.7181,11.1226 L12.7066,11.1226 L12.7181,11.0995 L12.7181,10.0028 L10.1467,10.0028 C10.1622,10.2491 10.1699,11.0148 10.1699,12.3001 C10.1699,13.5853 10.1622,15.39 10.1467,17.7142 Z" id="Shape" fill="#FFFFFF"></path>
            </g>
        </g>
    </g>
</svg>