<svg width="1400" height="2249" viewBox="0 0 1400 2249" fill="none" xmlns="http://www.w3.org/2000/svg">
<path opacity="0.2" d="M161.5 -1592L165.268 271.008L412.176 -1575.57L172.74 271.992L658.562 -1526.56L180.02 273.943L896.444 -1445.81L186.982 276.827L1121.75 -1334.7L193.509 280.595L1330.63 -1195.14L199.488 285.183L1519.5 -1029.5L204.817 290.512L1685.14 -840.626L209.405 296.491L1824.7 -631.75L213.173 303.018L1935.81 -406.444L216.057 309.98L2016.56 -168.562L218.008 317.26L2065.57 77.8245L218.992 324.732L2082 328.5L218.992 332.268L2065.57 579.176L218.008 339.74L2016.56 825.562L216.057 347.02L1935.81 1063.44L213.173 353.982L1824.7 1288.75L209.405 360.509L1685.14 1497.63L204.817 366.488L1519.5 1686.5L199.488 371.817L1330.63 1852.14L193.509 376.405L1121.75 1991.7L186.982 380.173L896.444 2102.81L180.02 383.057L658.562 2183.56L172.74 385.008L412.176 2232.57L165.268 385.992L161.5 2249L157.732 385.992L-89.1755 2232.57L150.26 385.008L-335.562 2183.56L142.98 383.057L-573.444 2102.81L136.018 380.173L-798.75 1991.7L129.491 376.405L-1007.63 1852.14L123.512 371.817L-1196.5 1686.5L118.183 366.488L-1362.14 1497.63L113.595 360.509L-1501.7 1288.75L109.827 353.982L-1612.81 1063.44L106.943 347.02L-1693.56 825.562L104.992 339.74L-1742.57 579.176L104.008 332.268L-1759 328.5L104.008 324.732L-1742.57 77.8245L104.992 317.26L-1693.56 -168.562L106.943 309.98L-1612.81 -406.444L109.827 303.018L-1501.7 -631.75L113.595 296.491L-1362.14 -840.626L118.183 290.512L-1196.5 -1029.5L123.512 285.183L-1007.63 -1195.14L129.491 280.595L-798.75 -1334.7L136.018 276.827L-573.444 -1445.81L142.98 273.943L-335.562 -1526.56L150.26 271.992L-89.1755 -1575.57L157.732 271.008L161.5 -1592Z" fill="white" fill-opacity="0.75"/>
</svg>
