<?xml version="1.0" encoding="UTF-8"?>
<svg width="24px" height="24px" viewBox="0 0 24 24" version="1.1" xmlns="http://www.w3.org/2000/svg" xmlns:xlink="http://www.w3.org/1999/xlink">
    <title>Group</title>
    <g id="Page-1" stroke="none" stroke-width="1" fill="none" fill-rule="evenodd">
        <g id="Frame-1000004578" fill-rule="nonzero">
            <g id="Group">
                <rect id="Rectangle" fill="#212327" x="0" y="0" width="24" height="24"></rect>
                <path d="M14.018,7.1342 L14.018,7.1321 L14.5807,7.1321 L14.7863,7.1731 C14.9234,7.1998 15.0478,7.2347 15.1596,7.278 C15.2714,7.3212 15.3796,7.3716 15.4842,7.4292 C15.5888,7.4869 15.6837,7.5456 15.7688,7.6054 C15.8532,7.6644 15.929,7.7271 15.996,7.7934 C16.0624,7.8604 16.1659,7.8777 16.3066,7.8453 C16.4473,7.8128 16.5987,7.7678 16.761,7.7102 C16.9234,7.6526 17.0839,7.5877 17.2426,7.5157 C17.4013,7.4436 17.4979,7.3979 17.5326,7.3784 C17.5665,7.3583 17.5845,7.3475 17.5867,7.346 L17.5888,7.3428 L17.5996,7.3374 L17.6105,7.332 L17.6213,7.3266 L17.6321,7.3212 L17.6343,7.3179 L17.6375,7.3158 L17.6408,7.3136 L17.6429,7.3104 L17.6537,7.3071 L17.6646,7.305 L17.6624,7.3212 L17.6592,7.3374 L17.6537,7.3536 L17.6483,7.3698 L17.6429,7.3806 L17.6375,7.3914 L17.6321,7.4076 C17.6285,7.4184 17.6249,7.4328 17.6213,7.4508 C17.6177,7.4689 17.5834,7.5409 17.5185,7.667 C17.4536,7.793 17.3724,7.9209 17.275,8.0506 C17.1776,8.1802 17.0904,8.2782 17.0132,8.3445 C16.9353,8.4115 16.8837,8.4583 16.8584,8.4849 C16.8332,8.5123 16.8025,8.5375 16.7665,8.5606 L16.7124,8.5962 L16.7015,8.6016 L16.6907,8.607 L16.6886,8.6103 L16.6853,8.6124 L16.6821,8.6146 L16.6799,8.6179 L16.6691,8.6233 L16.6583,8.6287 L16.6561,8.6319 L16.6528,8.6341 L16.6496,8.6362 L16.6474,8.6395 L16.6453,8.6427 L16.642,8.6449 L16.6388,8.647 L16.6366,8.6503 L16.6907,8.6503 L16.9937,8.5854 C17.1957,8.5422 17.3886,8.49 17.5726,8.4288 L17.8647,8.3315 L17.8972,8.3207 L17.9134,8.3153 L17.9243,8.3099 L17.9351,8.3045 L17.9459,8.2991 L17.9567,8.2937 L17.9784,8.2904 L18,8.2883 L18,8.3099 L17.9946,8.3121 L17.9892,8.3153 L17.987,8.3185 L17.9838,8.3207 L17.9805,8.3229 L17.9784,8.3261 L17.9762,8.3293 L17.9729,8.3315 L17.9697,8.3337 L17.9675,8.3369 L17.9654,8.3401 L17.9621,8.3423 L17.9567,8.3531 L17.9513,8.3639 L17.9481,8.3661 C17.9466,8.3682 17.9008,8.4295 17.8106,8.5498 C17.7205,8.6708 17.6718,8.732 17.6646,8.7335 C17.6574,8.7356 17.6472,8.7464 17.6343,8.7659 C17.622,8.7861 17.5455,8.8664 17.4049,9.0069 C17.2642,9.1473 17.1264,9.2723 16.9915,9.3818 C16.8559,9.492 16.7874,9.6275 16.7859,9.7881 C16.7838,9.948 16.7755,10.1288 16.761,10.3305 C16.7466,10.5322 16.7196,10.7502 16.6799,10.9843 C16.6402,11.2184 16.5789,11.4831 16.4959,11.7785 C16.413,12.0738 16.312,12.362 16.193,12.6429 C16.0739,12.9239 15.9495,13.176 15.8197,13.3993 C15.6898,13.6227 15.5708,13.8117 15.4626,13.9666 C15.3544,14.1215 15.2444,14.2674 15.1326,14.4043 C15.0207,14.5411 14.8794,14.6953 14.7084,14.8667 C14.5367,15.0375 14.4429,15.1311 14.4271,15.1477 C14.4105,15.1635 14.3398,15.2226 14.215,15.3249 C14.0909,15.4279 13.9574,15.5309 13.8146,15.6339 C13.6725,15.7362 13.5419,15.8216 13.4229,15.89 C13.3039,15.9585 13.1603,16.0366 12.9922,16.1245 C12.8249,16.2131 12.6438,16.2952 12.4491,16.3709 C12.2543,16.4465 12.0487,16.5167 11.8323,16.5816 C11.6159,16.6464 11.4067,16.6968 11.2047,16.7329 C11.0027,16.7689 10.7737,16.7995 10.5176,16.8247 L10.1335,16.8625 L10.1335,16.8679 L9.4301,16.8679 L9.4301,16.8625 L9.3381,16.8571 C9.2768,16.8535 9.2263,16.8499 9.1867,16.8463 C9.147,16.8427 8.9973,16.8229 8.7376,16.7869 C8.4779,16.7509 8.2741,16.7148 8.1262,16.6788 C7.9784,16.6428 7.7583,16.5744 7.4662,16.4735 C7.174,16.3727 6.9241,16.2707 6.7163,16.1677 C6.5093,16.0654 6.3794,16.0006 6.3268,15.9732 C6.2748,15.9466 6.2164,15.9134 6.1515,15.8738 L6.0541,15.8144 L6.0519,15.8111 L6.0487,15.809 L6.0454,15.8068 L6.0433,15.8036 L6.0325,15.7982 L6.0216,15.7928 L6.0195,15.7895 L6.0162,15.7874 L6.013,15.7852 L6.0108,15.782 L6.0087,15.7787 L6.0054,15.7766 L6,15.7766 L6,15.755 L6.0108,15.7571 L6.0216,15.7604 L6.0703,15.7658 C6.1028,15.7694 6.1912,15.7748 6.3354,15.782 C6.4797,15.7892 6.633,15.7892 6.7953,15.782 C6.9576,15.7748 7.1235,15.7586 7.2931,15.7333 C7.4626,15.7081 7.6628,15.6649 7.8936,15.6037 C8.1244,15.5424 8.3365,15.4697 8.5299,15.3854 C8.7225,15.3004 8.8595,15.237 8.941,15.1952 C9.0218,15.1542 9.1452,15.0778 9.3111,14.9661 L9.56,14.7987 L9.5621,14.7954 L9.5654,14.7933 L9.5686,14.7911 L9.5708,14.7879 L9.5729,14.7846 L9.5762,14.7824 L9.5795,14.7803 L9.5816,14.777 L9.5924,14.7738 L9.6032,14.7716 L9.6054,14.7608 L9.6087,14.75 L9.6119,14.7479 L9.6141,14.7446 L9.5275,14.7392 C9.4698,14.7356 9.4139,14.732 9.3598,14.7284 C9.3057,14.7248 9.2209,14.7086 9.1055,14.6798 C8.9901,14.651 8.8657,14.6078 8.7322,14.5501 C8.5987,14.4925 8.4689,14.4241 8.3427,14.3448 C8.2164,14.2656 8.1252,14.1997 8.0689,14.1471 C8.0133,14.0952 7.9412,14.0217 7.8525,13.9266 C7.7645,13.8308 7.688,13.7325 7.6231,13.6317 C7.5582,13.5308 7.4961,13.4144 7.437,13.2826 L7.3472,13.086 L7.3417,13.0698 L7.3363,13.0536 L7.3331,13.0427 L7.3309,13.0319 L7.3472,13.0341 L7.3634,13.0373 L7.4824,13.0536 C7.5618,13.0644 7.6862,13.068 7.8557,13.0644 C8.0253,13.0608 8.1425,13.0536 8.2074,13.0427 C8.2723,13.0319 8.312,13.0247 8.3264,13.0211 L8.3481,13.0157 L8.3751,13.0103 L8.4022,13.0049 L8.4043,13.0017 L8.4076,12.9995 L8.4108,12.9974 L8.413,12.9941 L8.3913,12.9887 L8.3697,12.9833 L8.3481,12.9779 L8.3264,12.9725 L8.3048,12.9671 C8.2904,12.9635 8.2651,12.9563 8.229,12.9455 C8.193,12.9347 8.0956,12.8951 7.9369,12.8266 C7.7782,12.7582 7.6519,12.6916 7.5582,12.6267 C7.4641,12.5617 7.3745,12.4906 7.2898,12.4139 C7.2054,12.3361 7.1127,12.2359 7.0117,12.1135 C6.9107,11.991 6.8206,11.8487 6.7412,11.6866 C6.6619,11.5246 6.6023,11.3697 6.5627,11.222 C6.5231,11.0752 6.4971,10.9251 6.4848,10.7736 L6.4653,10.5467 L6.4761,10.5488 L6.4869,10.5521 L6.4977,10.5575 L6.5086,10.5629 L6.5194,10.5683 L6.5302,10.5737 L6.6979,10.6493 C6.8097,10.6997 6.9486,10.743 7.1145,10.779 C7.2804,10.815 7.3796,10.8348 7.4121,10.8384 L7.4608,10.8438 L7.5582,10.8438 L7.556,10.8406 L7.5528,10.8384 L7.5495,10.8362 L7.5473,10.833 L7.5452,10.8298 L7.5419,10.8276 L7.5387,10.8254 L7.5365,10.8222 L7.5257,10.8168 L7.5149,10.8114 L7.5127,10.8081 L7.5095,10.806 L7.5062,10.8038 L7.5041,10.8006 L7.4932,10.7952 L7.4824,10.7898 L7.4803,10.7865 C7.4781,10.7851 7.4471,10.762 7.3872,10.7174 C7.328,10.672 7.266,10.6133 7.2011,10.5412 C7.1362,10.4692 7.0712,10.3936 7.0063,10.3143 C6.9413,10.2349 6.8833,10.1499 6.8332,10.0604 C6.7827,9.9704 6.7293,9.8558 6.673,9.7168 C6.6175,9.5785 6.5753,9.4391 6.5464,9.2986 C6.5176,9.1581 6.5014,9.0195 6.4977,8.8826 C6.4941,8.7457 6.4977,8.6287 6.5086,8.5314 C6.5194,8.4342 6.541,8.3243 6.5735,8.2018 C6.606,8.0794 6.6528,7.9497 6.7142,7.8128 L6.8061,7.6075 L6.8115,7.5913 L6.817,7.5751 L6.8202,7.5729 L6.8224,7.5697 L6.8245,7.5665 L6.8278,7.5643 L6.831,7.5665 L6.8332,7.5697 L6.8353,7.5729 L6.8386,7.5751 L6.8419,7.5773 L6.844,7.5805 L6.8462,7.5838 L6.8494,7.5859 L6.8548,7.5967 L6.8602,7.6075 L6.8635,7.6097 L6.8656,7.6129 L7.0117,7.775 C7.1091,7.8831 7.2245,8.0037 7.358,8.137 C7.4914,8.2703 7.5654,8.3394 7.5798,8.3445 C7.5942,8.3502 7.6123,8.3668 7.6339,8.3942 C7.6555,8.4208 7.7277,8.4846 7.8503,8.5854 C7.973,8.6863 8.1335,8.8034 8.3318,8.9366 C8.5302,9.0699 8.7502,9.2014 8.9919,9.331 C9.2336,9.4607 9.4932,9.5777 9.771,9.6822 C10.0487,9.7867 10.2435,9.8551 10.3553,9.8875 C10.4671,9.9199 10.6583,9.9613 10.9288,10.0118 C11.1993,10.0622 11.4031,10.0946 11.5401,10.109 C11.6772,10.1234 11.771,10.1317 11.8215,10.1339 L11.8972,10.136 L11.8951,10.1198 L11.8918,10.1036 L11.8702,9.9686 C11.8557,9.8785 11.8485,9.7524 11.8485,9.5904 C11.8485,9.4283 11.8611,9.2788 11.8864,9.1419 C11.9116,9.005 11.9495,8.8664 12,8.7259 C12.0505,8.5854 12.0999,8.4727 12.1482,8.3877 C12.1973,8.3034 12.2615,8.2072 12.3408,8.0992 C12.4202,7.9911 12.523,7.8795 12.6492,7.7642 C12.7755,7.6489 12.9197,7.5463 13.0821,7.4562 C13.2444,7.3662 13.3941,7.2978 13.5311,7.2509 C13.6682,7.2041 13.7836,7.1735 13.8774,7.1591 C13.9711,7.1447 14.018,7.1364 14.018,7.1342 Z" id="Path" fill="#FFFFFF"></path>
            </g>
        </g>
    </g>
</svg>